<svg width="1877" height="428" viewBox="0 0 1877 428" fill="none" xmlns="http://www.w3.org/2000/svg">
<path d="M645.234 3.02751C646.071 3.02751 646.748 2.34976 646.748 1.51373C646.748 0.677707 646.071 0 645.234 0C644.398 0 643.721 0.677707 643.721 1.51373C643.721 2.34976 644.398 3.02751 645.234 3.02751Z" fill="white"/>
<path d="M166.575 123.402C168.787 123.402 170.58 121.609 170.58 119.397C170.58 117.186 168.787 115.393 166.575 115.393C164.363 115.393 162.57 117.186 162.57 119.397C162.57 121.609 164.363 123.402 166.575 123.402Z" fill="white"/>
<path d="M510.349 320.294C512.56 320.294 514.354 318.501 514.354 316.289C514.354 314.077 512.56 312.284 510.349 312.284C508.137 312.284 506.344 314.077 506.344 316.289C506.344 318.501 508.137 320.294 510.349 320.294Z" fill="white"/>
<path d="M576.923 169.459C579.135 169.459 580.928 167.665 580.928 165.454C580.928 163.242 579.135 161.449 576.923 161.449C574.711 161.449 572.918 163.242 572.918 165.454C572.918 167.665 574.711 169.459 576.923 169.459Z" fill="white"/>
<path d="M302.815 323.934C305.027 323.934 306.82 322.141 306.82 319.929C306.82 317.717 305.027 315.924 302.815 315.924C300.604 315.924 298.811 317.717 298.811 319.929C298.811 322.141 300.604 323.934 302.815 323.934Z" fill="white"/>
<path d="M385.694 69.0786C387.906 69.0786 389.699 67.2856 389.699 65.0737C389.699 62.8619 387.906 61.0688 385.694 61.0688C383.482 61.0688 381.689 62.8619 381.689 65.0737C381.689 67.2856 383.482 69.0786 385.694 69.0786Z" fill="white"/>
<path d="M709.962 25.0953C712.174 25.0953 713.967 23.3022 713.967 21.0903C713.967 18.8785 712.174 17.0854 709.962 17.0854C707.75 17.0854 705.957 18.8785 705.957 21.0903C705.957 23.3022 707.75 25.0953 709.962 25.0953Z" fill="white"/>
<path d="M4.0049 305.208C6.21675 305.208 8.0098 303.415 8.0098 301.203C8.0098 298.991 6.21675 297.198 4.0049 297.198C1.79306 297.198 0 298.991 0 301.203C0 303.415 1.79306 305.208 4.0049 305.208Z" fill="white"/>
<path d="M107.121 223.139C107.957 223.139 108.635 222.462 108.635 221.626C108.635 220.79 107.957 220.112 107.121 220.112C106.285 220.112 105.607 220.79 105.607 221.626C105.607 222.462 106.285 223.139 107.121 223.139Z" fill="white"/>
<path d="M316.473 187.255C317.309 187.255 317.986 186.577 317.986 185.741C317.986 184.905 317.309 184.227 316.473 184.227C315.637 184.227 314.959 184.905 314.959 185.741C314.959 186.577 315.637 187.255 316.473 187.255Z" fill="white"/>
<path d="M658.18 206.611C659.016 206.611 659.694 205.933 659.694 205.097C659.694 204.261 659.016 203.583 658.18 203.583C657.344 203.583 656.666 204.261 656.666 205.097C656.666 205.933 657.344 206.611 658.18 206.611Z" fill="white"/>
<path d="M645.234 427.028C646.071 427.028 646.748 426.35 646.748 425.514C646.748 424.678 646.071 424 645.234 424C644.398 424 643.721 424.678 643.721 425.514C643.721 426.35 644.398 427.028 645.234 427.028Z" fill="white"/>
<path d="M634.227 320.751C635.063 320.751 635.74 320.073 635.74 319.237C635.74 318.401 635.063 317.723 634.227 317.723C633.391 317.723 632.713 318.401 632.713 319.237C632.713 320.073 633.391 320.751 634.227 320.751Z" fill="white"/>
<path d="M517.199 34.8576C518.035 34.8576 518.713 34.1799 518.713 33.3438C518.713 32.5078 518.035 31.8301 517.199 31.8301C516.363 31.8301 515.686 32.5078 515.686 33.3438C515.686 34.1799 516.363 34.8576 517.199 34.8576Z" fill="white"/>
<path d="M393.061 256.081C393.897 256.081 394.574 255.403 394.574 254.567C394.574 253.731 393.897 253.053 393.061 253.053C392.225 253.053 391.547 253.731 391.547 254.567C391.547 255.403 392.225 256.081 393.061 256.081Z" fill="white"/>
<path d="M418.893 397.205C419.729 397.205 420.406 396.528 420.406 395.691C420.406 394.855 419.729 394.178 418.893 394.178C418.057 394.178 417.379 394.855 417.379 395.691C417.379 396.528 418.057 397.205 418.893 397.205Z" fill="white"/>
<path d="M236.498 415.756C237.334 415.756 238.012 415.078 238.012 414.242C238.012 413.406 237.334 412.729 236.498 412.729C235.662 412.729 234.984 413.406 234.984 414.242C234.984 415.078 235.662 415.756 236.498 415.756Z" fill="white"/>
<path d="M232.34 333.06C233.176 333.06 233.854 332.382 233.854 331.546C233.854 330.71 233.176 330.032 232.34 330.032C231.504 330.032 230.826 330.71 230.826 331.546C230.826 332.382 231.504 333.06 232.34 333.06Z" fill="white"/>
<path d="M71.4493 398.767C72.2853 398.767 72.9631 398.089 72.9631 397.253C72.9631 396.417 72.2853 395.739 71.4493 395.739C70.6133 395.739 69.9355 396.417 69.9355 397.253C69.9355 398.089 70.6133 398.767 71.4493 398.767Z" fill="white"/>
<path d="M249.707 29.7717C250.543 29.7717 251.221 29.0939 251.221 28.2579C251.221 27.4219 250.543 26.7441 249.707 26.7441C248.871 26.7441 248.193 27.4219 248.193 28.2579C248.193 29.0939 248.871 29.7717 249.707 29.7717Z" fill="white"/>
<path d="M40.2403 136.629C41.0763 136.629 41.7541 135.951 41.7541 135.115C41.7541 134.279 41.0763 133.601 40.2403 133.601C39.4043 133.601 38.7266 134.279 38.7266 135.115C38.7266 135.951 39.4043 136.629 40.2403 136.629Z" fill="white"/>
<path d="M102.656 20.1213C103.492 20.1213 104.17 19.4435 104.17 18.6075C104.17 17.7715 103.492 17.0938 102.656 17.0938C101.82 17.0938 101.143 17.7715 101.143 18.6075C101.143 19.4435 101.82 20.1213 102.656 20.1213Z" fill="white"/>
<path d="M836.565 70.6571C836.565 69.8211 835.887 69.1434 835.051 69.1434C834.215 69.1434 833.537 69.8211 833.537 70.6571C833.537 71.4932 834.215 72.1709 835.051 72.1709C835.887 72.1709 836.565 71.4932 836.565 70.6571Z" fill="white"/>
<path d="M742.088 110.112C742.088 109.276 741.41 108.598 740.574 108.598C739.738 108.598 739.061 109.276 739.061 110.112C739.061 110.948 739.738 111.626 740.574 111.626C741.41 111.626 742.088 110.948 742.088 110.112Z" fill="white"/>
<path d="M166.575 123.402C168.787 123.402 170.58 121.609 170.58 119.397C170.58 117.186 168.787 115.393 166.575 115.393C164.363 115.393 162.57 117.186 162.57 119.397C162.57 121.609 164.363 123.402 166.575 123.402Z" fill="white"/>
<path d="M510.349 320.294C512.56 320.294 514.354 318.501 514.354 316.289C514.354 314.077 512.56 312.284 510.349 312.284C508.137 312.284 506.344 314.077 506.344 316.289C506.344 318.501 508.137 320.294 510.349 320.294Z" fill="white"/>
<path d="M576.923 169.459C579.135 169.459 580.928 167.665 580.928 165.454C580.928 163.242 579.135 161.449 576.923 161.449C574.711 161.449 572.918 163.242 572.918 165.454C572.918 167.665 574.711 169.459 576.923 169.459Z" fill="white"/>
<path d="M302.815 323.934C305.027 323.934 306.82 322.141 306.82 319.929C306.82 317.717 305.027 315.924 302.815 315.924C300.604 315.924 298.811 317.717 298.811 319.929C298.811 322.141 300.604 323.934 302.815 323.934Z" fill="white"/>
<path d="M385.694 69.0786C387.906 69.0786 389.699 67.2856 389.699 65.0737C389.699 62.8619 387.906 61.0688 385.694 61.0688C383.482 61.0688 381.689 62.8619 381.689 65.0737C381.689 67.2856 383.482 69.0786 385.694 69.0786Z" fill="white"/>
<path d="M709.962 25.0953C712.174 25.0953 713.967 23.3022 713.967 21.0903C713.967 18.8785 712.174 17.0854 709.962 17.0854C707.75 17.0854 705.957 18.8785 705.957 21.0903C705.957 23.3022 707.75 25.0953 709.962 25.0953Z" fill="white"/>
<path d="M4.0049 305.208C6.21675 305.208 8.0098 303.415 8.0098 301.203C8.0098 298.991 6.21675 297.198 4.0049 297.198C1.79306 297.198 0 298.991 0 301.203C0 303.415 1.79306 305.208 4.0049 305.208Z" fill="white"/>
<path d="M107.121 223.139C107.957 223.139 108.635 222.462 108.635 221.626C108.635 220.79 107.957 220.112 107.121 220.112C106.285 220.112 105.607 220.79 105.607 221.626C105.607 222.462 106.285 223.139 107.121 223.139Z" fill="white"/>
<path d="M316.473 187.255C317.309 187.255 317.986 186.577 317.986 185.741C317.986 184.905 317.309 184.227 316.473 184.227C315.637 184.227 314.959 184.905 314.959 185.741C314.959 186.577 315.637 187.255 316.473 187.255Z" fill="white"/>
<path d="M658.18 206.611C659.016 206.611 659.694 205.933 659.694 205.097C659.694 204.261 659.016 203.583 658.18 203.583C657.344 203.583 656.666 204.261 656.666 205.097C656.666 205.933 657.344 206.611 658.18 206.611Z" fill="white"/>
<path d="M645.234 427.028C646.071 427.028 646.748 426.35 646.748 425.514C646.748 424.678 646.071 424 645.234 424C644.398 424 643.721 424.678 643.721 425.514C643.721 426.35 644.398 427.028 645.234 427.028Z" fill="white"/>
<path d="M557.525 392.113C558.361 392.113 559.039 391.435 559.039 390.599C559.039 389.763 558.361 389.085 557.525 389.085C556.689 389.085 556.012 389.763 556.012 390.599C556.012 391.435 556.689 392.113 557.525 392.113Z" fill="white"/>
<path d="M517.199 34.8576C518.035 34.8576 518.713 34.1799 518.713 33.3438C518.713 32.5078 518.035 31.8301 517.199 31.8301C516.363 31.8301 515.686 32.5078 515.686 33.3438C515.686 34.1799 516.363 34.8576 517.199 34.8576Z" fill="white"/>
<path d="M393.061 256.081C393.897 256.081 394.574 255.403 394.574 254.567C394.574 253.731 393.897 253.053 393.061 253.053C392.225 253.053 391.547 253.731 391.547 254.567C391.547 255.403 392.225 256.081 393.061 256.081Z" fill="white"/>
<path d="M484.523 170.113C485.36 170.113 486.037 169.435 486.037 168.599C486.037 167.763 485.36 167.085 484.523 167.085C483.687 167.085 483.01 167.763 483.01 168.599C483.01 169.435 483.687 170.113 484.523 170.113Z" fill="white"/>
<path d="M418.893 397.205C419.729 397.205 420.406 396.528 420.406 395.691C420.406 394.855 419.729 394.178 418.893 394.178C418.057 394.178 417.379 394.855 417.379 395.691C417.379 396.528 418.057 397.205 418.893 397.205Z" fill="white"/>
<path d="M236.498 415.756C237.334 415.756 238.012 415.078 238.012 414.242C238.012 413.406 237.334 412.729 236.498 412.729C235.662 412.729 234.984 413.406 234.984 414.242C234.984 415.078 235.662 415.756 236.498 415.756Z" fill="white"/>
<path d="M232.34 333.06C233.176 333.06 233.854 332.382 233.854 331.546C233.854 330.71 233.176 330.032 232.34 330.032C231.504 330.032 230.826 330.71 230.826 331.546C230.826 332.382 231.504 333.06 232.34 333.06Z" fill="white"/>
<path d="M71.4493 398.767C72.2853 398.767 72.9631 398.089 72.9631 397.253C72.9631 396.417 72.2853 395.739 71.4493 395.739C70.6133 395.739 69.9355 396.417 69.9355 397.253C69.9355 398.089 70.6133 398.767 71.4493 398.767Z" fill="white"/>
<path d="M249.707 29.7717C250.543 29.7717 251.221 29.0939 251.221 28.2579C251.221 27.4219 250.543 26.7441 249.707 26.7441C248.871 26.7441 248.193 27.4219 248.193 28.2579C248.193 29.0939 248.871 29.7717 249.707 29.7717Z" fill="white"/>
<path d="M40.2403 136.629C41.0763 136.629 41.7541 135.951 41.7541 135.115C41.7541 134.279 41.0763 133.601 40.2403 133.601C39.4043 133.601 38.7266 134.279 38.7266 135.115C38.7266 135.951 39.4043 136.629 40.2403 136.629Z" fill="white"/>
<path d="M102.656 20.1213C103.492 20.1213 104.17 19.4435 104.17 18.6075C104.17 17.7715 103.492 17.0938 102.656 17.0938C101.82 17.0938 101.143 17.7715 101.143 18.6075C101.143 19.4435 101.82 20.1213 102.656 20.1213Z" fill="white"/>
<path d="M836.565 70.6571C836.565 69.8211 835.887 69.1434 835.051 69.1434C834.215 69.1434 833.537 69.8211 833.537 70.6571C833.537 71.4932 834.215 72.1709 835.051 72.1709C835.887 72.1709 836.565 71.4932 836.565 70.6571Z" fill="white"/>
<path d="M742.088 110.112C742.088 109.276 741.41 108.598 740.574 108.598C739.738 108.598 739.061 109.276 739.061 110.112C739.061 110.948 739.738 111.626 740.574 111.626C741.41 111.626 742.088 110.948 742.088 110.112Z" fill="white"/>
<path d="M914.591 121.402C916.803 121.402 918.596 119.609 918.596 117.397C918.596 115.186 916.803 113.393 914.591 113.393C912.379 113.393 910.586 115.186 910.586 117.397C910.586 119.609 912.379 121.402 914.591 121.402Z" fill="white"/>
<path d="M1324.94 167.459C1327.15 167.459 1328.94 165.665 1328.94 163.454C1328.94 161.242 1327.15 159.449 1324.94 159.449C1322.73 159.449 1320.93 161.242 1320.93 163.454C1320.93 165.665 1322.73 167.459 1324.94 167.459Z" fill="white"/>
<path d="M1050.83 321.934C1053.04 321.934 1054.84 320.141 1054.84 317.929C1054.84 315.717 1053.04 313.924 1050.83 313.924C1048.62 313.924 1046.83 315.717 1046.83 317.929C1046.83 320.141 1048.62 321.934 1050.83 321.934Z" fill="white"/>
<path d="M1133.71 67.0786C1135.92 67.0786 1137.71 65.2856 1137.71 63.0737C1137.71 60.8619 1135.92 59.0688 1133.71 59.0688C1131.5 59.0688 1129.71 60.8619 1129.71 63.0737C1129.71 65.2856 1131.5 67.0786 1133.71 67.0786Z" fill="white"/>
<path d="M1457.98 23.0953C1460.19 23.0953 1461.98 21.3022 1461.98 19.0903C1461.98 16.8785 1460.19 15.0854 1457.98 15.0854C1455.76 15.0854 1453.97 16.8785 1453.97 19.0903C1453.97 21.3022 1455.76 23.0953 1457.98 23.0953Z" fill="white"/>
<path d="M752.021 303.208C754.232 303.208 756.025 301.415 756.025 299.203C756.025 296.991 754.232 295.198 752.021 295.198C749.809 295.198 748.016 296.991 748.016 299.203C748.016 301.415 749.809 303.208 752.021 303.208Z" fill="white"/>
<path d="M1019.54 180.113C1020.37 180.113 1021.05 179.435 1021.05 178.599C1021.05 177.763 1020.37 177.085 1019.54 177.085C1018.7 177.085 1018.02 177.763 1018.02 178.599C1018.02 179.435 1018.7 180.113 1019.54 180.113Z" fill="white"/>
<path d="M855.137 221.139C855.973 221.139 856.651 220.462 856.651 219.626C856.651 218.79 855.973 218.112 855.137 218.112C854.301 218.112 853.623 218.79 853.623 219.626C853.623 220.462 854.301 221.139 855.137 221.139Z" fill="white"/>
<path d="M1208.54 153.113C1209.38 153.113 1210.05 152.435 1210.05 151.599C1210.05 150.763 1209.38 150.085 1208.54 150.085C1207.7 150.085 1207.03 150.763 1207.03 151.599C1207.03 152.435 1207.7 153.113 1208.54 153.113Z" fill="white"/>
<path d="M1485.55 323.113C1486.38 323.113 1487.06 322.435 1487.06 321.599C1487.06 320.763 1486.38 320.085 1485.55 320.085C1484.71 320.085 1484.03 320.763 1484.03 321.599C1484.03 322.435 1484.71 323.113 1485.55 323.113Z" fill="white"/>
<path d="M1406.2 204.611C1407.03 204.611 1407.71 203.933 1407.71 203.097C1407.71 202.261 1407.03 201.583 1406.2 201.583C1405.36 201.583 1404.68 202.261 1404.68 203.097C1404.68 203.933 1405.36 204.611 1406.2 204.611Z" fill="white"/>
<path d="M1393.25 425.028C1394.09 425.028 1394.76 424.35 1394.76 423.514C1394.76 422.678 1394.09 422 1393.25 422C1392.41 422 1391.74 422.678 1391.74 423.514C1391.74 424.35 1392.41 425.028 1393.25 425.028Z" fill="white"/>
<path d="M1267.64 341.461C1268.48 341.461 1269.15 340.783 1269.15 339.947C1269.15 339.111 1268.48 338.433 1267.64 338.433C1266.8 338.433 1266.13 339.111 1266.13 339.947C1266.13 340.783 1266.8 341.461 1267.64 341.461Z" fill="white"/>
<path d="M1307.54 17.113C1308.38 17.113 1309.05 16.4352 1309.05 15.5992C1309.05 14.7632 1308.38 14.0854 1307.54 14.0854C1306.71 14.0854 1306.03 14.7632 1306.03 15.5992C1306.03 16.4352 1306.71 17.113 1307.54 17.113Z" fill="white"/>
<path d="M1141.08 254.081C1141.91 254.081 1142.59 253.403 1142.59 252.567C1142.59 251.731 1141.91 251.053 1141.08 251.053C1140.24 251.053 1139.56 251.731 1139.56 252.567C1139.56 253.403 1140.24 254.081 1141.08 254.081Z" fill="white"/>
<path d="M1166.91 395.205C1167.74 395.205 1168.42 394.528 1168.42 393.691C1168.42 392.855 1167.74 392.178 1166.91 392.178C1166.07 392.178 1165.39 392.855 1165.39 393.691C1165.39 394.528 1166.07 395.205 1166.91 395.205Z" fill="white"/>
<path d="M1799.63 294.549C1801.84 294.549 1803.64 292.756 1803.64 290.544C1803.64 288.333 1801.84 286.54 1799.63 286.54C1797.42 286.54 1795.63 288.333 1795.63 290.544C1795.63 292.756 1797.42 294.549 1799.63 294.549Z" fill="white"/>
<path d="M1592.1 298.189C1594.31 298.189 1596.11 296.396 1596.11 294.184C1596.11 291.972 1594.31 290.179 1592.1 290.179C1589.89 290.179 1588.1 291.972 1588.1 294.184C1588.1 296.396 1589.89 298.189 1592.1 298.189Z" fill="white"/>
<path d="M1674.98 43.334C1677.19 43.334 1678.98 41.541 1678.98 39.3291C1678.98 37.1173 1677.19 35.3242 1674.98 35.3242C1672.77 35.3242 1670.97 37.1173 1670.97 39.3291C1670.97 41.541 1672.77 43.334 1674.98 43.334Z" fill="white"/>
<path d="M1814.32 41.8796C1815.16 41.8796 1815.84 41.2018 1815.84 40.3658C1815.84 39.5298 1815.16 38.8521 1814.32 38.8521C1813.49 38.8521 1812.81 39.5298 1812.81 40.3658C1812.81 41.2018 1813.49 41.8796 1814.32 41.8796Z" fill="white"/>
<path d="M1698.3 140.011C1699.13 140.011 1699.81 139.333 1699.81 138.497C1699.81 137.661 1699.13 136.983 1698.3 136.983C1697.46 136.983 1696.78 137.661 1696.78 138.497C1696.78 139.333 1697.46 140.011 1698.3 140.011Z" fill="white"/>
<path d="M1680.55 284.113C1681.38 284.113 1682.06 283.435 1682.06 282.599C1682.06 281.763 1681.38 281.085 1680.55 281.085C1679.71 281.085 1679.04 281.763 1679.04 282.599C1679.04 283.435 1679.71 284.113 1680.55 284.113Z" fill="white"/>
<path d="M1805.55 190.113C1806.39 190.113 1807.06 189.435 1807.06 188.599C1807.06 187.763 1806.39 187.085 1805.55 187.085C1804.71 187.085 1804.04 187.763 1804.04 188.599C1804.04 189.435 1804.71 190.113 1805.55 190.113Z" fill="white"/>
<path d="M984.514 413.756C985.35 413.756 986.028 413.078 986.028 412.242C986.028 411.406 985.35 410.729 984.514 410.729C983.678 410.729 983 411.406 983 412.242C983 413.078 983.678 413.756 984.514 413.756Z" fill="white"/>
<path d="M920.533 312.113C921.369 312.113 922.047 311.435 922.047 310.599C922.047 309.763 921.369 309.085 920.533 309.085C919.697 309.085 919.02 309.763 919.02 310.599C919.02 311.435 919.697 312.113 920.533 312.113Z" fill="white"/>
<path d="M819.465 396.767C820.301 396.767 820.979 396.089 820.979 395.253C820.979 394.417 820.301 393.739 819.465 393.739C818.629 393.739 817.951 394.417 817.951 395.253C817.951 396.089 818.629 396.767 819.465 396.767Z" fill="white"/>
<path d="M997.723 27.7717C998.559 27.7717 999.236 27.0939 999.236 26.2579C999.236 25.4219 998.559 24.7441 997.723 24.7441C996.887 24.7441 996.209 25.4219 996.209 26.2579C996.209 27.0939 996.887 27.7717 997.723 27.7717Z" fill="white"/>
<path d="M1565.29 154.58C1565.29 152.368 1563.49 150.575 1561.28 150.575C1559.07 150.575 1557.28 152.368 1557.28 154.58C1557.28 156.792 1559.07 158.585 1561.28 158.585C1563.49 158.585 1565.29 156.792 1565.29 154.58Z" fill="white"/>
<path d="M1605.06 395.599C1605.06 394.763 1604.38 394.086 1603.55 394.086C1602.71 394.086 1602.03 394.763 1602.03 395.599C1602.03 396.435 1602.71 397.113 1603.55 397.113C1604.38 397.113 1605.06 396.435 1605.06 395.599Z" fill="white"/>
<path d="M1584.58 68.6571C1584.58 67.8211 1583.9 67.1434 1583.07 67.1434C1582.23 67.1434 1581.55 67.8211 1581.55 68.6571C1581.55 69.4932 1582.23 70.1709 1583.07 70.1709C1583.9 70.1709 1584.58 69.4932 1584.58 68.6571Z" fill="white"/>
<path d="M1490.1 108.112C1490.1 107.276 1489.43 106.598 1488.59 106.598C1487.75 106.598 1487.08 107.276 1487.08 108.112C1487.08 108.948 1487.75 109.626 1488.59 109.626C1489.43 109.626 1490.1 108.948 1490.1 108.112Z" fill="white"/>
<path d="M1875.49 389.758C1876.32 389.758 1877 389.081 1877 388.245C1877 387.409 1876.32 386.731 1875.49 386.731C1874.65 386.731 1873.97 387.409 1873.97 388.245C1873.97 389.081 1874.65 389.758 1875.49 389.758Z" fill="white"/>
<path d="M1875.49 389.758C1876.32 389.758 1877 389.081 1877 388.245C1877 387.409 1876.32 386.731 1875.49 386.731C1874.65 386.731 1873.97 387.409 1873.97 388.245C1873.97 389.081 1874.65 389.758 1875.49 389.758Z" fill="white"/>
</svg>
