<svg width="1877" height="845" viewBox="0 0 1877 845" fill="none" xmlns="http://www.w3.org/2000/svg">
<path d="M166.571 117.317C168.783 117.317 170.576 115.524 170.576 113.312C170.576 111.1 168.783 109.307 166.571 109.307C164.359 109.307 162.566 111.1 162.566 113.312C162.566 115.524 164.359 117.317 166.571 117.317Z" fill="white"/>
<path d="M510.339 314.209C512.551 314.209 514.344 312.415 514.344 310.204C514.344 307.992 512.551 306.199 510.339 306.199C508.127 306.199 506.334 307.992 506.334 310.204C506.334 312.415 508.127 314.209 510.339 314.209Z" fill="white"/>
<path d="M576.911 163.373C579.123 163.373 580.916 161.58 580.916 159.368C580.916 157.156 579.123 155.363 576.911 155.363C574.699 155.363 572.906 157.156 572.906 159.368C572.906 161.58 574.699 163.373 576.911 163.373Z" fill="white"/>
<path d="M302.81 317.848C305.021 317.848 306.814 316.055 306.814 313.843C306.814 311.631 305.021 309.838 302.81 309.838C300.598 309.838 298.805 311.631 298.805 313.843C298.805 316.055 300.598 317.848 302.81 317.848Z" fill="white"/>
<path d="M385.687 62.9932C387.898 62.9932 389.691 61.2001 389.691 58.9883C389.691 56.7764 387.898 54.9834 385.687 54.9834C383.475 54.9834 381.682 56.7764 381.682 58.9883C381.682 61.2001 383.475 62.9932 385.687 62.9932Z" fill="white"/>
<path d="M709.946 19.0098C712.158 19.0098 713.951 17.2167 713.951 15.0049C713.951 12.7931 712.158 11 709.946 11C707.734 11 705.941 12.7931 705.941 15.0049C705.941 17.2167 707.734 19.0098 709.946 19.0098Z" fill="white"/>
<path d="M107.119 217.054C107.955 217.054 108.633 216.376 108.633 215.54C108.633 214.704 107.955 214.026 107.119 214.026C106.283 214.026 105.605 214.704 105.605 215.54C105.605 216.376 106.283 217.054 107.119 217.054Z" fill="white"/>
<path d="M316.467 181.169C317.303 181.169 317.981 180.491 317.981 179.655C317.981 178.819 317.303 178.142 316.467 178.142C315.631 178.142 314.953 178.819 314.953 179.655C314.953 180.491 315.631 181.169 316.467 181.169Z" fill="white"/>
<path d="M522.17 174.927C523.006 174.927 523.684 174.25 523.684 173.414C523.684 172.578 523.006 171.9 522.17 171.9C521.334 171.9 520.656 172.578 520.656 173.414C520.656 174.25 521.334 174.927 522.17 174.927Z" fill="white"/>
<path d="M611.111 47.4972C611.947 47.4972 612.625 46.8195 612.625 45.9835C612.625 45.1475 611.947 44.4697 611.111 44.4697C610.275 44.4697 609.598 45.1475 609.598 45.9835C609.598 46.8195 610.275 47.4972 611.111 47.4972Z" fill="white"/>
<path d="M658.166 200.526C659.002 200.526 659.68 199.848 659.68 199.012C659.68 198.176 659.002 197.498 658.166 197.498C657.33 197.498 656.652 198.176 656.652 199.012C656.652 199.848 657.33 200.526 658.166 200.526Z" fill="white"/>
<path d="M645.221 420.942C646.057 420.942 646.735 420.264 646.735 419.428C646.735 418.592 646.057 417.915 645.221 417.915C644.385 417.915 643.707 418.592 643.707 419.428C643.707 420.264 644.385 420.942 645.221 420.942Z" fill="white"/>
<path d="M634.213 314.665C635.049 314.665 635.727 313.987 635.727 313.151C635.727 312.315 635.049 311.638 634.213 311.638C633.377 311.638 632.699 312.315 632.699 313.151C632.699 313.987 633.377 314.665 634.213 314.665Z" fill="white"/>
<path d="M517.19 28.7721C518.026 28.7721 518.703 28.0944 518.703 27.2584C518.703 26.4224 518.026 25.7446 517.19 25.7446C516.354 25.7446 515.676 26.4224 515.676 27.2584C515.676 28.0944 516.354 28.7721 517.19 28.7721Z" fill="white"/>
<path d="M409.004 159.67C409.84 159.67 410.518 158.992 410.518 158.156C410.518 157.32 409.84 156.643 409.004 156.643C408.168 156.643 407.49 157.32 407.49 158.156C407.49 158.992 408.168 159.67 409.004 159.67Z" fill="white"/>
<path d="M393.053 249.995C393.889 249.995 394.567 249.318 394.567 248.482C394.567 247.646 393.889 246.968 393.053 246.968C392.217 246.968 391.539 247.646 391.539 248.482C391.539 249.318 392.217 249.995 393.053 249.995Z" fill="white"/>
<path d="M418.885 391.12C419.721 391.12 420.399 390.442 420.399 389.606C420.399 388.77 419.721 388.092 418.885 388.092C418.049 388.092 417.371 388.77 417.371 389.606C417.371 390.442 418.049 391.12 418.885 391.12Z" fill="white"/>
<path d="M216.08 120.312C216.916 120.312 217.594 119.634 217.594 118.798C217.594 117.962 216.916 117.285 216.08 117.285C215.244 117.285 214.566 117.962 214.566 118.798C214.566 119.634 215.244 120.312 216.08 120.312Z" fill="white"/>
<path d="M249.701 23.6862C250.537 23.6862 251.215 23.0085 251.215 22.1724C251.215 21.3364 250.537 20.6587 249.701 20.6587C248.865 20.6587 248.188 21.3364 248.188 22.1724C248.188 23.0085 248.865 23.6862 249.701 23.6862Z" fill="white"/>
<path d="M40.2403 130.543C41.0763 130.543 41.7541 129.865 41.7541 129.029C41.7541 128.193 41.0763 127.516 40.2403 127.516C39.4043 127.516 38.7266 128.193 38.7266 129.029C38.7266 129.865 39.4043 130.543 40.2403 130.543Z" fill="white"/>
<path d="M102.654 14.0358C103.49 14.0358 104.168 13.3581 104.168 12.5221C104.168 11.686 103.49 11.0083 102.654 11.0083C101.818 11.0083 101.141 11.686 101.141 12.5221C101.141 13.3581 101.818 14.0358 102.654 14.0358Z" fill="white"/>
<path d="M742.072 104.027C742.072 103.191 741.395 102.513 740.559 102.513C739.723 102.513 739.045 103.191 739.045 104.027C739.045 104.863 739.723 105.541 740.559 105.541C741.395 105.541 742.072 104.863 742.072 104.027Z" fill="white"/>
<path d="M166.571 117.317C168.783 117.317 170.576 115.524 170.576 113.312C170.576 111.1 168.783 109.307 166.571 109.307C164.359 109.307 162.566 111.1 162.566 113.312C162.566 115.524 164.359 117.317 166.571 117.317Z" fill="white"/>
<path d="M510.339 314.209C512.551 314.209 514.344 312.415 514.344 310.204C514.344 307.992 512.551 306.199 510.339 306.199C508.127 306.199 506.334 307.992 506.334 310.204C506.334 312.415 508.127 314.209 510.339 314.209Z" fill="white"/>
<path d="M576.911 163.373C579.123 163.373 580.916 161.58 580.916 159.368C580.916 157.156 579.123 155.363 576.911 155.363C574.699 155.363 572.906 157.156 572.906 159.368C572.906 161.58 574.699 163.373 576.911 163.373Z" fill="white"/>
<path d="M302.81 317.848C305.021 317.848 306.814 316.055 306.814 313.843C306.814 311.631 305.021 309.838 302.81 309.838C300.598 309.838 298.805 311.631 298.805 313.843C298.805 316.055 300.598 317.848 302.81 317.848Z" fill="white"/>
<path d="M385.687 62.9932C387.898 62.9932 389.691 61.2001 389.691 58.9883C389.691 56.7764 387.898 54.9834 385.687 54.9834C383.475 54.9834 381.682 56.7764 381.682 58.9883C381.682 61.2001 383.475 62.9932 385.687 62.9932Z" fill="white"/>
<path d="M709.946 19.0098C712.158 19.0098 713.951 17.2167 713.951 15.0049C713.951 12.7931 712.158 11 709.946 11C707.734 11 705.941 12.7931 705.941 15.0049C705.941 17.2167 707.734 19.0098 709.946 19.0098Z" fill="white"/>
<path d="M42.0049 346.01C44.2167 346.01 46.0098 344.217 46.0098 342.005C46.0098 339.793 44.2167 338 42.0049 338C39.7931 338 38 339.793 38 342.005C38 344.217 39.7931 346.01 42.0049 346.01Z" fill="white"/>
<path d="M316.467 181.169C317.303 181.169 317.981 180.491 317.981 179.655C317.981 178.819 317.303 178.142 316.467 178.142C315.631 178.142 314.953 178.819 314.953 179.655C314.953 180.491 315.631 181.169 316.467 181.169Z" fill="white"/>
<path d="M522.17 174.927C523.006 174.927 523.684 174.25 523.684 173.414C523.684 172.578 523.006 171.9 522.17 171.9C521.334 171.9 520.656 172.578 520.656 173.414C520.656 174.25 521.334 174.927 522.17 174.927Z" fill="white"/>
<path d="M611.111 47.4972C611.947 47.4972 612.625 46.8195 612.625 45.9835C612.625 45.1475 611.947 44.4697 611.111 44.4697C610.275 44.4697 609.598 45.1475 609.598 45.9835C609.598 46.8195 610.275 47.4972 611.111 47.4972Z" fill="white"/>
<path d="M658.166 200.526C659.002 200.526 659.68 199.848 659.68 199.012C659.68 198.176 659.002 197.498 658.166 197.498C657.33 197.498 656.652 198.176 656.652 199.012C656.652 199.848 657.33 200.526 658.166 200.526Z" fill="white"/>
<path d="M634.213 314.665C635.049 314.665 635.727 313.987 635.727 313.151C635.727 312.315 635.049 311.638 634.213 311.638C633.377 311.638 632.699 312.315 632.699 313.151C632.699 313.987 633.377 314.665 634.213 314.665Z" fill="white"/>
<path d="M853.514 289.028C854.35 289.028 855.028 288.35 855.028 287.514C855.028 286.678 854.35 286 853.514 286C852.678 286 852 286.678 852 287.514C852 288.35 852.678 289.028 853.514 289.028Z" fill="white"/>
<path d="M517.19 28.7721C518.026 28.7721 518.703 28.0944 518.703 27.2584C518.703 26.4224 518.026 25.7446 517.19 25.7446C516.354 25.7446 515.676 26.4224 515.676 27.2584C515.676 28.0944 516.354 28.7721 517.19 28.7721Z" fill="white"/>
<path d="M409.004 159.67C409.84 159.67 410.518 158.992 410.518 158.156C410.518 157.32 409.84 156.643 409.004 156.643C408.168 156.643 407.49 157.32 407.49 158.156C407.49 158.992 408.168 159.67 409.004 159.67Z" fill="white"/>
<path d="M393.053 249.995C393.889 249.995 394.567 249.318 394.567 248.482C394.567 247.646 393.889 246.968 393.053 246.968C392.217 246.968 391.539 247.646 391.539 248.482C391.539 249.318 392.217 249.995 393.053 249.995Z" fill="white"/>
<path d="M418.885 391.12C419.721 391.12 420.399 390.442 420.399 389.606C420.399 388.77 419.721 388.092 418.885 388.092C418.049 388.092 417.371 388.77 417.371 389.606C417.371 390.442 418.049 391.12 418.885 391.12Z" fill="white"/>
<path d="M246.514 263.028C247.35 263.028 248.028 262.35 248.028 261.514C248.028 260.678 247.35 260 246.514 260C245.678 260 245 260.678 245 261.514C245 262.35 245.678 263.028 246.514 263.028Z" fill="white"/>
<path d="M172.514 341.028C173.35 341.028 174.028 340.35 174.028 339.514C174.028 338.678 173.35 338 172.514 338C171.678 338 171 338.678 171 339.514C171 340.35 171.678 341.028 172.514 341.028Z" fill="white"/>
<path d="M216.08 120.312C216.916 120.312 217.594 119.634 217.594 118.798C217.594 117.962 216.916 117.285 216.08 117.285C215.244 117.285 214.566 117.962 214.566 118.798C214.566 119.634 215.244 120.312 216.08 120.312Z" fill="white"/>
<path d="M249.701 23.6862C250.537 23.6862 251.215 23.0085 251.215 22.1724C251.215 21.3364 250.537 20.6587 249.701 20.6587C248.865 20.6587 248.188 21.3364 248.188 22.1724C248.188 23.0085 248.865 23.6862 249.701 23.6862Z" fill="white"/>
<path d="M40.2403 130.543C41.0763 130.543 41.7541 129.865 41.7541 129.029C41.7541 128.193 41.0763 127.516 40.2403 127.516C39.4043 127.516 38.7266 128.193 38.7266 129.029C38.7266 129.865 39.4043 130.543 40.2403 130.543Z" fill="white"/>
<path d="M102.654 14.0358C103.49 14.0358 104.168 13.3581 104.168 12.5221C104.168 11.686 103.49 11.0083 102.654 11.0083C101.818 11.0083 101.141 11.686 101.141 12.5221C101.141 13.3581 101.818 14.0358 102.654 14.0358Z" fill="white"/>
<path d="M880.005 119.01C882.217 119.01 884.01 117.217 884.01 115.005C884.01 112.793 882.217 111 880.005 111C877.793 111 876 112.793 876 115.005C876 117.217 877.793 119.01 880.005 119.01Z" fill="white"/>
<path d="M1324.91 161.373C1327.12 161.373 1328.92 159.58 1328.92 157.368C1328.92 155.156 1327.12 153.363 1324.91 153.363C1322.7 153.363 1320.91 155.156 1320.91 157.368C1320.91 159.58 1322.7 161.373 1324.91 161.373Z" fill="white"/>
<path d="M1050.81 315.848C1053.02 315.848 1054.81 314.055 1054.81 311.843C1054.81 309.631 1053.02 307.838 1050.81 307.838C1048.6 307.838 1046.8 309.631 1046.8 311.843C1046.8 314.055 1048.6 315.848 1050.81 315.848Z" fill="white"/>
<path d="M1133.69 60.9932C1135.9 60.9932 1137.69 59.2001 1137.69 56.9883C1137.69 54.7764 1135.9 52.9834 1133.69 52.9834C1131.47 52.9834 1129.68 54.7764 1129.68 56.9883C1129.68 59.2001 1131.47 60.9932 1133.69 60.9932Z" fill="white"/>
<path d="M1457.95 17.0098C1460.16 17.0098 1461.95 15.2167 1461.95 13.0049C1461.95 10.7931 1460.16 9 1457.95 9C1455.73 9 1453.94 10.7931 1453.94 13.0049C1453.94 15.2167 1455.73 17.0098 1457.95 17.0098Z" fill="white"/>
<path d="M752.005 297.123C754.217 297.123 756.01 295.33 756.01 293.118C756.01 290.906 754.217 289.113 752.005 289.113C749.793 289.113 748 290.906 748 293.118C748 295.33 749.793 297.123 752.005 297.123Z" fill="white"/>
<path d="M855.119 215.054C855.955 215.054 856.633 214.376 856.633 213.54C856.633 212.704 855.955 212.026 855.119 212.026C854.283 212.026 853.605 212.704 853.605 213.54C853.605 214.376 854.283 215.054 855.119 215.054Z" fill="white"/>
<path d="M1064.47 179.169C1065.3 179.169 1065.98 178.491 1065.98 177.655C1065.98 176.819 1065.3 176.142 1064.47 176.142C1063.63 176.142 1062.95 176.819 1062.95 177.655C1062.95 178.491 1063.63 179.169 1064.47 179.169Z" fill="white"/>
<path d="M1188.51 153.028C1189.35 153.028 1190.03 152.35 1190.03 151.514C1190.03 150.678 1189.35 150 1188.51 150C1187.68 150 1187 150.678 1187 151.514C1187 152.35 1187.68 153.028 1188.51 153.028Z" fill="white"/>
<path d="M1273.03 59.5387C1273.87 59.5387 1274.55 58.861 1274.55 58.025C1274.55 57.189 1273.87 56.5112 1273.03 56.5112C1272.2 56.5112 1271.52 57.189 1271.52 58.025C1271.52 58.861 1272.2 59.5387 1273.03 59.5387Z" fill="white"/>
<path d="M1420.23 258.484C1421.06 258.484 1421.74 257.806 1421.74 256.97C1421.74 256.134 1421.06 255.457 1420.23 255.457C1419.39 255.457 1418.71 256.134 1418.71 256.97C1418.71 257.806 1419.39 258.484 1420.23 258.484Z" fill="white"/>
<path d="M1421.4 365.889C1422.23 365.889 1422.91 365.212 1422.91 364.376C1422.91 363.54 1422.23 362.862 1421.4 362.862C1420.56 362.862 1419.88 363.54 1419.88 364.376C1419.88 365.212 1420.56 365.889 1421.4 365.889Z" fill="white"/>
<path d="M1267.62 335.375C1268.45 335.375 1269.13 334.697 1269.13 333.861C1269.13 333.025 1268.45 332.348 1267.62 332.348C1266.78 332.348 1266.1 333.025 1266.1 333.861C1266.1 334.697 1266.78 335.375 1267.62 335.375Z" fill="white"/>
<path d="M1185.51 253.028C1186.35 253.028 1187.03 252.35 1187.03 251.514C1187.03 250.678 1186.35 250 1185.51 250C1184.68 250 1184 250.678 1184 251.514C1184 252.35 1184.68 253.028 1185.51 253.028Z" fill="white"/>
<path d="M1166.88 389.12C1167.72 389.12 1168.4 388.442 1168.4 387.606C1168.4 386.77 1167.72 386.092 1166.88 386.092C1166.05 386.092 1165.37 386.77 1165.37 387.606C1165.37 388.442 1166.05 389.12 1166.88 389.12Z" fill="white"/>
<path d="M1799.59 288.464C1801.81 288.464 1803.6 286.671 1803.6 284.459C1803.6 282.247 1801.81 280.454 1799.59 280.454C1797.38 280.454 1795.59 282.247 1795.59 284.459C1795.59 286.671 1797.38 288.464 1799.59 288.464Z" fill="white"/>
<path d="M1592.07 292.104C1594.28 292.104 1596.07 290.311 1596.07 288.099C1596.07 285.887 1594.28 284.094 1592.07 284.094C1589.86 284.094 1588.06 285.887 1588.06 288.099C1588.06 290.311 1589.86 292.104 1592.07 292.104Z" fill="white"/>
<path d="M1674.94 37.2486C1677.15 37.2486 1678.95 35.4555 1678.95 33.2437C1678.95 31.0318 1677.15 29.2388 1674.94 29.2388C1672.73 29.2388 1670.94 31.0318 1670.94 33.2437C1670.94 35.4555 1672.73 37.2486 1674.94 37.2486Z" fill="white"/>
<path d="M1806.45 3.02751C1807.28 3.02751 1807.96 2.34978 1807.96 1.51376C1807.96 0.677731 1807.28 0 1806.45 0C1805.61 0 1804.93 0.677731 1804.93 1.51376C1804.93 2.34978 1805.61 3.02751 1806.45 3.02751Z" fill="white"/>
<path d="M1698.26 133.925C1699.1 133.925 1699.77 133.248 1699.77 132.412C1699.77 131.576 1699.1 130.898 1698.26 130.898C1697.42 130.898 1696.75 131.576 1696.75 132.412C1696.75 133.248 1697.42 133.925 1698.26 133.925Z" fill="white"/>
<path d="M1682.31 224.251C1683.14 224.251 1683.82 223.573 1683.82 222.737C1683.82 221.901 1683.14 221.223 1682.31 221.223C1681.47 221.223 1680.79 221.901 1680.79 222.737C1680.79 223.573 1681.47 224.251 1682.31 224.251Z" fill="white"/>
<path d="M1827.77 230.318C1828.6 230.318 1829.28 229.64 1829.28 228.804C1829.28 227.968 1828.6 227.29 1827.77 227.29C1826.93 227.29 1826.25 227.968 1826.25 228.804C1826.25 229.64 1826.93 230.318 1827.77 230.318Z" fill="white"/>
<path d="M1708.14 365.375C1708.98 365.375 1709.66 364.697 1709.66 363.861C1709.66 363.025 1708.98 362.348 1708.14 362.348C1707.31 362.348 1706.63 363.025 1706.63 363.861C1706.63 364.697 1707.31 365.375 1708.14 365.375Z" fill="white"/>
<path d="M980.336 324.974C981.172 324.974 981.85 324.297 981.85 323.461C981.85 322.625 981.172 321.947 980.336 321.947C979.5 321.947 978.822 322.625 978.822 323.461C978.822 324.297 979.5 324.974 980.336 324.974Z" fill="white"/>
<path d="M819.447 390.681C820.283 390.681 820.961 390.004 820.961 389.168C820.961 388.332 820.283 387.654 819.447 387.654C818.611 387.654 817.934 388.332 817.934 389.168C817.934 390.004 818.611 390.681 819.447 390.681Z" fill="white"/>
<path d="M964.08 118.312C964.916 118.312 965.594 117.634 965.594 116.798C965.594 115.962 964.916 115.285 964.08 115.285C963.244 115.285 962.566 115.962 962.566 116.798C962.566 117.634 963.244 118.312 964.08 118.312Z" fill="white"/>
<path d="M997.701 21.6862C998.537 21.6862 999.215 21.0085 999.215 20.1724C999.215 19.3364 998.537 18.6587 997.701 18.6587C996.865 18.6587 996.188 19.3364 996.188 20.1724C996.188 21.0085 996.865 21.6862 997.701 21.6862Z" fill="white"/>
<path d="M850.654 12.0358C851.49 12.0358 852.168 11.3581 852.168 10.5221C852.168 9.68603 851.49 9.0083 850.654 9.0083C849.818 9.0083 849.141 9.68603 849.141 10.5221C849.141 11.3581 849.818 12.0358 850.654 12.0358Z" fill="white"/>
<path d="M1565.25 148.495C1565.25 146.283 1563.46 144.49 1561.25 144.49C1559.04 144.49 1557.24 146.283 1557.24 148.495C1557.24 150.706 1559.04 152.5 1561.25 152.5C1563.46 152.5 1565.25 150.706 1565.25 148.495Z" fill="white"/>
<path d="M1529.36 307.464C1529.36 306.628 1528.68 305.95 1527.84 305.95C1527.01 305.95 1526.33 306.628 1526.33 307.464C1526.33 308.3 1527.01 308.978 1527.84 308.978C1528.68 308.978 1529.36 308.3 1529.36 307.464Z" fill="white"/>
<path d="M1584.55 62.5717C1584.55 61.7357 1583.87 61.0579 1583.03 61.0579C1582.2 61.0579 1581.52 61.7357 1581.52 62.5717C1581.52 63.4077 1582.2 64.0854 1583.03 64.0854C1583.87 64.0854 1584.55 63.4077 1584.55 62.5717Z" fill="white"/>
<path d="M1490.07 102.027C1490.07 101.191 1489.39 100.513 1488.56 100.513C1487.72 100.513 1487.04 101.191 1487.04 102.027C1487.04 102.863 1487.72 103.541 1488.56 103.541C1489.39 103.541 1490.07 102.863 1490.07 102.027Z" fill="white"/>
<path d="M1875.45 383.673C1876.28 383.673 1876.96 382.995 1876.96 382.159C1876.96 381.323 1876.28 380.646 1875.45 380.646C1874.61 380.646 1873.93 381.323 1873.93 382.159C1873.93 382.995 1874.61 383.673 1875.45 383.673Z" fill="white"/>
<path d="M1844.24 121.535C1845.08 121.535 1845.75 120.857 1845.75 120.021C1845.75 119.185 1845.08 118.507 1844.24 118.507C1843.4 118.507 1842.73 119.185 1842.73 120.021C1842.73 120.857 1843.4 121.535 1844.24 121.535Z" fill="white"/>
<path d="M1875.45 383.673C1876.28 383.673 1876.96 382.995 1876.96 382.159C1876.96 381.323 1876.28 380.646 1875.45 380.646C1874.61 380.646 1873.93 381.323 1873.93 382.159C1873.93 382.995 1874.61 383.673 1875.45 383.673Z" fill="white"/>
<path d="M1844.24 121.535C1845.08 121.535 1845.75 120.857 1845.75 120.021C1845.75 119.185 1845.08 118.507 1844.24 118.507C1843.4 118.507 1842.73 119.185 1842.73 120.021C1842.73 120.857 1843.4 121.535 1844.24 121.535Z" fill="white"/>
<path d="M166.571 541.317C168.783 541.317 170.576 539.524 170.576 537.312C170.576 535.1 168.783 533.307 166.571 533.307C164.359 533.307 162.566 535.1 162.566 537.312C162.566 539.524 164.359 541.317 166.571 541.317Z" fill="white"/>
<path d="M510.339 738.209C512.551 738.209 514.344 736.415 514.344 734.204C514.344 731.992 512.551 730.199 510.339 730.199C508.127 730.199 506.334 731.992 506.334 734.204C506.334 736.415 508.127 738.209 510.339 738.209Z" fill="white"/>
<path d="M576.911 587.373C579.123 587.373 580.916 585.58 580.916 583.368C580.916 581.156 579.123 579.363 576.911 579.363C574.699 579.363 572.906 581.156 572.906 583.368C572.906 585.58 574.699 587.373 576.911 587.373Z" fill="white"/>
<path d="M302.81 741.848C305.021 741.848 306.814 740.055 306.814 737.843C306.814 735.631 305.021 733.838 302.81 733.838C300.598 733.838 298.805 735.631 298.805 737.843C298.805 740.055 300.598 741.848 302.81 741.848Z" fill="white"/>
<path d="M385.687 486.993C387.898 486.993 389.691 485.2 389.691 482.988C389.691 480.776 387.898 478.983 385.687 478.983C383.475 478.983 381.682 480.776 381.682 482.988C381.682 485.2 383.475 486.993 385.687 486.993Z" fill="white"/>
<path d="M709.946 443.01C712.158 443.01 713.951 441.217 713.951 439.005C713.951 436.793 712.158 435 709.946 435C707.734 435 705.941 436.793 705.941 439.005C705.941 441.217 707.734 443.01 709.946 443.01Z" fill="white"/>
<path d="M4.0049 723.123C6.21675 723.123 8.0098 721.33 8.0098 719.118C8.0098 716.906 6.21675 715.113 4.0049 715.113C1.79306 715.113 0 716.906 0 719.118C0 721.33 1.79306 723.123 4.0049 723.123Z" fill="white"/>
<path d="M107.119 641.054C107.955 641.054 108.633 640.376 108.633 639.54C108.633 638.704 107.955 638.026 107.119 638.026C106.283 638.026 105.605 638.704 105.605 639.54C105.605 640.376 106.283 641.054 107.119 641.054Z" fill="white"/>
<path d="M316.467 605.169C317.303 605.169 317.981 604.491 317.981 603.655C317.981 602.819 317.303 602.142 316.467 602.142C315.631 602.142 314.953 602.819 314.953 603.655C314.953 604.491 315.631 605.169 316.467 605.169Z" fill="white"/>
<path d="M658.166 624.526C659.002 624.526 659.68 623.848 659.68 623.012C659.68 622.176 659.002 621.498 658.166 621.498C657.33 621.498 656.652 622.176 656.652 623.012C656.652 623.848 657.33 624.526 658.166 624.526Z" fill="white"/>
<path d="M645.221 844.942C646.057 844.942 646.735 844.264 646.735 843.428C646.735 842.592 646.057 841.915 645.221 841.915C644.385 841.915 643.707 842.592 643.707 843.428C643.707 844.264 644.385 844.942 645.221 844.942Z" fill="white"/>
<path d="M634.213 738.665C635.049 738.665 635.727 737.987 635.727 737.151C635.727 736.315 635.049 735.638 634.213 735.638C633.377 735.638 632.699 736.315 632.699 737.151C632.699 737.987 633.377 738.665 634.213 738.665Z" fill="white"/>
<path d="M517.19 452.772C518.026 452.772 518.703 452.094 518.703 451.258C518.703 450.422 518.026 449.745 517.19 449.745C516.354 449.745 515.676 450.422 515.676 451.258C515.676 452.094 516.354 452.772 517.19 452.772Z" fill="white"/>
<path d="M393.053 673.995C393.889 673.995 394.567 673.318 394.567 672.482C394.567 671.646 393.889 670.968 393.053 670.968C392.217 670.968 391.539 671.646 391.539 672.482C391.539 673.318 392.217 673.995 393.053 673.995Z" fill="white"/>
<path d="M418.885 815.12C419.721 815.12 420.399 814.442 420.399 813.606C420.399 812.77 419.721 812.092 418.885 812.092C418.049 812.092 417.371 812.77 417.371 813.606C417.371 814.442 418.049 815.12 418.885 815.12Z" fill="white"/>
<path d="M236.494 833.671C237.33 833.671 238.008 832.993 238.008 832.157C238.008 831.321 237.33 830.643 236.494 830.643C235.658 830.643 234.98 831.321 234.98 832.157C234.98 832.993 235.658 833.671 236.494 833.671Z" fill="white"/>
<path d="M232.336 750.974C233.172 750.974 233.85 750.297 233.85 749.461C233.85 748.625 233.172 747.947 232.336 747.947C231.5 747.947 230.822 748.625 230.822 749.461C230.822 750.297 231.5 750.974 232.336 750.974Z" fill="white"/>
<path d="M71.4474 816.681C72.2834 816.681 72.9611 816.004 72.9611 815.168C72.9611 814.332 72.2834 813.654 71.4474 813.654C70.6113 813.654 69.9336 814.332 69.9336 815.168C69.9336 816.004 70.6113 816.681 71.4474 816.681Z" fill="white"/>
<path d="M249.701 447.686C250.537 447.686 251.215 447.008 251.215 446.172C251.215 445.336 250.537 444.659 249.701 444.659C248.865 444.659 248.188 445.336 248.188 446.172C248.188 447.008 248.865 447.686 249.701 447.686Z" fill="white"/>
<path d="M40.2403 554.543C41.0763 554.543 41.7541 553.865 41.7541 553.029C41.7541 552.193 41.0763 551.516 40.2403 551.516C39.4043 551.516 38.7266 552.193 38.7266 553.029C38.7266 553.865 39.4043 554.543 40.2403 554.543Z" fill="white"/>
<path d="M102.654 438.036C103.49 438.036 104.168 437.358 104.168 436.522C104.168 435.686 103.49 435.008 102.654 435.008C101.818 435.008 101.141 435.686 101.141 436.522C101.141 437.358 101.818 438.036 102.654 438.036Z" fill="white"/>
<path d="M836.547 488.572C836.547 487.736 835.869 487.058 835.033 487.058C834.197 487.058 833.52 487.736 833.52 488.572C833.52 489.408 834.197 490.085 835.033 490.085C835.869 490.085 836.547 489.408 836.547 488.572Z" fill="white"/>
<path d="M742.072 528.027C742.072 527.191 741.395 526.513 740.559 526.513C739.723 526.513 739.045 527.191 739.045 528.027C739.045 528.863 739.723 529.541 740.559 529.541C741.395 529.541 742.072 528.863 742.072 528.027Z" fill="white"/>
<path d="M166.571 541.317C168.783 541.317 170.576 539.524 170.576 537.312C170.576 535.1 168.783 533.307 166.571 533.307C164.359 533.307 162.566 535.1 162.566 537.312C162.566 539.524 164.359 541.317 166.571 541.317Z" fill="white"/>
<path d="M510.339 738.209C512.551 738.209 514.344 736.415 514.344 734.204C514.344 731.992 512.551 730.199 510.339 730.199C508.127 730.199 506.334 731.992 506.334 734.204C506.334 736.415 508.127 738.209 510.339 738.209Z" fill="white"/>
<path d="M576.911 587.373C579.123 587.373 580.916 585.58 580.916 583.368C580.916 581.156 579.123 579.363 576.911 579.363C574.699 579.363 572.906 581.156 572.906 583.368C572.906 585.58 574.699 587.373 576.911 587.373Z" fill="white"/>
<path d="M302.81 741.848C305.021 741.848 306.814 740.055 306.814 737.843C306.814 735.631 305.021 733.838 302.81 733.838C300.598 733.838 298.805 735.631 298.805 737.843C298.805 740.055 300.598 741.848 302.81 741.848Z" fill="white"/>
<path d="M385.687 486.993C387.898 486.993 389.691 485.2 389.691 482.988C389.691 480.776 387.898 478.983 385.687 478.983C383.475 478.983 381.682 480.776 381.682 482.988C381.682 485.2 383.475 486.993 385.687 486.993Z" fill="white"/>
<path d="M709.946 443.01C712.158 443.01 713.951 441.217 713.951 439.005C713.951 436.793 712.158 435 709.946 435C707.734 435 705.941 436.793 705.941 439.005C705.941 441.217 707.734 443.01 709.946 443.01Z" fill="white"/>
<path d="M4.0049 723.123C6.21675 723.123 8.0098 721.33 8.0098 719.118C8.0098 716.906 6.21675 715.113 4.0049 715.113C1.79306 715.113 0 716.906 0 719.118C0 721.33 1.79306 723.123 4.0049 723.123Z" fill="white"/>
<path d="M107.119 641.054C107.955 641.054 108.633 640.376 108.633 639.54C108.633 638.704 107.955 638.026 107.119 638.026C106.283 638.026 105.605 638.704 105.605 639.54C105.605 640.376 106.283 641.054 107.119 641.054Z" fill="white"/>
<path d="M316.467 605.169C317.303 605.169 317.981 604.491 317.981 603.655C317.981 602.819 317.303 602.142 316.467 602.142C315.631 602.142 314.953 602.819 314.953 603.655C314.953 604.491 315.631 605.169 316.467 605.169Z" fill="white"/>
<path d="M658.166 624.526C659.002 624.526 659.68 623.848 659.68 623.012C659.68 622.176 659.002 621.498 658.166 621.498C657.33 621.498 656.652 622.176 656.652 623.012C656.652 623.848 657.33 624.526 658.166 624.526Z" fill="white"/>
<path d="M645.221 844.942C646.057 844.942 646.735 844.264 646.735 843.428C646.735 842.592 646.057 841.915 645.221 841.915C644.385 841.915 643.707 842.592 643.707 843.428C643.707 844.264 644.385 844.942 645.221 844.942Z" fill="white"/>
<path d="M557.514 810.028C558.35 810.028 559.028 809.35 559.028 808.514C559.028 807.678 558.35 807 557.514 807C556.678 807 556 807.678 556 808.514C556 809.35 556.678 810.028 557.514 810.028Z" fill="white"/>
<path d="M517.19 452.772C518.026 452.772 518.703 452.094 518.703 451.258C518.703 450.422 518.026 449.745 517.19 449.745C516.354 449.745 515.676 450.422 515.676 451.258C515.676 452.094 516.354 452.772 517.19 452.772Z" fill="white"/>
<path d="M393.053 673.995C393.889 673.995 394.567 673.318 394.567 672.482C394.567 671.646 393.889 670.968 393.053 670.968C392.217 670.968 391.539 671.646 391.539 672.482C391.539 673.318 392.217 673.995 393.053 673.995Z" fill="white"/>
<path d="M484.514 588.028C485.35 588.028 486.028 587.35 486.028 586.514C486.028 585.678 485.35 585 484.514 585C483.678 585 483 585.678 483 586.514C483 587.35 483.678 588.028 484.514 588.028Z" fill="white"/>
<path d="M418.885 815.12C419.721 815.12 420.399 814.442 420.399 813.606C420.399 812.77 419.721 812.092 418.885 812.092C418.049 812.092 417.371 812.77 417.371 813.606C417.371 814.442 418.049 815.12 418.885 815.12Z" fill="white"/>
<path d="M236.494 833.671C237.33 833.671 238.008 832.993 238.008 832.157C238.008 831.321 237.33 830.643 236.494 830.643C235.658 830.643 234.98 831.321 234.98 832.157C234.98 832.993 235.658 833.671 236.494 833.671Z" fill="white"/>
<path d="M232.336 750.974C233.172 750.974 233.85 750.297 233.85 749.461C233.85 748.625 233.172 747.947 232.336 747.947C231.5 747.947 230.822 748.625 230.822 749.461C230.822 750.297 231.5 750.974 232.336 750.974Z" fill="white"/>
<path d="M71.4474 816.681C72.2834 816.681 72.9611 816.004 72.9611 815.168C72.9611 814.332 72.2834 813.654 71.4474 813.654C70.6113 813.654 69.9336 814.332 69.9336 815.168C69.9336 816.004 70.6113 816.681 71.4474 816.681Z" fill="white"/>
<path d="M249.701 447.686C250.537 447.686 251.215 447.008 251.215 446.172C251.215 445.336 250.537 444.659 249.701 444.659C248.865 444.659 248.188 445.336 248.188 446.172C248.188 447.008 248.865 447.686 249.701 447.686Z" fill="white"/>
<path d="M40.2403 554.543C41.0763 554.543 41.7541 553.865 41.7541 553.029C41.7541 552.193 41.0763 551.516 40.2403 551.516C39.4043 551.516 38.7266 552.193 38.7266 553.029C38.7266 553.865 39.4043 554.543 40.2403 554.543Z" fill="white"/>
<path d="M102.654 438.036C103.49 438.036 104.168 437.358 104.168 436.522C104.168 435.686 103.49 435.008 102.654 435.008C101.818 435.008 101.141 435.686 101.141 436.522C101.141 437.358 101.818 438.036 102.654 438.036Z" fill="white"/>
<path d="M836.547 488.572C836.547 487.736 835.869 487.058 835.033 487.058C834.197 487.058 833.52 487.736 833.52 488.572C833.52 489.408 834.197 490.085 835.033 490.085C835.869 490.085 836.547 489.408 836.547 488.572Z" fill="white"/>
<path d="M742.072 528.027C742.072 527.191 741.395 526.513 740.559 526.513C739.723 526.513 739.045 527.191 739.045 528.027C739.045 528.863 739.723 529.541 740.559 529.541C741.395 529.541 742.072 528.863 742.072 528.027Z" fill="white"/>
<path d="M914.571 539.317C916.783 539.317 918.576 537.524 918.576 535.312C918.576 533.1 916.783 531.307 914.571 531.307C912.359 531.307 910.566 533.1 910.566 535.312C910.566 537.524 912.359 539.317 914.571 539.317Z" fill="white"/>
<path d="M1324.91 585.373C1327.12 585.373 1328.92 583.58 1328.92 581.368C1328.92 579.156 1327.12 577.363 1324.91 577.363C1322.7 577.363 1320.91 579.156 1320.91 581.368C1320.91 583.58 1322.7 585.373 1324.91 585.373Z" fill="white"/>
<path d="M1050.81 739.848C1053.02 739.848 1054.81 738.055 1054.81 735.843C1054.81 733.631 1053.02 731.838 1050.81 731.838C1048.6 731.838 1046.8 733.631 1046.8 735.843C1046.8 738.055 1048.6 739.848 1050.81 739.848Z" fill="white"/>
<path d="M1133.69 484.993C1135.9 484.993 1137.69 483.2 1137.69 480.988C1137.69 478.776 1135.9 476.983 1133.69 476.983C1131.47 476.983 1129.68 478.776 1129.68 480.988C1129.68 483.2 1131.47 484.993 1133.69 484.993Z" fill="white"/>
<path d="M1457.95 441.01C1460.16 441.01 1461.95 439.217 1461.95 437.005C1461.95 434.793 1460.16 433 1457.95 433C1455.73 433 1453.94 434.793 1453.94 437.005C1453.94 439.217 1455.73 441.01 1457.95 441.01Z" fill="white"/>
<path d="M752.005 721.123C754.217 721.123 756.01 719.33 756.01 717.118C756.01 714.906 754.217 713.113 752.005 713.113C749.793 713.113 748 714.906 748 717.118C748 719.33 749.793 721.123 752.005 721.123Z" fill="white"/>
<path d="M1019.51 598.028C1020.35 598.028 1021.03 597.35 1021.03 596.514C1021.03 595.678 1020.35 595 1019.51 595C1018.68 595 1018 595.678 1018 596.514C1018 597.35 1018.68 598.028 1019.51 598.028Z" fill="white"/>
<path d="M855.119 639.054C855.955 639.054 856.633 638.376 856.633 637.54C856.633 636.704 855.955 636.026 855.119 636.026C854.283 636.026 853.605 636.704 853.605 637.54C853.605 638.376 854.283 639.054 855.119 639.054Z" fill="white"/>
<path d="M1208.51 571.028C1209.35 571.028 1210.03 570.35 1210.03 569.514C1210.03 568.678 1209.35 568 1208.51 568C1207.68 568 1207 568.678 1207 569.514C1207 570.35 1207.68 571.028 1208.51 571.028Z" fill="white"/>
<path d="M1485.51 741.028C1486.35 741.028 1487.03 740.35 1487.03 739.514C1487.03 738.678 1486.35 738 1485.51 738C1484.68 738 1484 738.678 1484 739.514C1484 740.35 1484.68 741.028 1485.51 741.028Z" fill="white"/>
<path d="M1406.17 622.526C1407 622.526 1407.68 621.848 1407.68 621.012C1407.68 620.176 1407 619.498 1406.17 619.498C1405.33 619.498 1404.65 620.176 1404.65 621.012C1404.65 621.848 1405.33 622.526 1406.17 622.526Z" fill="white"/>
<path d="M1393.22 842.942C1394.06 842.942 1394.73 842.264 1394.73 841.428C1394.73 840.592 1394.06 839.915 1393.22 839.915C1392.38 839.915 1391.71 840.592 1391.71 841.428C1391.71 842.264 1392.38 842.942 1393.22 842.942Z" fill="white"/>
<path d="M1267.62 759.375C1268.45 759.375 1269.13 758.697 1269.13 757.861C1269.13 757.025 1268.45 756.348 1267.62 756.348C1266.78 756.348 1266.1 757.025 1266.1 757.861C1266.1 758.697 1266.78 759.375 1267.62 759.375Z" fill="white"/>
<path d="M1307.51 435.028C1308.35 435.028 1309.03 434.35 1309.03 433.514C1309.03 432.678 1308.35 432 1307.51 432C1306.68 432 1306 432.678 1306 433.514C1306 434.35 1306.68 435.028 1307.51 435.028Z" fill="white"/>
<path d="M1141.05 671.995C1141.89 671.995 1142.57 671.318 1142.57 670.482C1142.57 669.646 1141.89 668.968 1141.05 668.968C1140.22 668.968 1139.54 669.646 1139.54 670.482C1139.54 671.318 1140.22 671.995 1141.05 671.995Z" fill="white"/>
<path d="M1166.88 813.12C1167.72 813.12 1168.4 812.442 1168.4 811.606C1168.4 810.77 1167.72 810.092 1166.88 810.092C1166.05 810.092 1165.37 810.77 1165.37 811.606C1165.37 812.442 1166.05 813.12 1166.88 813.12Z" fill="white"/>
<path d="M1799.59 712.464C1801.81 712.464 1803.6 710.671 1803.6 708.459C1803.6 706.247 1801.81 704.454 1799.59 704.454C1797.38 704.454 1795.59 706.247 1795.59 708.459C1795.59 710.671 1797.38 712.464 1799.59 712.464Z" fill="white"/>
<path d="M1592.07 716.104C1594.28 716.104 1596.07 714.311 1596.07 712.099C1596.07 709.887 1594.28 708.094 1592.07 708.094C1589.86 708.094 1588.06 709.887 1588.06 712.099C1588.06 714.311 1589.86 716.104 1592.07 716.104Z" fill="white"/>
<path d="M1674.94 461.249C1677.15 461.249 1678.95 459.456 1678.95 457.244C1678.95 455.032 1677.15 453.239 1674.94 453.239C1672.73 453.239 1670.94 455.032 1670.94 457.244C1670.94 459.456 1672.73 461.249 1674.94 461.249Z" fill="white"/>
<path d="M1814.29 459.794C1815.12 459.794 1815.8 459.116 1815.8 458.28C1815.8 457.444 1815.12 456.767 1814.29 456.767C1813.45 456.767 1812.77 457.444 1812.77 458.28C1812.77 459.116 1813.45 459.794 1814.29 459.794Z" fill="white"/>
<path d="M1698.26 557.925C1699.1 557.925 1699.77 557.248 1699.77 556.412C1699.77 555.576 1699.1 554.898 1698.26 554.898C1697.42 554.898 1696.75 555.576 1696.75 556.412C1696.75 557.248 1697.42 557.925 1698.26 557.925Z" fill="white"/>
<path d="M1680.51 702.028C1681.35 702.028 1682.03 701.35 1682.03 700.514C1682.03 699.678 1681.35 699 1680.51 699C1679.68 699 1679 699.678 1679 700.514C1679 701.35 1679.68 702.028 1680.51 702.028Z" fill="white"/>
<path d="M1805.51 608.028C1806.35 608.028 1807.03 607.35 1807.03 606.514C1807.03 605.678 1806.35 605 1805.51 605C1804.68 605 1804 605.678 1804 606.514C1804 607.35 1804.68 608.028 1805.51 608.028Z" fill="white"/>
<path d="M984.494 831.671C985.33 831.671 986.008 830.993 986.008 830.157C986.008 829.321 985.33 828.643 984.494 828.643C983.658 828.643 982.98 829.321 982.98 830.157C982.98 830.993 983.658 831.671 984.494 831.671Z" fill="white"/>
<path d="M920.514 730.028C921.35 730.028 922.028 729.35 922.028 728.514C922.028 727.678 921.35 727 920.514 727C919.678 727 919 727.678 919 728.514C919 729.35 919.678 730.028 920.514 730.028Z" fill="white"/>
<path d="M819.447 814.681C820.283 814.681 820.961 814.004 820.961 813.168C820.961 812.332 820.283 811.654 819.447 811.654C818.611 811.654 817.934 812.332 817.934 813.168C817.934 814.004 818.611 814.681 819.447 814.681Z" fill="white"/>
<path d="M997.701 445.686C998.537 445.686 999.215 445.008 999.215 444.172C999.215 443.336 998.537 442.659 997.701 442.659C996.865 442.659 996.188 443.336 996.188 444.172C996.188 445.008 996.865 445.686 997.701 445.686Z" fill="white"/>
<path d="M1565.25 572.495C1565.25 570.283 1563.46 568.49 1561.25 568.49C1559.04 568.49 1557.24 570.283 1557.24 572.495C1557.24 574.706 1559.04 576.5 1561.25 576.5C1563.46 576.5 1565.25 574.706 1565.25 572.495Z" fill="white"/>
<path d="M1605.03 813.514C1605.03 812.678 1604.35 812 1603.51 812C1602.68 812 1602 812.678 1602 813.514C1602 814.35 1602.68 815.027 1603.51 815.027C1604.35 815.027 1605.03 814.35 1605.03 813.514Z" fill="white"/>
<path d="M1584.55 486.572C1584.55 485.736 1583.87 485.058 1583.03 485.058C1582.2 485.058 1581.52 485.736 1581.52 486.572C1581.52 487.408 1582.2 488.085 1583.03 488.085C1583.87 488.085 1584.55 487.408 1584.55 486.572Z" fill="white"/>
<path d="M1490.07 526.027C1490.07 525.191 1489.39 524.513 1488.56 524.513C1487.72 524.513 1487.04 525.191 1487.04 526.027C1487.04 526.863 1487.72 527.541 1488.56 527.541C1489.39 527.541 1490.07 526.863 1490.07 526.027Z" fill="white"/>
<path d="M1875.45 807.673C1876.28 807.673 1876.96 806.995 1876.96 806.159C1876.96 805.323 1876.28 804.646 1875.45 804.646C1874.61 804.646 1873.93 805.323 1873.93 806.159C1873.93 806.995 1874.61 807.673 1875.45 807.673Z" fill="white"/>
<path d="M1875.45 807.673C1876.28 807.673 1876.96 806.995 1876.96 806.159C1876.96 805.323 1876.28 804.646 1875.45 804.646C1874.61 804.646 1873.93 805.323 1873.93 806.159C1873.93 806.995 1874.61 807.673 1875.45 807.673Z" fill="white"/>
</svg>
