<svg width="1839" height="848" viewBox="0 0 1839 848" fill="none" xmlns="http://www.w3.org/2000/svg">
<path d="M243.256 276.694C244.092 276.694 244.77 276.016 244.77 275.18C244.77 274.344 244.092 273.667 243.256 273.667C242.42 273.667 241.742 274.344 241.742 275.18C241.742 276.016 242.42 276.694 243.256 276.694Z" fill="white"/>
<path d="M69.1192 217.054C69.9553 217.054 70.633 216.376 70.633 215.54C70.633 214.704 69.9553 214.026 69.1192 214.026C68.2832 214.026 67.6055 214.704 67.6055 215.54C67.6055 216.376 68.2832 217.054 69.1192 217.054Z" fill="white"/>
<path d="M118.272 162.443C119.108 162.443 119.785 161.765 119.785 160.929C119.785 160.093 119.108 159.416 118.272 159.416C117.436 159.416 116.758 160.093 116.758 160.929C116.758 161.765 117.436 162.443 118.272 162.443Z" fill="white"/>
<path d="M278.467 181.169C279.303 181.169 279.981 180.491 279.981 179.655C279.981 178.819 279.303 178.142 278.467 178.142C277.631 178.142 276.953 178.819 276.953 179.655C276.953 180.491 277.631 181.169 278.467 181.169Z" fill="white"/>
<path d="M484.17 174.927C485.006 174.927 485.684 174.25 485.684 173.414C485.684 172.578 485.006 171.9 484.17 171.9C483.334 171.9 482.656 172.578 482.656 173.414C482.656 174.25 483.334 174.927 484.17 174.927Z" fill="white"/>
<path d="M573.111 47.4972C573.947 47.4972 574.625 46.8195 574.625 45.9835C574.625 45.1475 573.947 44.4697 573.111 44.4697C572.275 44.4697 571.598 45.1475 571.598 45.9835C571.598 46.8195 572.275 47.4972 573.111 47.4972Z" fill="white"/>
<path d="M634.229 260.484C635.065 260.484 635.742 259.806 635.742 258.97C635.742 258.134 635.065 257.457 634.229 257.457C633.393 257.457 632.715 258.134 632.715 258.97C632.715 259.806 633.393 260.484 634.229 260.484Z" fill="white"/>
<path d="M620.166 200.526C621.002 200.526 621.68 199.848 621.68 199.012C621.68 198.176 621.002 197.498 620.166 197.498C619.33 197.498 618.652 198.176 618.652 199.012C618.652 199.848 619.33 200.526 620.166 200.526Z" fill="white"/>
<path d="M607.221 420.942C608.057 420.942 608.735 420.264 608.735 419.428C608.735 418.592 608.057 417.915 607.221 417.915C606.385 417.915 605.707 418.592 605.707 419.428C605.707 420.264 606.385 420.942 607.221 420.942Z" fill="white"/>
<path d="M635.397 367.889C636.233 367.889 636.91 367.212 636.91 366.376C636.91 365.54 636.233 364.862 635.397 364.862C634.561 364.862 633.883 365.54 633.883 366.376C633.883 367.212 634.561 367.889 635.397 367.889Z" fill="white"/>
<path d="M596.213 314.665C597.049 314.665 597.727 313.987 597.727 313.151C597.727 312.315 597.049 311.638 596.213 311.638C595.377 311.638 594.699 312.315 594.699 313.151C594.699 313.987 595.377 314.665 596.213 314.665Z" fill="white"/>
<path d="M481.615 337.375C482.451 337.375 483.129 336.697 483.129 335.861C483.129 335.025 482.451 334.348 481.615 334.348C480.779 334.348 480.102 335.025 480.102 335.861C480.102 336.697 480.779 337.375 481.615 337.375Z" fill="white"/>
<path d="M687.061 340.669C687.897 340.669 688.574 339.991 688.574 339.155C688.574 338.319 687.897 337.642 687.061 337.642C686.225 337.642 685.547 338.319 685.547 339.155C685.547 339.991 686.225 340.669 687.061 340.669Z" fill="white"/>
<path d="M645.275 67.0885C646.111 67.0885 646.789 66.4108 646.789 65.5748C646.789 64.7388 646.111 64.061 645.275 64.061C644.439 64.061 643.762 64.7388 643.762 65.5748C643.762 66.4108 644.439 67.0885 645.275 67.0885Z" fill="white"/>
<path d="M479.19 28.7721C480.026 28.7721 480.703 28.0944 480.703 27.2584C480.703 26.4224 480.026 25.7446 479.19 25.7446C478.354 25.7446 477.676 26.4224 477.676 27.2584C477.676 28.0944 478.354 28.7721 479.19 28.7721Z" fill="white"/>
<path d="M369.443 48.1891C370.279 48.1891 370.957 47.5114 370.957 46.6754C370.957 45.8394 370.279 45.1616 369.443 45.1616C368.607 45.1616 367.93 45.8394 367.93 46.6754C367.93 47.5114 368.607 48.1891 369.443 48.1891Z" fill="white"/>
<path d="M371.004 159.67C371.84 159.67 372.518 158.992 372.518 158.156C372.518 157.32 371.84 156.643 371.004 156.643C370.168 156.643 369.49 157.32 369.49 158.156C369.49 158.992 370.168 159.67 371.004 159.67Z" fill="white"/>
<path d="M355.053 249.995C355.889 249.995 356.567 249.318 356.567 248.482C356.567 247.646 355.889 246.968 355.053 246.968C354.217 246.968 353.539 247.646 353.539 248.482C353.539 249.318 354.217 249.995 355.053 249.995Z" fill="white"/>
<path d="M416.945 272.36C417.781 272.36 418.459 271.682 418.459 270.846C418.459 270.01 417.781 269.332 416.945 269.332C416.109 269.332 415.432 270.01 415.432 270.846C415.432 271.682 416.109 272.36 416.945 272.36Z" fill="white"/>
<path d="M500.512 256.062C501.348 256.062 502.026 255.384 502.026 254.548C502.026 253.712 501.348 253.035 500.512 253.035C499.676 253.035 498.998 253.712 498.998 254.548C498.998 255.384 499.676 256.062 500.512 256.062Z" fill="white"/>
<path d="M380.885 391.12C381.721 391.12 382.399 390.442 382.399 389.606C382.399 388.77 381.721 388.092 380.885 388.092C380.049 388.092 379.371 388.77 379.371 389.606C379.371 390.442 380.049 391.12 380.885 391.12Z" fill="white"/>
<path d="M194.336 326.974C195.172 326.974 195.85 326.297 195.85 325.461C195.85 324.625 195.172 323.947 194.336 323.947C193.5 323.947 192.822 324.625 192.822 325.461C192.822 326.297 193.5 326.974 194.336 326.974Z" fill="white"/>
<path d="M72.627 343.443C73.4631 343.443 74.1408 342.765 74.1408 341.929C74.1408 341.093 73.4631 340.416 72.627 340.416C71.791 340.416 71.1133 341.093 71.1133 341.929C71.1133 342.765 71.791 343.443 72.627 343.443Z" fill="white"/>
<path d="M33.4474 392.681C34.2834 392.681 34.9611 392.004 34.9611 391.168C34.9611 390.332 34.2834 389.654 33.4474 389.654C32.6113 389.654 31.9336 390.332 31.9336 391.168C31.9336 392.004 32.6113 392.681 33.4474 392.681Z" fill="white"/>
<path d="M178.08 120.312C178.916 120.312 179.594 119.634 179.594 118.798C179.594 117.962 178.916 117.285 178.08 117.285C177.244 117.285 176.566 117.962 176.566 118.798C176.566 119.634 177.244 120.312 178.08 120.312Z" fill="white"/>
<path d="M211.701 23.6862C212.537 23.6862 213.215 23.0085 213.215 22.1724C213.215 21.3364 212.537 20.6587 211.701 20.6587C210.865 20.6587 210.188 21.3364 210.188 22.1724C210.188 23.0085 210.865 23.6862 211.701 23.6862Z" fill="white"/>
<path d="M2.24032 130.543C3.07635 130.543 3.75408 129.865 3.75408 129.029C3.75408 128.193 3.07635 127.516 2.24032 127.516C1.4043 127.516 0.726562 128.193 0.726562 129.029C0.726562 129.865 1.4043 130.543 2.24032 130.543Z" fill="white"/>
<path d="M64.6544 14.0358C65.4904 14.0358 66.1681 13.3581 66.1681 12.5221C66.1681 11.686 65.4904 11.0083 64.6544 11.0083C63.8184 11.0083 63.1406 11.686 63.1406 12.5221C63.1406 13.3581 63.8184 14.0358 64.6544 14.0358Z" fill="white"/>
<path d="M743.356 309.464C743.356 308.628 742.678 307.95 741.842 307.95C741.006 307.95 740.328 308.628 740.328 309.464C740.328 310.3 741.006 310.978 741.842 310.978C742.678 310.978 743.356 310.3 743.356 309.464Z" fill="white"/>
<path d="M748.695 191.369C748.695 190.533 748.018 189.855 747.182 189.855C746.346 189.855 745.668 190.533 745.668 191.369C745.668 192.205 746.346 192.882 747.182 192.882C748.018 192.882 748.695 192.205 748.695 191.369Z" fill="white"/>
<path d="M798.547 64.5717C798.547 63.7357 797.869 63.0579 797.033 63.0579C796.197 63.0579 795.52 63.7357 795.52 64.5717C795.52 65.4077 796.197 66.0854 797.033 66.0854C797.869 66.0854 798.547 65.4077 798.547 64.5717Z" fill="white"/>
<path d="M726.209 18.6225C726.209 17.7864 725.531 17.1087 724.695 17.1087C723.859 17.1087 723.182 17.7864 723.182 18.6225C723.182 19.4585 723.859 20.1362 724.695 20.1362C725.531 20.1362 726.209 19.4585 726.209 18.6225Z" fill="white"/>
<path d="M704.072 104.027C704.072 103.191 703.395 102.513 702.559 102.513C701.723 102.513 701.045 103.191 701.045 104.027C701.045 104.863 701.723 105.541 702.559 105.541C703.395 105.541 704.072 104.863 704.072 104.027Z" fill="white"/>
<path d="M676.971 166.048C676.971 165.212 676.293 164.534 675.457 164.534C674.621 164.534 673.943 165.212 673.943 166.048C673.943 166.884 674.621 167.562 675.457 167.562C676.293 167.562 676.971 166.884 676.971 166.048Z" fill="white"/>
<path d="M243.256 276.694C244.092 276.694 244.77 276.016 244.77 275.18C244.77 274.344 244.092 273.667 243.256 273.667C242.42 273.667 241.742 274.344 241.742 275.18C241.742 276.016 242.42 276.694 243.256 276.694Z" fill="white"/>
<path d="M69.1192 217.054C69.9553 217.054 70.633 216.376 70.633 215.54C70.633 214.704 69.9553 214.026 69.1192 214.026C68.2832 214.026 67.6055 214.704 67.6055 215.54C67.6055 216.376 68.2832 217.054 69.1192 217.054Z" fill="white"/>
<path d="M118.272 162.443C119.108 162.443 119.785 161.765 119.785 160.929C119.785 160.093 119.108 159.416 118.272 159.416C117.436 159.416 116.758 160.093 116.758 160.929C116.758 161.765 117.436 162.443 118.272 162.443Z" fill="white"/>
<path d="M278.467 181.169C279.303 181.169 279.981 180.491 279.981 179.655C279.981 178.819 279.303 178.142 278.467 178.142C277.631 178.142 276.953 178.819 276.953 179.655C276.953 180.491 277.631 181.169 278.467 181.169Z" fill="white"/>
<path d="M484.17 174.927C485.006 174.927 485.684 174.25 485.684 173.414C485.684 172.578 485.006 171.9 484.17 171.9C483.334 171.9 482.656 172.578 482.656 173.414C482.656 174.25 483.334 174.927 484.17 174.927Z" fill="white"/>
<path d="M573.111 47.4972C573.947 47.4972 574.625 46.8195 574.625 45.9835C574.625 45.1475 573.947 44.4697 573.111 44.4697C572.275 44.4697 571.598 45.1475 571.598 45.9835C571.598 46.8195 572.275 47.4972 573.111 47.4972Z" fill="white"/>
<path d="M634.229 260.484C635.065 260.484 635.742 259.806 635.742 258.97C635.742 258.134 635.065 257.457 634.229 257.457C633.393 257.457 632.715 258.134 632.715 258.97C632.715 259.806 633.393 260.484 634.229 260.484Z" fill="white"/>
<path d="M620.166 200.526C621.002 200.526 621.68 199.848 621.68 199.012C621.68 198.176 621.002 197.498 620.166 197.498C619.33 197.498 618.652 198.176 618.652 199.012C618.652 199.848 619.33 200.526 620.166 200.526Z" fill="white"/>
<path d="M607.221 420.942C608.057 420.942 608.735 420.264 608.735 419.428C608.735 418.592 608.057 417.915 607.221 417.915C606.385 417.915 605.707 418.592 605.707 419.428C605.707 420.264 606.385 420.942 607.221 420.942Z" fill="white"/>
<path d="M635.397 367.889C636.233 367.889 636.91 367.212 636.91 366.376C636.91 365.54 636.233 364.862 635.397 364.862C634.561 364.862 633.883 365.54 633.883 366.376C633.883 367.212 634.561 367.889 635.397 367.889Z" fill="white"/>
<path d="M596.213 314.665C597.049 314.665 597.727 313.987 597.727 313.151C597.727 312.315 597.049 311.638 596.213 311.638C595.377 311.638 594.699 312.315 594.699 313.151C594.699 313.987 595.377 314.665 596.213 314.665Z" fill="white"/>
<path d="M481.615 337.375C482.451 337.375 483.129 336.697 483.129 335.861C483.129 335.025 482.451 334.348 481.615 334.348C480.779 334.348 480.102 335.025 480.102 335.861C480.102 336.697 480.779 337.375 481.615 337.375Z" fill="white"/>
<path d="M687.061 340.669C687.897 340.669 688.574 339.991 688.574 339.155C688.574 338.319 687.897 337.642 687.061 337.642C686.225 337.642 685.547 338.319 685.547 339.155C685.547 339.991 686.225 340.669 687.061 340.669Z" fill="white"/>
<path d="M645.275 67.0885C646.111 67.0885 646.789 66.4108 646.789 65.5748C646.789 64.7388 646.111 64.061 645.275 64.061C644.439 64.061 643.762 64.7388 643.762 65.5748C643.762 66.4108 644.439 67.0885 645.275 67.0885Z" fill="white"/>
<path d="M479.19 28.7721C480.026 28.7721 480.703 28.0944 480.703 27.2584C480.703 26.4224 480.026 25.7446 479.19 25.7446C478.354 25.7446 477.676 26.4224 477.676 27.2584C477.676 28.0944 478.354 28.7721 479.19 28.7721Z" fill="white"/>
<path d="M369.443 48.1891C370.279 48.1891 370.957 47.5114 370.957 46.6754C370.957 45.8394 370.279 45.1616 369.443 45.1616C368.607 45.1616 367.93 45.8394 367.93 46.6754C367.93 47.5114 368.607 48.1891 369.443 48.1891Z" fill="white"/>
<path d="M371.004 159.67C371.84 159.67 372.518 158.992 372.518 158.156C372.518 157.32 371.84 156.643 371.004 156.643C370.168 156.643 369.49 157.32 369.49 158.156C369.49 158.992 370.168 159.67 371.004 159.67Z" fill="white"/>
<path d="M355.053 249.995C355.889 249.995 356.567 249.318 356.567 248.482C356.567 247.646 355.889 246.968 355.053 246.968C354.217 246.968 353.539 247.646 353.539 248.482C353.539 249.318 354.217 249.995 355.053 249.995Z" fill="white"/>
<path d="M416.945 272.36C417.781 272.36 418.459 271.682 418.459 270.846C418.459 270.01 417.781 269.332 416.945 269.332C416.109 269.332 415.432 270.01 415.432 270.846C415.432 271.682 416.109 272.36 416.945 272.36Z" fill="white"/>
<path d="M500.512 256.062C501.348 256.062 502.026 255.384 502.026 254.548C502.026 253.712 501.348 253.035 500.512 253.035C499.676 253.035 498.998 253.712 498.998 254.548C498.998 255.384 499.676 256.062 500.512 256.062Z" fill="white"/>
<path d="M380.885 391.12C381.721 391.12 382.399 390.442 382.399 389.606C382.399 388.77 381.721 388.092 380.885 388.092C380.049 388.092 379.371 388.77 379.371 389.606C379.371 390.442 380.049 391.12 380.885 391.12Z" fill="white"/>
<path d="M194.336 326.974C195.172 326.974 195.85 326.297 195.85 325.461C195.85 324.625 195.172 323.947 194.336 323.947C193.5 323.947 192.822 324.625 192.822 325.461C192.822 326.297 193.5 326.974 194.336 326.974Z" fill="white"/>
<path d="M72.627 343.443C73.4631 343.443 74.1408 342.765 74.1408 341.929C74.1408 341.093 73.4631 340.416 72.627 340.416C71.791 340.416 71.1133 341.093 71.1133 341.929C71.1133 342.765 71.791 343.443 72.627 343.443Z" fill="white"/>
<path d="M33.4474 392.681C34.2834 392.681 34.9611 392.004 34.9611 391.168C34.9611 390.332 34.2834 389.654 33.4474 389.654C32.6113 389.654 31.9336 390.332 31.9336 391.168C31.9336 392.004 32.6113 392.681 33.4474 392.681Z" fill="white"/>
<path d="M178.08 120.312C178.916 120.312 179.594 119.634 179.594 118.798C179.594 117.962 178.916 117.285 178.08 117.285C177.244 117.285 176.566 117.962 176.566 118.798C176.566 119.634 177.244 120.312 178.08 120.312Z" fill="white"/>
<path d="M211.701 23.6862C212.537 23.6862 213.215 23.0085 213.215 22.1724C213.215 21.3364 212.537 20.6587 211.701 20.6587C210.865 20.6587 210.188 21.3364 210.188 22.1724C210.188 23.0085 210.865 23.6862 211.701 23.6862Z" fill="white"/>
<path d="M2.24032 130.543C3.07635 130.543 3.75408 129.865 3.75408 129.029C3.75408 128.193 3.07635 127.516 2.24032 127.516C1.4043 127.516 0.726562 128.193 0.726562 129.029C0.726562 129.865 1.4043 130.543 2.24032 130.543Z" fill="white"/>
<path d="M64.6544 14.0358C65.4904 14.0358 66.1681 13.3581 66.1681 12.5221C66.1681 11.686 65.4904 11.0083 64.6544 11.0083C63.8184 11.0083 63.1406 11.686 63.1406 12.5221C63.1406 13.3581 63.8184 14.0358 64.6544 14.0358Z" fill="white"/>
<path d="M743.356 309.464C743.356 308.628 742.678 307.95 741.842 307.95C741.006 307.95 740.328 308.628 740.328 309.464C740.328 310.3 741.006 310.978 741.842 310.978C742.678 310.978 743.356 310.3 743.356 309.464Z" fill="white"/>
<path d="M748.695 191.369C748.695 190.533 748.018 189.855 747.182 189.855C746.346 189.855 745.668 190.533 745.668 191.369C745.668 192.205 746.346 192.882 747.182 192.882C748.018 192.882 748.695 192.205 748.695 191.369Z" fill="white"/>
<path d="M798.547 64.5717C798.547 63.7357 797.869 63.0579 797.033 63.0579C796.197 63.0579 795.52 63.7357 795.52 64.5717C795.52 65.4077 796.197 66.0854 797.033 66.0854C797.869 66.0854 798.547 65.4077 798.547 64.5717Z" fill="white"/>
<path d="M726.209 18.6225C726.209 17.7864 725.531 17.1087 724.695 17.1087C723.859 17.1087 723.182 17.7864 723.182 18.6225C723.182 19.4585 723.859 20.1362 724.695 20.1362C725.531 20.1362 726.209 19.4585 726.209 18.6225Z" fill="white"/>
<path d="M704.072 104.027C704.072 103.191 703.395 102.513 702.559 102.513C701.723 102.513 701.045 103.191 701.045 104.027C701.045 104.863 701.723 105.541 702.559 105.541C703.395 105.541 704.072 104.863 704.072 104.027Z" fill="white"/>
<path d="M676.971 166.048C676.971 165.212 676.293 164.534 675.457 164.534C674.621 164.534 673.943 165.212 673.943 166.048C673.943 166.884 674.621 167.562 675.457 167.562C676.293 167.562 676.971 166.884 676.971 166.048Z" fill="white"/>
<path d="M991.256 274.694C992.092 274.694 992.77 274.016 992.77 273.18C992.77 272.344 992.092 271.667 991.256 271.667C990.42 271.667 989.742 272.344 989.742 273.18C989.742 274.016 990.42 274.694 991.256 274.694Z" fill="white"/>
<path d="M817.119 215.054C817.955 215.054 818.633 214.376 818.633 213.54C818.633 212.704 817.955 212.026 817.119 212.026C816.283 212.026 815.605 212.704 815.605 213.54C815.605 214.376 816.283 215.054 817.119 215.054Z" fill="white"/>
<path d="M866.272 160.443C867.108 160.443 867.785 159.765 867.785 158.929C867.785 158.093 867.108 157.416 866.272 157.416C865.436 157.416 864.758 158.093 864.758 158.929C864.758 159.765 865.436 160.443 866.272 160.443Z" fill="white"/>
<path d="M1026.47 179.169C1027.3 179.169 1027.98 178.491 1027.98 177.655C1027.98 176.819 1027.3 176.142 1026.47 176.142C1025.63 176.142 1024.95 176.819 1024.95 177.655C1024.95 178.491 1025.63 179.169 1026.47 179.169Z" fill="white"/>
<path d="M1107.86 134.435C1108.7 134.435 1109.38 133.757 1109.38 132.921C1109.38 132.085 1108.7 131.408 1107.86 131.408C1107.03 131.408 1106.35 132.085 1106.35 132.921C1106.35 133.757 1107.03 134.435 1107.86 134.435Z" fill="white"/>
<path d="M1232.17 172.927C1233.01 172.927 1233.68 172.25 1233.68 171.414C1233.68 170.578 1233.01 169.9 1232.17 169.9C1231.33 169.9 1230.66 170.578 1230.66 171.414C1230.66 172.25 1231.33 172.927 1232.17 172.927Z" fill="white"/>
<path d="M1321.11 45.4972C1321.95 45.4972 1322.63 44.8195 1322.63 43.9835C1322.63 43.1475 1321.95 42.4697 1321.11 42.4697C1320.28 42.4697 1319.6 43.1475 1319.6 43.9835C1319.6 44.8195 1320.28 45.4972 1321.11 45.4972Z" fill="white"/>
<path d="M1375.99 95.4274C1376.82 95.4274 1377.5 94.7497 1377.5 93.9137C1377.5 93.0776 1376.82 92.3999 1375.99 92.3999C1375.15 92.3999 1374.47 93.0776 1374.47 93.9137C1374.47 94.7497 1375.15 95.4274 1375.99 95.4274Z" fill="white"/>
<path d="M1382.23 258.484C1383.06 258.484 1383.74 257.806 1383.74 256.97C1383.74 256.134 1383.06 255.457 1382.23 255.457C1381.39 255.457 1380.71 256.134 1380.71 256.97C1380.71 257.806 1381.39 258.484 1382.23 258.484Z" fill="white"/>
<path d="M1368.17 198.526C1369 198.526 1369.68 197.848 1369.68 197.012C1369.68 196.176 1369 195.498 1368.17 195.498C1367.33 195.498 1366.65 196.176 1366.65 197.012C1366.65 197.848 1367.33 198.526 1368.17 198.526Z" fill="white"/>
<path d="M1355.22 418.942C1356.06 418.942 1356.73 418.264 1356.73 417.428C1356.73 416.592 1356.06 415.915 1355.22 415.915C1354.38 415.915 1353.71 416.592 1353.71 417.428C1353.71 418.264 1354.38 418.942 1355.22 418.942Z" fill="white"/>
<path d="M1383.4 365.889C1384.23 365.889 1384.91 365.212 1384.91 364.376C1384.91 363.54 1384.23 362.862 1383.4 362.862C1382.56 362.862 1381.88 363.54 1381.88 364.376C1381.88 365.212 1382.56 365.889 1383.4 365.889Z" fill="white"/>
<path d="M1344.21 312.665C1345.05 312.665 1345.73 311.987 1345.73 311.151C1345.73 310.315 1345.05 309.638 1344.21 309.638C1343.38 309.638 1342.7 310.315 1342.7 311.151C1342.7 311.987 1343.38 312.665 1344.21 312.665Z" fill="white"/>
<path d="M1229.62 335.375C1230.45 335.375 1231.13 334.697 1231.13 333.861C1231.13 333.025 1230.45 332.348 1229.62 332.348C1228.78 332.348 1228.1 333.025 1228.1 333.861C1228.1 334.697 1228.78 335.375 1229.62 335.375Z" fill="white"/>
<path d="M1435.06 279.725C1435.9 279.725 1436.57 279.047 1436.57 278.211C1436.57 277.375 1435.9 276.697 1435.06 276.697C1434.22 276.697 1433.55 277.375 1433.55 278.211C1433.55 279.047 1434.22 279.725 1435.06 279.725Z" fill="white"/>
<path d="M1435.06 338.669C1435.9 338.669 1436.57 337.991 1436.57 337.155C1436.57 336.319 1435.9 335.642 1435.06 335.642C1434.22 335.642 1433.55 336.319 1433.55 337.155C1433.55 337.991 1434.22 338.669 1435.06 338.669Z" fill="white"/>
<path d="M1393.28 65.0885C1394.11 65.0885 1394.79 64.4108 1394.79 63.5748C1394.79 62.7388 1394.11 62.061 1393.28 62.061C1392.44 62.061 1391.76 62.7388 1391.76 63.5748C1391.76 64.4108 1392.44 65.0885 1393.28 65.0885Z" fill="white"/>
<path d="M1227.19 26.7721C1228.03 26.7721 1228.7 26.0944 1228.7 25.2584C1228.7 24.4224 1228.03 23.7446 1227.19 23.7446C1226.35 23.7446 1225.68 24.4224 1225.68 25.2584C1225.68 26.0944 1226.35 26.7721 1227.19 26.7721Z" fill="white"/>
<path d="M1117.44 46.1891C1118.28 46.1891 1118.96 45.5114 1118.96 44.6754C1118.96 43.8394 1118.28 43.1616 1117.44 43.1616C1116.61 43.1616 1115.93 43.8394 1115.93 44.6754C1115.93 45.5114 1116.61 46.1891 1117.44 46.1891Z" fill="white"/>
<path d="M1103.05 247.995C1103.89 247.995 1104.57 247.318 1104.57 246.482C1104.57 245.646 1103.89 244.968 1103.05 244.968C1102.22 244.968 1101.54 245.646 1101.54 246.482C1101.54 247.318 1102.22 247.995 1103.05 247.995Z" fill="white"/>
<path d="M1164.95 270.36C1165.78 270.36 1166.46 269.682 1166.46 268.846C1166.46 268.01 1165.78 267.332 1164.95 267.332C1164.11 267.332 1163.43 268.01 1163.43 268.846C1163.43 269.682 1164.11 270.36 1164.95 270.36Z" fill="white"/>
<path d="M1248.51 254.062C1249.35 254.062 1250.03 253.384 1250.03 252.548C1250.03 251.712 1249.35 251.035 1248.51 251.035C1247.68 251.035 1247 251.712 1247 252.548C1247 253.384 1247.68 254.062 1248.51 254.062Z" fill="white"/>
<path d="M1128.88 389.12C1129.72 389.12 1130.4 388.442 1130.4 387.606C1130.4 386.77 1129.72 386.092 1128.88 386.092C1128.05 386.092 1127.37 386.77 1127.37 387.606C1127.37 388.442 1128.05 389.12 1128.88 389.12Z" fill="white"/>
<path d="M1532.51 250.949C1533.35 250.949 1534.03 250.272 1534.03 249.436C1534.03 248.6 1533.35 247.922 1532.51 247.922C1531.68 247.922 1531 248.6 1531 249.436C1531 250.272 1531.68 250.949 1532.51 250.949Z" fill="white"/>
<path d="M1567.72 155.424C1568.56 155.424 1569.24 154.747 1569.24 153.911C1569.24 153.075 1568.56 152.397 1567.72 152.397C1566.89 152.397 1566.21 153.075 1566.21 153.911C1566.21 154.747 1566.89 155.424 1567.72 155.424Z" fill="white"/>
<path d="M1773.43 149.183C1774.26 149.183 1774.94 148.505 1774.94 147.669C1774.94 146.833 1774.26 146.155 1773.43 146.155C1772.59 146.155 1771.91 146.833 1771.91 147.669C1771.91 148.505 1772.59 149.183 1773.43 149.183Z" fill="white"/>
<path d="M1770.87 311.631C1771.71 311.631 1772.39 310.953 1772.39 310.117C1772.39 309.281 1771.71 308.603 1770.87 308.603C1770.04 308.603 1769.36 309.281 1769.36 310.117C1769.36 310.953 1770.04 311.631 1770.87 311.631Z" fill="white"/>
<path d="M1768.45 3.02751C1769.28 3.02751 1769.96 2.34978 1769.96 1.51376C1769.96 0.677731 1769.28 0 1768.45 0C1767.61 0 1766.93 0.677731 1766.93 1.51376C1766.93 2.34978 1767.61 3.02751 1768.45 3.02751Z" fill="white"/>
<path d="M1658.7 22.4445C1659.54 22.4445 1660.22 21.7668 1660.22 20.9307C1660.22 20.0947 1659.54 19.417 1658.7 19.417C1657.87 19.417 1657.19 20.0947 1657.19 20.9307C1657.19 21.7668 1657.87 22.4445 1658.7 22.4445Z" fill="white"/>
<path d="M1660.26 133.925C1661.1 133.925 1661.77 133.248 1661.77 132.412C1661.77 131.576 1661.1 130.898 1660.26 130.898C1659.42 130.898 1658.75 131.576 1658.75 132.412C1658.75 133.248 1659.42 133.925 1660.26 133.925Z" fill="white"/>
<path d="M1644.31 224.251C1645.14 224.251 1645.82 223.573 1645.82 222.737C1645.82 221.901 1645.14 221.223 1644.31 221.223C1643.47 221.223 1642.79 221.901 1642.79 222.737C1642.79 223.573 1643.47 224.251 1644.31 224.251Z" fill="white"/>
<path d="M1706.2 246.615C1707.04 246.615 1707.72 245.937 1707.72 245.101C1707.72 244.265 1707.04 243.587 1706.2 243.587C1705.37 243.587 1704.69 244.265 1704.69 245.101C1704.69 245.937 1705.37 246.615 1706.2 246.615Z" fill="white"/>
<path d="M1789.77 230.318C1790.6 230.318 1791.28 229.64 1791.28 228.804C1791.28 227.968 1790.6 227.29 1789.77 227.29C1788.93 227.29 1788.25 227.968 1788.25 228.804C1788.25 229.64 1788.93 230.318 1789.77 230.318Z" fill="white"/>
<path d="M1670.14 365.375C1670.98 365.375 1671.66 364.697 1671.66 363.861C1671.66 363.025 1670.98 362.348 1670.14 362.348C1669.31 362.348 1668.63 363.025 1668.63 363.861C1668.63 364.697 1669.31 365.375 1670.14 365.375Z" fill="white"/>
<path d="M946.494 407.671C947.33 407.671 948.008 406.993 948.008 406.157C948.008 405.321 947.33 404.643 946.494 404.643C945.658 404.643 944.98 405.321 944.98 406.157C944.98 406.993 945.658 407.671 946.494 407.671Z" fill="white"/>
<path d="M942.336 324.974C943.172 324.974 943.85 324.297 943.85 323.461C943.85 322.625 943.172 321.947 942.336 321.947C941.5 321.947 940.822 322.625 940.822 323.461C940.822 324.297 941.5 324.974 942.336 324.974Z" fill="white"/>
<path d="M820.627 341.443C821.463 341.443 822.141 340.765 822.141 339.929C822.141 339.093 821.463 338.416 820.627 338.416C819.791 338.416 819.113 339.093 819.113 339.929C819.113 340.765 819.791 341.443 820.627 341.443Z" fill="white"/>
<path d="M781.447 390.681C782.283 390.681 782.961 390.004 782.961 389.168C782.961 388.332 782.283 387.654 781.447 387.654C780.611 387.654 779.934 388.332 779.934 389.168C779.934 390.004 780.611 390.681 781.447 390.681Z" fill="white"/>
<path d="M926.08 118.312C926.916 118.312 927.594 117.634 927.594 116.798C927.594 115.962 926.916 115.285 926.08 115.285C925.244 115.285 924.566 115.962 924.566 116.798C924.566 117.634 925.244 118.312 926.08 118.312Z" fill="white"/>
<path d="M959.701 21.6862C960.537 21.6862 961.215 21.0085 961.215 20.1724C961.215 19.3364 960.537 18.6587 959.701 18.6587C958.865 18.6587 958.188 19.3364 958.188 20.1724C958.188 21.0085 958.865 21.6862 959.701 21.6862Z" fill="white"/>
<path d="M750.24 128.543C751.076 128.543 751.754 127.865 751.754 127.029C751.754 126.193 751.076 125.516 750.24 125.516C749.404 125.516 748.727 126.193 748.727 127.029C748.727 127.865 749.404 128.543 750.24 128.543Z" fill="white"/>
<path d="M812.654 12.0358C813.49 12.0358 814.168 11.3581 814.168 10.5221C814.168 9.68603 813.49 9.0083 812.654 9.0083C811.818 9.0083 811.141 9.68603 811.141 10.5221C811.141 11.3581 811.818 12.0358 812.654 12.0358Z" fill="white"/>
<path d="M1566.42 343.516C1566.42 342.68 1565.74 342.002 1564.91 342.002C1564.07 342.002 1563.39 342.68 1563.39 343.516C1563.39 344.352 1564.07 345.03 1564.91 345.03C1565.74 345.03 1566.42 344.352 1566.42 343.516Z" fill="white"/>
<path d="M1491.36 307.464C1491.36 306.628 1490.68 305.95 1489.84 305.95C1489.01 305.95 1488.33 306.628 1488.33 307.464C1488.33 308.3 1489.01 308.978 1489.84 308.978C1490.68 308.978 1491.36 308.3 1491.36 307.464Z" fill="white"/>
<path d="M1496.7 189.369C1496.7 188.533 1496.02 187.855 1495.18 187.855C1494.35 187.855 1493.67 188.533 1493.67 189.369C1493.67 190.205 1494.35 190.882 1495.18 190.882C1496.02 190.882 1496.7 190.205 1496.7 189.369Z" fill="white"/>
<path d="M1547.07 208.722C1547.07 207.886 1546.39 207.208 1545.55 207.208C1544.72 207.208 1544.04 207.886 1544.04 208.722C1544.04 209.558 1544.72 210.236 1545.55 210.236C1546.39 210.236 1547.07 209.558 1547.07 208.722Z" fill="white"/>
<path d="M1546.55 62.5717C1546.55 61.7357 1545.87 61.0579 1545.03 61.0579C1544.2 61.0579 1543.52 61.7357 1543.52 62.5717C1543.52 63.4077 1544.2 64.0854 1545.03 64.0854C1545.87 64.0854 1546.55 63.4077 1546.55 62.5717Z" fill="white"/>
<path d="M1474.21 16.6225C1474.21 15.7864 1473.53 15.1087 1472.7 15.1087C1471.86 15.1087 1471.18 15.7864 1471.18 16.6225C1471.18 17.4585 1471.86 18.1362 1472.7 18.1362C1473.53 18.1362 1474.21 17.4585 1474.21 16.6225Z" fill="white"/>
<path d="M1452.07 102.027C1452.07 101.191 1451.39 100.513 1450.56 100.513C1449.72 100.513 1449.04 101.191 1449.04 102.027C1449.04 102.863 1449.72 103.541 1450.56 103.541C1451.39 103.541 1452.07 102.863 1452.07 102.027Z" fill="white"/>
<path d="M1424.97 164.048C1424.97 163.212 1424.29 162.534 1423.46 162.534C1422.62 162.534 1421.94 163.212 1421.94 164.048C1421.94 164.884 1422.62 165.562 1423.46 165.562C1424.29 165.562 1424.97 164.884 1424.97 164.048Z" fill="white"/>
<path d="M1837.45 383.673C1838.28 383.673 1838.96 382.995 1838.96 382.159C1838.96 381.323 1838.28 380.646 1837.45 380.646C1836.61 380.646 1835.93 381.323 1835.93 382.159C1835.93 382.995 1836.61 383.673 1837.45 383.673Z" fill="white"/>
<path d="M1806.24 121.535C1807.08 121.535 1807.75 120.857 1807.75 120.021C1807.75 119.185 1807.08 118.507 1806.24 118.507C1805.4 118.507 1804.73 119.185 1804.73 120.021C1804.73 120.857 1805.4 121.535 1806.24 121.535Z" fill="white"/>
<path d="M1837.45 383.673C1838.28 383.673 1838.96 382.995 1838.96 382.159C1838.96 381.323 1838.28 380.646 1837.45 380.646C1836.61 380.646 1835.93 381.323 1835.93 382.159C1835.93 382.995 1836.61 383.673 1837.45 383.673Z" fill="white"/>
<path d="M1806.24 121.535C1807.08 121.535 1807.75 120.857 1807.75 120.021C1807.75 119.185 1807.08 118.507 1806.24 118.507C1805.4 118.507 1804.73 119.185 1804.73 120.021C1804.73 120.857 1805.4 121.535 1806.24 121.535Z" fill="white"/>
<path d="M243.256 700.694C244.092 700.694 244.77 700.016 244.77 699.18C244.77 698.344 244.092 697.667 243.256 697.667C242.42 697.667 241.742 698.344 241.742 699.18C241.742 700.016 242.42 700.694 243.256 700.694Z" fill="white"/>
<path d="M69.1192 641.054C69.9553 641.054 70.633 640.376 70.633 639.54C70.633 638.704 69.9553 638.026 69.1192 638.026C68.2832 638.026 67.6055 638.704 67.6055 639.54C67.6055 640.376 68.2832 641.054 69.1192 641.054Z" fill="white"/>
<path d="M118.272 586.443C119.108 586.443 119.785 585.765 119.785 584.929C119.785 584.093 119.108 583.416 118.272 583.416C117.436 583.416 116.758 584.093 116.758 584.929C116.758 585.765 117.436 586.443 118.272 586.443Z" fill="white"/>
<path d="M278.467 605.169C279.303 605.169 279.981 604.491 279.981 603.655C279.981 602.819 279.303 602.142 278.467 602.142C277.631 602.142 276.953 602.819 276.953 603.655C276.953 604.491 277.631 605.169 278.467 605.169Z" fill="white"/>
<path d="M359.863 560.435C360.699 560.435 361.377 559.757 361.377 558.921C361.377 558.085 360.699 557.408 359.863 557.408C359.027 557.408 358.35 558.085 358.35 558.921C358.35 559.757 359.027 560.435 359.863 560.435Z" fill="white"/>
<path d="M484.17 598.927C485.006 598.927 485.684 598.25 485.684 597.414C485.684 596.578 485.006 595.9 484.17 595.9C483.334 595.9 482.656 596.578 482.656 597.414C482.656 598.25 483.334 598.927 484.17 598.927Z" fill="white"/>
<path d="M487.031 485.539C487.867 485.539 488.545 484.861 488.545 484.025C488.545 483.189 487.867 482.511 487.031 482.511C486.195 482.511 485.518 483.189 485.518 484.025C485.518 484.861 486.195 485.539 487.031 485.539Z" fill="white"/>
<path d="M573.111 471.497C573.947 471.497 574.625 470.82 574.625 469.983C574.625 469.147 573.947 468.47 573.111 468.47C572.275 468.47 571.598 469.147 571.598 469.983C571.598 470.82 572.275 471.497 573.111 471.497Z" fill="white"/>
<path d="M627.986 521.427C628.822 521.427 629.5 520.75 629.5 519.914C629.5 519.078 628.822 518.4 627.986 518.4C627.15 518.4 626.473 519.078 626.473 519.914C626.473 520.75 627.15 521.427 627.986 521.427Z" fill="white"/>
<path d="M634.229 684.484C635.065 684.484 635.742 683.806 635.742 682.97C635.742 682.134 635.065 681.457 634.229 681.457C633.393 681.457 632.715 682.134 632.715 682.97C632.715 683.806 633.393 684.484 634.229 684.484Z" fill="white"/>
<path d="M620.166 624.526C621.002 624.526 621.68 623.848 621.68 623.012C621.68 622.176 621.002 621.498 620.166 621.498C619.33 621.498 618.652 622.176 618.652 623.012C618.652 623.848 619.33 624.526 620.166 624.526Z" fill="white"/>
<path d="M607.221 844.942C608.057 844.942 608.735 844.264 608.735 843.428C608.735 842.592 608.057 841.915 607.221 841.915C606.385 841.915 605.707 842.592 605.707 843.428C605.707 844.264 606.385 844.942 607.221 844.942Z" fill="white"/>
<path d="M635.397 791.889C636.233 791.889 636.91 791.212 636.91 790.376C636.91 789.54 636.233 788.862 635.397 788.862C634.561 788.862 633.883 789.54 633.883 790.376C633.883 791.212 634.561 791.889 635.397 791.889Z" fill="white"/>
<path d="M596.213 738.665C597.049 738.665 597.727 737.987 597.727 737.151C597.727 736.315 597.049 735.638 596.213 735.638C595.377 735.638 594.699 736.315 594.699 737.151C594.699 737.987 595.377 738.665 596.213 738.665Z" fill="white"/>
<path d="M481.615 761.375C482.451 761.375 483.129 760.697 483.129 759.861C483.129 759.025 482.451 758.348 481.615 758.348C480.779 758.348 480.102 759.025 480.102 759.861C480.102 760.697 480.779 761.375 481.615 761.375Z" fill="white"/>
<path d="M678.393 847.886C679.229 847.886 679.906 847.208 679.906 846.372C679.906 845.536 679.229 844.858 678.393 844.858C677.557 844.858 676.879 845.536 676.879 846.372C676.879 847.208 677.557 847.886 678.393 847.886Z" fill="white"/>
<path d="M687.061 705.725C687.897 705.725 688.574 705.047 688.574 704.211C688.574 703.375 687.897 702.697 687.061 702.697C686.225 702.697 685.547 703.375 685.547 704.211C685.547 705.047 686.225 705.725 687.061 705.725Z" fill="white"/>
<path d="M687.061 764.669C687.897 764.669 688.574 763.991 688.574 763.155C688.574 762.319 687.897 761.642 687.061 761.642C686.225 761.642 685.547 762.319 685.547 763.155C685.547 763.991 686.225 764.669 687.061 764.669Z" fill="white"/>
<path d="M369.443 472.189C370.279 472.189 370.957 471.511 370.957 470.675C370.957 469.839 370.279 469.162 369.443 469.162C368.607 469.162 367.93 469.839 367.93 470.675C367.93 471.511 368.607 472.189 369.443 472.189Z" fill="white"/>
<path d="M355.053 673.995C355.889 673.995 356.567 673.318 356.567 672.482C356.567 671.646 355.889 670.968 355.053 670.968C354.217 670.968 353.539 671.646 353.539 672.482C353.539 673.318 354.217 673.995 355.053 673.995Z" fill="white"/>
<path d="M416.945 696.36C417.781 696.36 418.459 695.682 418.459 694.846C418.459 694.01 417.781 693.332 416.945 693.332C416.109 693.332 415.432 694.01 415.432 694.846C415.432 695.682 416.109 696.36 416.945 696.36Z" fill="white"/>
<path d="M500.512 680.062C501.348 680.062 502.026 679.384 502.026 678.548C502.026 677.712 501.348 677.035 500.512 677.035C499.676 677.035 498.998 677.712 498.998 678.548C498.998 679.384 499.676 680.062 500.512 680.062Z" fill="white"/>
<path d="M380.885 815.12C381.721 815.12 382.399 814.442 382.399 813.606C382.399 812.77 381.721 812.092 380.885 812.092C380.049 812.092 379.371 812.77 379.371 813.606C379.371 814.442 380.049 815.12 380.885 815.12Z" fill="white"/>
<path d="M198.494 833.671C199.33 833.671 200.008 832.993 200.008 832.157C200.008 831.321 199.33 830.643 198.494 830.643C197.658 830.643 196.98 831.321 196.98 832.157C196.98 832.993 197.658 833.671 198.494 833.671Z" fill="white"/>
<path d="M194.336 750.974C195.172 750.974 195.85 750.297 195.85 749.461C195.85 748.625 195.172 747.947 194.336 747.947C193.5 747.947 192.822 748.625 192.822 749.461C192.822 750.297 193.5 750.974 194.336 750.974Z" fill="white"/>
<path d="M72.627 767.443C73.4631 767.443 74.1408 766.765 74.1408 765.929C74.1408 765.093 73.4631 764.416 72.627 764.416C71.791 764.416 71.1133 765.093 71.1133 765.929C71.1133 766.765 71.791 767.443 72.627 767.443Z" fill="white"/>
<path d="M33.4474 816.681C34.2834 816.681 34.9611 816.004 34.9611 815.168C34.9611 814.332 34.2834 813.654 33.4474 813.654C32.6113 813.654 31.9336 814.332 31.9336 815.168C31.9336 816.004 32.6113 816.681 33.4474 816.681Z" fill="white"/>
<path d="M178.08 544.312C178.916 544.312 179.594 543.634 179.594 542.798C179.594 541.962 178.916 541.285 178.08 541.285C177.244 541.285 176.566 541.962 176.566 542.798C176.566 543.634 177.244 544.312 178.08 544.312Z" fill="white"/>
<path d="M211.701 447.686C212.537 447.686 213.215 447.008 213.215 446.172C213.215 445.336 212.537 444.659 211.701 444.659C210.865 444.659 210.188 445.336 210.188 446.172C210.188 447.008 210.865 447.686 211.701 447.686Z" fill="white"/>
<path d="M2.24032 554.543C3.07635 554.543 3.75408 553.865 3.75408 553.029C3.75408 552.193 3.07635 551.516 2.24032 551.516C1.4043 551.516 0.726562 552.193 0.726562 553.029C0.726562 553.865 1.4043 554.543 2.24032 554.543Z" fill="white"/>
<path d="M64.6544 438.036C65.4904 438.036 66.1681 437.358 66.1681 436.522C66.1681 435.686 65.4904 435.008 64.6544 435.008C63.8184 435.008 63.1406 435.686 63.1406 436.522C63.1406 437.358 63.8184 438.036 64.6544 438.036Z" fill="white"/>
<path d="M743.356 733.464C743.356 732.628 742.678 731.95 741.842 731.95C741.006 731.95 740.328 732.628 740.328 733.464C740.328 734.3 741.006 734.978 741.842 734.978C742.678 734.978 743.356 734.3 743.356 733.464Z" fill="white"/>
<path d="M748.695 615.369C748.695 614.533 748.018 613.855 747.182 613.855C746.346 613.855 745.668 614.533 745.668 615.369C745.668 616.205 746.346 616.882 747.182 616.882C748.018 616.882 748.695 616.205 748.695 615.369Z" fill="white"/>
<path d="M798.547 488.572C798.547 487.736 797.869 487.058 797.033 487.058C796.197 487.058 795.52 487.736 795.52 488.572C795.52 489.408 796.197 490.085 797.033 490.085C797.869 490.085 798.547 489.408 798.547 488.572Z" fill="white"/>
<path d="M726.209 442.622C726.209 441.786 725.531 441.109 724.695 441.109C723.859 441.109 723.182 441.786 723.182 442.622C723.182 443.458 723.859 444.136 724.695 444.136C725.531 444.136 726.209 443.458 726.209 442.622Z" fill="white"/>
<path d="M704.072 528.027C704.072 527.191 703.395 526.513 702.559 526.513C701.723 526.513 701.045 527.191 701.045 528.027C701.045 528.863 701.723 529.541 702.559 529.541C703.395 529.541 704.072 528.863 704.072 528.027Z" fill="white"/>
<path d="M676.971 590.048C676.971 589.212 676.293 588.534 675.457 588.534C674.621 588.534 673.943 589.212 673.943 590.048C673.943 590.884 674.621 591.562 675.457 591.562C676.293 591.562 676.971 590.884 676.971 590.048Z" fill="white"/>
<path d="M243.256 700.694C244.092 700.694 244.77 700.016 244.77 699.18C244.77 698.344 244.092 697.667 243.256 697.667C242.42 697.667 241.742 698.344 241.742 699.18C241.742 700.016 242.42 700.694 243.256 700.694Z" fill="white"/>
<path d="M69.1192 641.054C69.9553 641.054 70.633 640.376 70.633 639.54C70.633 638.704 69.9553 638.026 69.1192 638.026C68.2832 638.026 67.6055 638.704 67.6055 639.54C67.6055 640.376 68.2832 641.054 69.1192 641.054Z" fill="white"/>
<path d="M118.272 586.443C119.108 586.443 119.785 585.765 119.785 584.929C119.785 584.093 119.108 583.416 118.272 583.416C117.436 583.416 116.758 584.093 116.758 584.929C116.758 585.765 117.436 586.443 118.272 586.443Z" fill="white"/>
<path d="M278.467 605.169C279.303 605.169 279.981 604.491 279.981 603.655C279.981 602.819 279.303 602.142 278.467 602.142C277.631 602.142 276.953 602.819 276.953 603.655C276.953 604.491 277.631 605.169 278.467 605.169Z" fill="white"/>
<path d="M359.863 560.435C360.699 560.435 361.377 559.757 361.377 558.921C361.377 558.085 360.699 557.408 359.863 557.408C359.027 557.408 358.35 558.085 358.35 558.921C358.35 559.757 359.027 560.435 359.863 560.435Z" fill="white"/>
<path d="M484.17 598.927C485.006 598.927 485.684 598.25 485.684 597.414C485.684 596.578 485.006 595.9 484.17 595.9C483.334 595.9 482.656 596.578 482.656 597.414C482.656 598.25 483.334 598.927 484.17 598.927Z" fill="white"/>
<path d="M487.031 485.539C487.867 485.539 488.545 484.861 488.545 484.025C488.545 483.189 487.867 482.511 487.031 482.511C486.195 482.511 485.518 483.189 485.518 484.025C485.518 484.861 486.195 485.539 487.031 485.539Z" fill="white"/>
<path d="M573.111 471.497C573.947 471.497 574.625 470.82 574.625 469.983C574.625 469.147 573.947 468.47 573.111 468.47C572.275 468.47 571.598 469.147 571.598 469.983C571.598 470.82 572.275 471.497 573.111 471.497Z" fill="white"/>
<path d="M627.986 521.427C628.822 521.427 629.5 520.75 629.5 519.914C629.5 519.078 628.822 518.4 627.986 518.4C627.15 518.4 626.473 519.078 626.473 519.914C626.473 520.75 627.15 521.427 627.986 521.427Z" fill="white"/>
<path d="M634.229 684.484C635.065 684.484 635.742 683.806 635.742 682.97C635.742 682.134 635.065 681.457 634.229 681.457C633.393 681.457 632.715 682.134 632.715 682.97C632.715 683.806 633.393 684.484 634.229 684.484Z" fill="white"/>
<path d="M620.166 624.526C621.002 624.526 621.68 623.848 621.68 623.012C621.68 622.176 621.002 621.498 620.166 621.498C619.33 621.498 618.652 622.176 618.652 623.012C618.652 623.848 619.33 624.526 620.166 624.526Z" fill="white"/>
<path d="M607.221 844.942C608.057 844.942 608.735 844.264 608.735 843.428C608.735 842.592 608.057 841.915 607.221 841.915C606.385 841.915 605.707 842.592 605.707 843.428C605.707 844.264 606.385 844.942 607.221 844.942Z" fill="white"/>
<path d="M635.397 791.889C636.233 791.889 636.91 791.212 636.91 790.376C636.91 789.54 636.233 788.862 635.397 788.862C634.561 788.862 633.883 789.54 633.883 790.376C633.883 791.212 634.561 791.889 635.397 791.889Z" fill="white"/>
<path d="M596.213 738.665C597.049 738.665 597.727 737.987 597.727 737.151C597.727 736.315 597.049 735.638 596.213 735.638C595.377 735.638 594.699 736.315 594.699 737.151C594.699 737.987 595.377 738.665 596.213 738.665Z" fill="white"/>
<path d="M481.615 761.375C482.451 761.375 483.129 760.697 483.129 759.861C483.129 759.025 482.451 758.348 481.615 758.348C480.779 758.348 480.102 759.025 480.102 759.861C480.102 760.697 480.779 761.375 481.615 761.375Z" fill="white"/>
<path d="M678.393 847.886C679.229 847.886 679.906 847.208 679.906 846.372C679.906 845.536 679.229 844.858 678.393 844.858C677.557 844.858 676.879 845.536 676.879 846.372C676.879 847.208 677.557 847.886 678.393 847.886Z" fill="white"/>
<path d="M687.061 705.725C687.897 705.725 688.574 705.047 688.574 704.211C688.574 703.375 687.897 702.697 687.061 702.697C686.225 702.697 685.547 703.375 685.547 704.211C685.547 705.047 686.225 705.725 687.061 705.725Z" fill="white"/>
<path d="M687.061 764.669C687.897 764.669 688.574 763.991 688.574 763.155C688.574 762.319 687.897 761.642 687.061 761.642C686.225 761.642 685.547 762.319 685.547 763.155C685.547 763.991 686.225 764.669 687.061 764.669Z" fill="white"/>
<path d="M369.443 472.189C370.279 472.189 370.957 471.511 370.957 470.675C370.957 469.839 370.279 469.162 369.443 469.162C368.607 469.162 367.93 469.839 367.93 470.675C367.93 471.511 368.607 472.189 369.443 472.189Z" fill="white"/>
<path d="M355.053 673.995C355.889 673.995 356.567 673.318 356.567 672.482C356.567 671.646 355.889 670.968 355.053 670.968C354.217 670.968 353.539 671.646 353.539 672.482C353.539 673.318 354.217 673.995 355.053 673.995Z" fill="white"/>
<path d="M416.945 696.36C417.781 696.36 418.459 695.682 418.459 694.846C418.459 694.01 417.781 693.332 416.945 693.332C416.109 693.332 415.432 694.01 415.432 694.846C415.432 695.682 416.109 696.36 416.945 696.36Z" fill="white"/>
<path d="M500.512 680.062C501.348 680.062 502.026 679.384 502.026 678.548C502.026 677.712 501.348 677.035 500.512 677.035C499.676 677.035 498.998 677.712 498.998 678.548C498.998 679.384 499.676 680.062 500.512 680.062Z" fill="white"/>
<path d="M380.885 815.12C381.721 815.12 382.399 814.442 382.399 813.606C382.399 812.77 381.721 812.092 380.885 812.092C380.049 812.092 379.371 812.77 379.371 813.606C379.371 814.442 380.049 815.12 380.885 815.12Z" fill="white"/>
<path d="M198.494 833.671C199.33 833.671 200.008 832.993 200.008 832.157C200.008 831.321 199.33 830.643 198.494 830.643C197.658 830.643 196.98 831.321 196.98 832.157C196.98 832.993 197.658 833.671 198.494 833.671Z" fill="white"/>
<path d="M194.336 750.974C195.172 750.974 195.85 750.297 195.85 749.461C195.85 748.625 195.172 747.947 194.336 747.947C193.5 747.947 192.822 748.625 192.822 749.461C192.822 750.297 193.5 750.974 194.336 750.974Z" fill="white"/>
<path d="M72.627 767.443C73.4631 767.443 74.1408 766.765 74.1408 765.929C74.1408 765.093 73.4631 764.416 72.627 764.416C71.791 764.416 71.1133 765.093 71.1133 765.929C71.1133 766.765 71.791 767.443 72.627 767.443Z" fill="white"/>
<path d="M33.4474 816.681C34.2834 816.681 34.9611 816.004 34.9611 815.168C34.9611 814.332 34.2834 813.654 33.4474 813.654C32.6113 813.654 31.9336 814.332 31.9336 815.168C31.9336 816.004 32.6113 816.681 33.4474 816.681Z" fill="white"/>
<path d="M178.08 544.312C178.916 544.312 179.594 543.634 179.594 542.798C179.594 541.962 178.916 541.285 178.08 541.285C177.244 541.285 176.566 541.962 176.566 542.798C176.566 543.634 177.244 544.312 178.08 544.312Z" fill="white"/>
<path d="M2.24032 554.543C3.07635 554.543 3.75408 553.865 3.75408 553.029C3.75408 552.193 3.07635 551.516 2.24032 551.516C1.4043 551.516 0.726562 552.193 0.726562 553.029C0.726562 553.865 1.4043 554.543 2.24032 554.543Z" fill="white"/>
<path d="M64.6544 438.036C65.4904 438.036 66.1681 437.358 66.1681 436.522C66.1681 435.686 65.4904 435.008 64.6544 435.008C63.8184 435.008 63.1406 435.686 63.1406 436.522C63.1406 437.358 63.8184 438.036 64.6544 438.036Z" fill="white"/>
<path d="M743.356 733.464C743.356 732.628 742.678 731.95 741.842 731.95C741.006 731.95 740.328 732.628 740.328 733.464C740.328 734.3 741.006 734.978 741.842 734.978C742.678 734.978 743.356 734.3 743.356 733.464Z" fill="white"/>
<path d="M748.695 615.369C748.695 614.533 748.018 613.855 747.182 613.855C746.346 613.855 745.668 614.533 745.668 615.369C745.668 616.205 746.346 616.882 747.182 616.882C748.018 616.882 748.695 616.205 748.695 615.369Z" fill="white"/>
<path d="M798.547 488.572C798.547 487.736 797.869 487.058 797.033 487.058C796.197 487.058 795.52 487.736 795.52 488.572C795.52 489.408 796.197 490.085 797.033 490.085C797.869 490.085 798.547 489.408 798.547 488.572Z" fill="white"/>
<path d="M726.209 442.622C726.209 441.786 725.531 441.109 724.695 441.109C723.859 441.109 723.182 441.786 723.182 442.622C723.182 443.458 723.859 444.136 724.695 444.136C725.531 444.136 726.209 443.458 726.209 442.622Z" fill="white"/>
<path d="M704.072 528.027C704.072 527.191 703.395 526.513 702.559 526.513C701.723 526.513 701.045 527.191 701.045 528.027C701.045 528.863 701.723 529.541 702.559 529.541C703.395 529.541 704.072 528.863 704.072 528.027Z" fill="white"/>
<path d="M676.971 590.048C676.971 589.212 676.293 588.534 675.457 588.534C674.621 588.534 673.943 589.212 673.943 590.048C673.943 590.884 674.621 591.562 675.457 591.562C676.293 591.562 676.971 590.884 676.971 590.048Z" fill="white"/>
<path d="M991.256 698.694C992.092 698.694 992.77 698.016 992.77 697.18C992.77 696.344 992.092 695.667 991.256 695.667C990.42 695.667 989.742 696.344 989.742 697.18C989.742 698.016 990.42 698.694 991.256 698.694Z" fill="white"/>
<path d="M817.119 639.054C817.955 639.054 818.633 638.376 818.633 637.54C818.633 636.704 817.955 636.026 817.119 636.026C816.283 636.026 815.605 636.704 815.605 637.54C815.605 638.376 816.283 639.054 817.119 639.054Z" fill="white"/>
<path d="M866.272 584.443C867.108 584.443 867.785 583.765 867.785 582.929C867.785 582.093 867.108 581.416 866.272 581.416C865.436 581.416 864.758 582.093 864.758 582.929C864.758 583.765 865.436 584.443 866.272 584.443Z" fill="white"/>
<path d="M1026.47 603.169C1027.3 603.169 1027.98 602.491 1027.98 601.655C1027.98 600.819 1027.3 600.142 1026.47 600.142C1025.63 600.142 1024.95 600.819 1024.95 601.655C1024.95 602.491 1025.63 603.169 1026.47 603.169Z" fill="white"/>
<path d="M1107.86 558.435C1108.7 558.435 1109.38 557.757 1109.38 556.921C1109.38 556.085 1108.7 555.408 1107.86 555.408C1107.03 555.408 1106.35 556.085 1106.35 556.921C1106.35 557.757 1107.03 558.435 1107.86 558.435Z" fill="white"/>
<path d="M1232.17 596.927C1233.01 596.927 1233.68 596.25 1233.68 595.414C1233.68 594.578 1233.01 593.9 1232.17 593.9C1231.33 593.9 1230.66 594.578 1230.66 595.414C1230.66 596.25 1231.33 596.927 1232.17 596.927Z" fill="white"/>
<path d="M1321.11 469.497C1321.95 469.497 1322.63 468.82 1322.63 467.983C1322.63 467.147 1321.95 466.47 1321.11 466.47C1320.28 466.47 1319.6 467.147 1319.6 467.983C1319.6 468.82 1320.28 469.497 1321.11 469.497Z" fill="white"/>
<path d="M1375.99 519.427C1376.82 519.427 1377.5 518.75 1377.5 517.914C1377.5 517.078 1376.82 516.4 1375.99 516.4C1375.15 516.4 1374.47 517.078 1374.47 517.914C1374.47 518.75 1375.15 519.427 1375.99 519.427Z" fill="white"/>
<path d="M1410.7 557.109C1411.54 557.109 1412.22 556.431 1412.22 555.595C1412.22 554.759 1411.54 554.081 1410.7 554.081C1409.87 554.081 1409.19 554.759 1409.19 555.595C1409.19 556.431 1409.87 557.109 1410.7 557.109Z" fill="white"/>
<path d="M1382.23 682.484C1383.06 682.484 1383.74 681.806 1383.74 680.97C1383.74 680.134 1383.06 679.457 1382.23 679.457C1381.39 679.457 1380.71 680.134 1380.71 680.97C1380.71 681.806 1381.39 682.484 1382.23 682.484Z" fill="white"/>
<path d="M1368.17 622.526C1369 622.526 1369.68 621.848 1369.68 621.012C1369.68 620.176 1369 619.498 1368.17 619.498C1367.33 619.498 1366.65 620.176 1366.65 621.012C1366.65 621.848 1367.33 622.526 1368.17 622.526Z" fill="white"/>
<path d="M1355.22 842.942C1356.06 842.942 1356.73 842.264 1356.73 841.428C1356.73 840.592 1356.06 839.915 1355.22 839.915C1354.38 839.915 1353.71 840.592 1353.71 841.428C1353.71 842.264 1354.38 842.942 1355.22 842.942Z" fill="white"/>
<path d="M1383.4 789.889C1384.23 789.889 1384.91 789.212 1384.91 788.376C1384.91 787.54 1384.23 786.862 1383.4 786.862C1382.56 786.862 1381.88 787.54 1381.88 788.376C1381.88 789.212 1382.56 789.889 1383.4 789.889Z" fill="white"/>
<path d="M1344.21 736.665C1345.05 736.665 1345.73 735.987 1345.73 735.151C1345.73 734.315 1345.05 733.638 1344.21 733.638C1343.38 733.638 1342.7 734.315 1342.7 735.151C1342.7 735.987 1343.38 736.665 1344.21 736.665Z" fill="white"/>
<path d="M1229.62 759.375C1230.45 759.375 1231.13 758.697 1231.13 757.861C1231.13 757.025 1230.45 756.348 1229.62 756.348C1228.78 756.348 1228.1 757.025 1228.1 757.861C1228.1 758.697 1228.78 759.375 1229.62 759.375Z" fill="white"/>
<path d="M1426.39 845.886C1427.23 845.886 1427.91 845.208 1427.91 844.372C1427.91 843.536 1427.23 842.858 1426.39 842.858C1425.56 842.858 1424.88 843.536 1424.88 844.372C1424.88 845.208 1425.56 845.886 1426.39 845.886Z" fill="white"/>
<path d="M1435.06 703.725C1435.9 703.725 1436.57 703.047 1436.57 702.211C1436.57 701.375 1435.9 700.697 1435.06 700.697C1434.22 700.697 1433.55 701.375 1433.55 702.211C1433.55 703.047 1434.22 703.725 1435.06 703.725Z" fill="white"/>
<path d="M1435.06 762.669C1435.9 762.669 1436.57 761.991 1436.57 761.155C1436.57 760.319 1435.9 759.642 1435.06 759.642C1434.22 759.642 1433.55 760.319 1433.55 761.155C1433.55 761.991 1434.22 762.669 1435.06 762.669Z" fill="white"/>
<path d="M1393.28 489.089C1394.11 489.089 1394.79 488.411 1394.79 487.575C1394.79 486.739 1394.11 486.061 1393.28 486.061C1392.44 486.061 1391.76 486.739 1391.76 487.575C1391.76 488.411 1392.44 489.089 1393.28 489.089Z" fill="white"/>
<path d="M1227.19 450.772C1228.03 450.772 1228.7 450.094 1228.7 449.258C1228.7 448.422 1228.03 447.745 1227.19 447.745C1226.35 447.745 1225.68 448.422 1225.68 449.258C1225.68 450.094 1226.35 450.772 1227.19 450.772Z" fill="white"/>
<path d="M1117.44 470.189C1118.28 470.189 1118.96 469.511 1118.96 468.675C1118.96 467.839 1118.28 467.162 1117.44 467.162C1116.61 467.162 1115.93 467.839 1115.93 468.675C1115.93 469.511 1116.61 470.189 1117.44 470.189Z" fill="white"/>
<path d="M1103.05 671.995C1103.89 671.995 1104.57 671.318 1104.57 670.482C1104.57 669.646 1103.89 668.968 1103.05 668.968C1102.22 668.968 1101.54 669.646 1101.54 670.482C1101.54 671.318 1102.22 671.995 1103.05 671.995Z" fill="white"/>
<path d="M1164.95 694.36C1165.78 694.36 1166.46 693.682 1166.46 692.846C1166.46 692.01 1165.78 691.332 1164.95 691.332C1164.11 691.332 1163.43 692.01 1163.43 692.846C1163.43 693.682 1164.11 694.36 1164.95 694.36Z" fill="white"/>
<path d="M1248.51 678.062C1249.35 678.062 1250.03 677.384 1250.03 676.548C1250.03 675.712 1249.35 675.035 1248.51 675.035C1247.68 675.035 1247 675.712 1247 676.548C1247 677.384 1247.68 678.062 1248.51 678.062Z" fill="white"/>
<path d="M1128.88 813.12C1129.72 813.12 1130.4 812.442 1130.4 811.606C1130.4 810.77 1129.72 810.092 1128.88 810.092C1128.05 810.092 1127.37 810.77 1127.37 811.606C1127.37 812.442 1128.05 813.12 1128.88 813.12Z" fill="white"/>
<path d="M1532.51 674.949C1533.35 674.949 1534.03 674.272 1534.03 673.436C1534.03 672.6 1533.35 671.922 1532.51 671.922C1531.68 671.922 1531 672.6 1531 673.436C1531 674.272 1531.68 674.949 1532.51 674.949Z" fill="white"/>
<path d="M1567.72 579.424C1568.56 579.424 1569.24 578.747 1569.24 577.911C1569.24 577.075 1568.56 576.397 1567.72 576.397C1566.89 576.397 1566.21 577.075 1566.21 577.911C1566.21 578.747 1566.89 579.424 1567.72 579.424Z" fill="white"/>
<path d="M1773.43 573.183C1774.26 573.183 1774.94 572.505 1774.94 571.669C1774.94 570.833 1774.26 570.155 1773.43 570.155C1772.59 570.155 1771.91 570.833 1771.91 571.669C1771.91 572.505 1772.59 573.183 1773.43 573.183Z" fill="white"/>
<path d="M1770.87 735.631C1771.71 735.631 1772.39 734.953 1772.39 734.117C1772.39 733.281 1771.71 732.603 1770.87 732.603C1770.04 732.603 1769.36 733.281 1769.36 734.117C1769.36 734.953 1770.04 735.631 1770.87 735.631Z" fill="white"/>
<path d="M1768.45 427.028C1769.28 427.028 1769.96 426.35 1769.96 425.514C1769.96 424.678 1769.28 424 1768.45 424C1767.61 424 1766.93 424.678 1766.93 425.514C1766.93 426.35 1767.61 427.028 1768.45 427.028Z" fill="white"/>
<path d="M1658.7 446.445C1659.54 446.445 1660.22 445.767 1660.22 444.931C1660.22 444.095 1659.54 443.417 1658.7 443.417C1657.87 443.417 1657.19 444.095 1657.19 444.931C1657.19 445.767 1657.87 446.445 1658.7 446.445Z" fill="white"/>
<path d="M1660.26 557.925C1661.1 557.925 1661.77 557.248 1661.77 556.412C1661.77 555.576 1661.1 554.898 1660.26 554.898C1659.42 554.898 1658.75 555.576 1658.75 556.412C1658.75 557.248 1659.42 557.925 1660.26 557.925Z" fill="white"/>
<path d="M1644.31 648.251C1645.14 648.251 1645.82 647.573 1645.82 646.737C1645.82 645.901 1645.14 645.223 1644.31 645.223C1643.47 645.223 1642.79 645.901 1642.79 646.737C1642.79 647.573 1643.47 648.251 1644.31 648.251Z" fill="white"/>
<path d="M1706.2 670.615C1707.04 670.615 1707.72 669.937 1707.72 669.101C1707.72 668.265 1707.04 667.587 1706.2 667.587C1705.37 667.587 1704.69 668.265 1704.69 669.101C1704.69 669.937 1705.37 670.615 1706.2 670.615Z" fill="white"/>
<path d="M1789.77 654.318C1790.6 654.318 1791.28 653.64 1791.28 652.804C1791.28 651.968 1790.6 651.29 1789.77 651.29C1788.93 651.29 1788.25 651.968 1788.25 652.804C1788.25 653.64 1788.93 654.318 1789.77 654.318Z" fill="white"/>
<path d="M1670.14 789.375C1670.98 789.375 1671.66 788.697 1671.66 787.861C1671.66 787.025 1670.98 786.348 1670.14 786.348C1669.31 786.348 1668.63 787.025 1668.63 787.861C1668.63 788.697 1669.31 789.375 1670.14 789.375Z" fill="white"/>
<path d="M946.494 831.671C947.33 831.671 948.008 830.993 948.008 830.157C948.008 829.321 947.33 828.643 946.494 828.643C945.658 828.643 944.98 829.321 944.98 830.157C944.98 830.993 945.658 831.671 946.494 831.671Z" fill="white"/>
<path d="M942.336 748.974C943.172 748.974 943.85 748.297 943.85 747.461C943.85 746.625 943.172 745.947 942.336 745.947C941.5 745.947 940.822 746.625 940.822 747.461C940.822 748.297 941.5 748.974 942.336 748.974Z" fill="white"/>
<path d="M820.627 765.443C821.463 765.443 822.141 764.765 822.141 763.929C822.141 763.093 821.463 762.416 820.627 762.416C819.791 762.416 819.113 763.093 819.113 763.929C819.113 764.765 819.791 765.443 820.627 765.443Z" fill="white"/>
<path d="M781.447 814.681C782.283 814.681 782.961 814.004 782.961 813.168C782.961 812.332 782.283 811.654 781.447 811.654C780.611 811.654 779.934 812.332 779.934 813.168C779.934 814.004 780.611 814.681 781.447 814.681Z" fill="white"/>
<path d="M926.08 542.312C926.916 542.312 927.594 541.634 927.594 540.798C927.594 539.962 926.916 539.285 926.08 539.285C925.244 539.285 924.566 539.962 924.566 540.798C924.566 541.634 925.244 542.312 926.08 542.312Z" fill="white"/>
<path d="M959.701 445.686C960.537 445.686 961.215 445.008 961.215 444.172C961.215 443.336 960.537 442.659 959.701 442.659C958.865 442.659 958.188 443.336 958.188 444.172C958.188 445.008 958.865 445.686 959.701 445.686Z" fill="white"/>
<path d="M750.24 552.543C751.076 552.543 751.754 551.865 751.754 551.029C751.754 550.193 751.076 549.516 750.24 549.516C749.404 549.516 748.727 550.193 748.727 551.029C748.727 551.865 749.404 552.543 750.24 552.543Z" fill="white"/>
<path d="M812.654 436.036C813.49 436.036 814.168 435.358 814.168 434.522C814.168 433.686 813.49 433.008 812.654 433.008C811.818 433.008 811.141 433.686 811.141 434.522C811.141 435.358 811.818 436.036 812.654 436.036Z" fill="white"/>
<path d="M1566.42 767.516C1566.42 766.68 1565.74 766.002 1564.91 766.002C1564.07 766.002 1563.39 766.68 1563.39 767.516C1563.39 768.352 1564.07 769.03 1564.91 769.03C1565.74 769.03 1566.42 768.352 1566.42 767.516Z" fill="white"/>
<path d="M1491.36 731.464C1491.36 730.628 1490.68 729.95 1489.84 729.95C1489.01 729.95 1488.33 730.628 1488.33 731.464C1488.33 732.3 1489.01 732.978 1489.84 732.978C1490.68 732.978 1491.36 732.3 1491.36 731.464Z" fill="white"/>
<path d="M1496.7 613.369C1496.7 612.533 1496.02 611.855 1495.18 611.855C1494.35 611.855 1493.67 612.533 1493.67 613.369C1493.67 614.205 1494.35 614.882 1495.18 614.882C1496.02 614.882 1496.7 614.205 1496.7 613.369Z" fill="white"/>
<path d="M1547.07 632.722C1547.07 631.886 1546.39 631.208 1545.55 631.208C1544.72 631.208 1544.04 631.886 1544.04 632.722C1544.04 633.558 1544.72 634.236 1545.55 634.236C1546.39 634.236 1547.07 633.558 1547.07 632.722Z" fill="white"/>
<path d="M1546.55 486.572C1546.55 485.736 1545.87 485.058 1545.03 485.058C1544.2 485.058 1543.52 485.736 1543.52 486.572C1543.52 487.408 1544.2 488.085 1545.03 488.085C1545.87 488.085 1546.55 487.408 1546.55 486.572Z" fill="white"/>
<path d="M1474.21 440.622C1474.21 439.786 1473.53 439.109 1472.7 439.109C1471.86 439.109 1471.18 439.786 1471.18 440.622C1471.18 441.458 1471.86 442.136 1472.7 442.136C1473.53 442.136 1474.21 441.458 1474.21 440.622Z" fill="white"/>
<path d="M1452.07 526.027C1452.07 525.191 1451.39 524.513 1450.56 524.513C1449.72 524.513 1449.04 525.191 1449.04 526.027C1449.04 526.863 1449.72 527.541 1450.56 527.541C1451.39 527.541 1452.07 526.863 1452.07 526.027Z" fill="white"/>
<path d="M1424.97 588.048C1424.97 587.212 1424.29 586.534 1423.46 586.534C1422.62 586.534 1421.94 587.212 1421.94 588.048C1421.94 588.884 1422.62 589.562 1423.46 589.562C1424.29 589.562 1424.97 588.884 1424.97 588.048Z" fill="white"/>
<path d="M1837.45 807.673C1838.28 807.673 1838.96 806.995 1838.96 806.159C1838.96 805.323 1838.28 804.646 1837.45 804.646C1836.61 804.646 1835.93 805.323 1835.93 806.159C1835.93 806.995 1836.61 807.673 1837.45 807.673Z" fill="white"/>
<path d="M1806.24 545.535C1807.08 545.535 1807.75 544.857 1807.75 544.021C1807.75 543.185 1807.08 542.507 1806.24 542.507C1805.4 542.507 1804.73 543.185 1804.73 544.021C1804.73 544.857 1805.4 545.535 1806.24 545.535Z" fill="white"/>
<path d="M1837.45 807.673C1838.28 807.673 1838.96 806.995 1838.96 806.159C1838.96 805.323 1838.28 804.646 1837.45 804.646C1836.61 804.646 1835.93 805.323 1835.93 806.159C1835.93 806.995 1836.61 807.673 1837.45 807.673Z" fill="white"/>
<path d="M1806.24 545.535C1807.08 545.535 1807.75 544.857 1807.75 544.021C1807.75 543.185 1807.08 542.507 1806.24 542.507C1805.4 542.507 1804.73 543.185 1804.73 544.021C1804.73 544.857 1805.4 545.535 1806.24 545.535Z" fill="white"/>
</svg>
