<svg width="1766" height="337" viewBox="0 0 1766 337" fill="none" xmlns="http://www.w3.org/2000/svg">
<path d="M128.575 108.317C130.787 108.317 132.58 106.524 132.58 104.312C132.58 102.1 130.787 100.307 128.575 100.307C126.363 100.307 124.57 102.1 124.57 104.312C124.57 106.524 126.363 108.317 128.575 108.317Z" fill="white"/>
<path d="M472.349 305.209C474.56 305.209 476.354 303.415 476.354 301.204C476.354 298.992 474.56 297.199 472.349 297.199C470.137 297.199 468.344 298.992 468.344 301.204C468.344 303.415 470.137 305.209 472.349 305.209Z" fill="white"/>
<path d="M538.923 154.373C541.135 154.373 542.928 152.58 542.928 150.368C542.928 148.156 541.135 146.363 538.923 146.363C536.711 146.363 534.918 148.156 534.918 150.368C534.918 152.58 536.711 154.373 538.923 154.373Z" fill="white"/>
<path d="M264.815 308.848C267.027 308.848 268.82 307.055 268.82 304.843C268.82 302.631 267.027 300.838 264.815 300.838C262.604 300.838 260.811 302.631 260.811 304.843C260.811 307.055 262.604 308.848 264.815 308.848Z" fill="white"/>
<path d="M347.694 53.9932C349.906 53.9932 351.699 52.2001 351.699 49.9883C351.699 47.7764 349.906 45.9834 347.694 45.9834C345.482 45.9834 343.689 47.7764 343.689 49.9883C343.689 52.2001 345.482 53.9932 347.694 53.9932Z" fill="white"/>
<path d="M671.962 10.0098C674.174 10.0098 675.967 8.21675 675.967 6.0049C675.967 3.79305 674.174 2 671.962 2C669.75 2 667.957 3.79305 667.957 6.0049C667.957 8.21675 669.75 10.0098 671.962 10.0098Z" fill="white"/>
<path d="M4.0049 337.01C6.21675 337.01 8.0098 335.217 8.0098 333.005C8.0098 330.793 6.21675 329 4.0049 329C1.79306 329 0 330.793 0 333.005C0 335.217 1.79306 337.01 4.0049 337.01Z" fill="white"/>
<path d="M842.022 110.01C844.234 110.01 846.027 108.217 846.027 106.005C846.027 103.793 844.234 102 842.022 102C839.811 102 838.018 103.793 838.018 106.005C838.018 108.217 839.811 110.01 842.022 110.01Z" fill="white"/>
<path d="M1286.94 152.373C1289.15 152.373 1290.94 150.58 1290.94 148.368C1290.94 146.156 1289.15 144.363 1286.94 144.363C1284.73 144.363 1282.93 146.156 1282.93 148.368C1282.93 150.58 1284.73 152.373 1286.94 152.373Z" fill="white"/>
<path d="M1012.83 306.848C1015.04 306.848 1016.84 305.055 1016.84 302.843C1016.84 300.631 1015.04 298.838 1012.83 298.838C1010.62 298.838 1008.83 300.631 1008.83 302.843C1008.83 305.055 1010.62 306.848 1012.83 306.848Z" fill="white"/>
<path d="M1095.71 51.9932C1097.92 51.9932 1099.71 50.2001 1099.71 47.9883C1099.71 45.7764 1097.92 43.9834 1095.71 43.9834C1093.5 43.9834 1091.71 45.7764 1091.71 47.9883C1091.71 50.2001 1093.5 51.9932 1095.71 51.9932Z" fill="white"/>
<path d="M1419.98 8.0098C1422.19 8.0098 1423.98 6.21675 1423.98 4.0049C1423.98 1.79305 1422.19 0 1419.98 0C1417.76 0 1415.97 1.79305 1415.97 4.0049C1415.97 6.21675 1417.76 8.0098 1419.98 8.0098Z" fill="white"/>
<path d="M714.021 288.123C716.232 288.123 718.025 286.33 718.025 284.118C718.025 281.906 716.232 280.113 714.021 280.113C711.809 280.113 710.016 281.906 710.016 284.118C710.016 286.33 711.809 288.123 714.021 288.123Z" fill="white"/>
<path d="M1761.63 279.464C1763.84 279.464 1765.64 277.671 1765.64 275.459C1765.64 273.247 1763.84 271.454 1761.63 271.454C1759.42 271.454 1757.63 273.247 1757.63 275.459C1757.63 277.671 1759.42 279.464 1761.63 279.464Z" fill="white"/>
<path d="M1554.1 283.104C1556.31 283.104 1558.11 281.311 1558.11 279.099C1558.11 276.887 1556.31 275.094 1554.1 275.094C1551.89 275.094 1550.1 276.887 1550.1 279.099C1550.1 281.311 1551.89 283.104 1554.1 283.104Z" fill="white"/>
<path d="M1636.98 28.2486C1639.19 28.2486 1640.98 26.4555 1640.98 24.2437C1640.98 22.0318 1639.19 20.2388 1636.98 20.2388C1634.77 20.2388 1632.97 22.0318 1632.97 24.2437C1632.97 26.4555 1634.77 28.2486 1636.98 28.2486Z" fill="white"/>
<path d="M1527.29 139.495C1527.29 137.283 1525.49 135.49 1523.28 135.49C1521.07 135.49 1519.28 137.283 1519.28 139.495C1519.28 141.706 1521.07 143.5 1523.28 143.5C1525.49 143.5 1527.29 141.706 1527.29 139.495Z" fill="white"/>
</svg>
