<svg width="1839" height="392" viewBox="0 0 1839 392" fill="none" xmlns="http://www.w3.org/2000/svg">
<path d="M128.575 117.317C130.787 117.317 132.58 115.524 132.58 113.312C132.58 111.1 130.787 109.307 128.575 109.307C126.363 109.307 124.57 111.1 124.57 113.312C124.57 115.524 126.363 117.317 128.575 117.317Z" fill="white"/>
<path d="M472.349 314.209C474.56 314.209 476.354 312.415 476.354 310.204C476.354 307.992 474.56 306.199 472.349 306.199C470.137 306.199 468.344 307.992 468.344 310.204C468.344 312.415 470.137 314.209 472.349 314.209Z" fill="white"/>
<path d="M538.923 163.373C541.135 163.373 542.928 161.58 542.928 159.368C542.928 157.156 541.135 155.363 538.923 155.363C536.711 155.363 534.918 157.156 534.918 159.368C534.918 161.58 536.711 163.373 538.923 163.373Z" fill="white"/>
<path d="M264.815 317.848C267.027 317.848 268.82 316.055 268.82 313.843C268.82 311.631 267.027 309.838 264.815 309.838C262.604 309.838 260.811 311.631 260.811 313.843C260.811 316.055 262.604 317.848 264.815 317.848Z" fill="white"/>
<path d="M347.694 62.9932C349.906 62.9932 351.699 61.2001 351.699 58.9883C351.699 56.7764 349.906 54.9834 347.694 54.9834C345.482 54.9834 343.689 56.7764 343.689 58.9883C343.689 61.2001 345.482 62.9932 347.694 62.9932Z" fill="white"/>
<path d="M671.962 19.0098C674.174 19.0098 675.967 17.2167 675.967 15.0049C675.967 12.7931 674.174 11 671.962 11C669.75 11 667.957 12.7931 667.957 15.0049C667.957 17.2167 669.75 19.0098 671.962 19.0098Z" fill="white"/>
<path d="M69.1212 217.054C69.9572 217.054 70.6349 216.376 70.6349 215.54C70.6349 214.704 69.9572 214.026 69.1212 214.026C68.2852 214.026 67.6074 214.704 67.6074 215.54C67.6074 216.376 68.2852 217.054 69.1212 217.054Z" fill="white"/>
<path d="M278.473 181.169C279.309 181.169 279.986 180.491 279.986 179.655C279.986 178.819 279.309 178.142 278.473 178.142C277.637 178.142 276.959 178.819 276.959 179.655C276.959 180.491 277.637 181.169 278.473 181.169Z" fill="white"/>
<path d="M484.182 174.927C485.018 174.927 485.695 174.25 485.695 173.414C485.695 172.578 485.018 171.9 484.182 171.9C483.346 171.9 482.668 172.578 482.668 173.414C482.668 174.25 483.346 174.927 484.182 174.927Z" fill="white"/>
<path d="M573.123 47.4972C573.959 47.4972 574.637 46.8195 574.637 45.9835C574.637 45.1475 573.959 44.4697 573.123 44.4697C572.287 44.4697 571.609 45.1475 571.609 45.9835C571.609 46.8195 572.287 47.4972 573.123 47.4972Z" fill="white"/>
<path d="M620.18 200.526C621.016 200.526 621.694 199.848 621.694 199.012C621.694 198.176 621.016 197.498 620.18 197.498C619.344 197.498 618.666 198.176 618.666 199.012C618.666 199.848 619.344 200.526 620.18 200.526Z" fill="white"/>
<path d="M596.227 314.665C597.063 314.665 597.74 313.987 597.74 313.151C597.74 312.315 597.063 311.638 596.227 311.638C595.391 311.638 594.713 312.315 594.713 313.151C594.713 313.987 595.391 314.665 596.227 314.665Z" fill="white"/>
<path d="M479.199 28.7721C480.035 28.7721 480.713 28.0944 480.713 27.2584C480.713 26.4224 480.035 25.7446 479.199 25.7446C478.363 25.7446 477.686 26.4224 477.686 27.2584C477.686 28.0944 478.363 28.7721 479.199 28.7721Z" fill="white"/>
<path d="M371.012 159.67C371.848 159.67 372.526 158.992 372.526 158.156C372.526 157.32 371.848 156.643 371.012 156.643C370.176 156.643 369.498 157.32 369.498 158.156C369.498 158.992 370.176 159.67 371.012 159.67Z" fill="white"/>
<path d="M355.061 249.995C355.897 249.995 356.574 249.318 356.574 248.482C356.574 247.646 355.897 246.968 355.061 246.968C354.225 246.968 353.547 247.646 353.547 248.482C353.547 249.318 354.225 249.995 355.061 249.995Z" fill="white"/>
<path d="M380.893 391.12C381.729 391.12 382.406 390.442 382.406 389.606C382.406 388.77 381.729 388.092 380.893 388.092C380.057 388.092 379.379 388.77 379.379 389.606C379.379 390.442 380.057 391.12 380.893 391.12Z" fill="white"/>
<path d="M178.084 120.312C178.92 120.312 179.598 119.634 179.598 118.798C179.598 117.962 178.92 117.285 178.084 117.285C177.248 117.285 176.57 117.962 176.57 118.798C176.57 119.634 177.248 120.312 178.084 120.312Z" fill="white"/>
<path d="M211.707 23.6862C212.543 23.6862 213.221 23.0085 213.221 22.1724C213.221 21.3364 212.543 20.6587 211.707 20.6587C210.871 20.6587 210.193 21.3364 210.193 22.1724C210.193 23.0085 210.871 23.6862 211.707 23.6862Z" fill="white"/>
<path d="M2.24032 130.543C3.07635 130.543 3.75408 129.865 3.75408 129.029C3.75408 128.193 3.07635 127.516 2.24032 127.516C1.4043 127.516 0.726562 128.193 0.726562 129.029C0.726562 129.865 1.4043 130.543 2.24032 130.543Z" fill="white"/>
<path d="M64.6563 14.0358C65.4924 14.0358 66.1701 13.3581 66.1701 12.5221C66.1701 11.686 65.4924 11.0083 64.6563 11.0083C63.8203 11.0083 63.1426 11.686 63.1426 12.5221C63.1426 13.3581 63.8203 14.0358 64.6563 14.0358Z" fill="white"/>
<path d="M704.088 104.027C704.088 103.191 703.41 102.513 702.574 102.513C701.738 102.513 701.061 103.191 701.061 104.027C701.061 104.863 701.738 105.541 702.574 105.541C703.41 105.541 704.088 104.863 704.088 104.027Z" fill="white"/>
<path d="M128.575 117.317C130.787 117.317 132.58 115.524 132.58 113.312C132.58 111.1 130.787 109.307 128.575 109.307C126.363 109.307 124.57 111.1 124.57 113.312C124.57 115.524 126.363 117.317 128.575 117.317Z" fill="white"/>
<path d="M472.349 314.209C474.56 314.209 476.354 312.415 476.354 310.204C476.354 307.992 474.56 306.199 472.349 306.199C470.137 306.199 468.344 307.992 468.344 310.204C468.344 312.415 470.137 314.209 472.349 314.209Z" fill="white"/>
<path d="M538.923 163.373C541.135 163.373 542.928 161.58 542.928 159.368C542.928 157.156 541.135 155.363 538.923 155.363C536.711 155.363 534.918 157.156 534.918 159.368C534.918 161.58 536.711 163.373 538.923 163.373Z" fill="white"/>
<path d="M264.815 317.848C267.027 317.848 268.82 316.055 268.82 313.843C268.82 311.631 267.027 309.838 264.815 309.838C262.604 309.838 260.811 311.631 260.811 313.843C260.811 316.055 262.604 317.848 264.815 317.848Z" fill="white"/>
<path d="M347.694 62.9932C349.906 62.9932 351.699 61.2001 351.699 58.9883C351.699 56.7764 349.906 54.9834 347.694 54.9834C345.482 54.9834 343.689 56.7764 343.689 58.9883C343.689 61.2001 345.482 62.9932 347.694 62.9932Z" fill="white"/>
<path d="M671.962 19.0098C674.174 19.0098 675.967 17.2167 675.967 15.0049C675.967 12.7931 674.174 11 671.962 11C669.75 11 667.957 12.7931 667.957 15.0049C667.957 17.2167 669.75 19.0098 671.962 19.0098Z" fill="white"/>
<path d="M4.0049 346.01C6.21675 346.01 8.0098 344.217 8.0098 342.005C8.0098 339.793 6.21675 338 4.0049 338C1.79306 338 0 339.793 0 342.005C0 344.217 1.79306 346.01 4.0049 346.01Z" fill="white"/>
<path d="M278.473 181.169C279.309 181.169 279.986 180.491 279.986 179.655C279.986 178.819 279.309 178.142 278.473 178.142C277.637 178.142 276.959 178.819 276.959 179.655C276.959 180.491 277.637 181.169 278.473 181.169Z" fill="white"/>
<path d="M484.182 174.927C485.018 174.927 485.695 174.25 485.695 173.414C485.695 172.578 485.018 171.9 484.182 171.9C483.346 171.9 482.668 172.578 482.668 173.414C482.668 174.25 483.346 174.927 484.182 174.927Z" fill="white"/>
<path d="M573.123 47.4972C573.959 47.4972 574.637 46.8195 574.637 45.9835C574.637 45.1475 573.959 44.4697 573.123 44.4697C572.287 44.4697 571.609 45.1475 571.609 45.9835C571.609 46.8195 572.287 47.4972 573.123 47.4972Z" fill="white"/>
<path d="M620.18 200.526C621.016 200.526 621.694 199.848 621.694 199.012C621.694 198.176 621.016 197.498 620.18 197.498C619.344 197.498 618.666 198.176 618.666 199.012C618.666 199.848 619.344 200.526 620.18 200.526Z" fill="white"/>
<path d="M596.227 314.665C597.063 314.665 597.74 313.987 597.74 313.151C597.74 312.315 597.063 311.638 596.227 311.638C595.391 311.638 594.713 312.315 594.713 313.151C594.713 313.987 595.391 314.665 596.227 314.665Z" fill="white"/>
<path d="M815.531 289.028C816.367 289.028 817.045 288.35 817.045 287.514C817.045 286.678 816.367 286 815.531 286C814.695 286 814.018 286.678 814.018 287.514C814.018 288.35 814.695 289.028 815.531 289.028Z" fill="white"/>
<path d="M479.199 28.7721C480.035 28.7721 480.713 28.0944 480.713 27.2584C480.713 26.4224 480.035 25.7446 479.199 25.7446C478.363 25.7446 477.686 26.4224 477.686 27.2584C477.686 28.0944 478.363 28.7721 479.199 28.7721Z" fill="white"/>
<path d="M371.012 159.67C371.848 159.67 372.526 158.992 372.526 158.156C372.526 157.32 371.848 156.643 371.012 156.643C370.176 156.643 369.498 157.32 369.498 158.156C369.498 158.992 370.176 159.67 371.012 159.67Z" fill="white"/>
<path d="M355.061 249.995C355.897 249.995 356.574 249.318 356.574 248.482C356.574 247.646 355.897 246.968 355.061 246.968C354.225 246.968 353.547 247.646 353.547 248.482C353.547 249.318 354.225 249.995 355.061 249.995Z" fill="white"/>
<path d="M380.893 391.12C381.729 391.12 382.406 390.442 382.406 389.606C382.406 388.77 381.729 388.092 380.893 388.092C380.057 388.092 379.379 388.77 379.379 389.606C379.379 390.442 380.057 391.12 380.893 391.12Z" fill="white"/>
<path d="M208.52 263.028C209.356 263.028 210.033 262.35 210.033 261.514C210.033 260.678 209.356 260 208.52 260C207.684 260 207.006 260.678 207.006 261.514C207.006 262.35 207.684 263.028 208.52 263.028Z" fill="white"/>
<path d="M134.518 341.028C135.354 341.028 136.031 340.35 136.031 339.514C136.031 338.678 135.354 338 134.518 338C133.682 338 133.004 338.678 133.004 339.514C133.004 340.35 133.682 341.028 134.518 341.028Z" fill="white"/>
<path d="M178.084 120.312C178.92 120.312 179.598 119.634 179.598 118.798C179.598 117.962 178.92 117.285 178.084 117.285C177.248 117.285 176.57 117.962 176.57 118.798C176.57 119.634 177.248 120.312 178.084 120.312Z" fill="white"/>
<path d="M211.707 23.6862C212.543 23.6862 213.221 23.0085 213.221 22.1724C213.221 21.3364 212.543 20.6587 211.707 20.6587C210.871 20.6587 210.193 21.3364 210.193 22.1724C210.193 23.0085 210.871 23.6862 211.707 23.6862Z" fill="white"/>
<path d="M2.24032 130.543C3.07635 130.543 3.75408 129.865 3.75408 129.029C3.75408 128.193 3.07635 127.516 2.24032 127.516C1.4043 127.516 0.726562 128.193 0.726562 129.029C0.726562 129.865 1.4043 130.543 2.24032 130.543Z" fill="white"/>
<path d="M64.6563 14.0358C65.4924 14.0358 66.1701 13.3581 66.1701 12.5221C66.1701 11.686 65.4924 11.0083 64.6563 11.0083C63.8203 11.0083 63.1426 11.686 63.1426 12.5221C63.1426 13.3581 63.8203 14.0358 64.6563 14.0358Z" fill="white"/>
<path d="M842.022 119.01C844.234 119.01 846.027 117.217 846.027 115.005C846.027 112.793 844.234 111 842.022 111C839.811 111 838.018 112.793 838.018 115.005C838.018 117.217 839.811 119.01 842.022 119.01Z" fill="white"/>
<path d="M1286.94 161.373C1289.15 161.373 1290.94 159.58 1290.94 157.368C1290.94 155.156 1289.15 153.363 1286.94 153.363C1284.73 153.363 1282.93 155.156 1282.93 157.368C1282.93 159.58 1284.73 161.373 1286.94 161.373Z" fill="white"/>
<path d="M1012.83 315.848C1015.04 315.848 1016.84 314.055 1016.84 311.843C1016.84 309.631 1015.04 307.838 1012.83 307.838C1010.62 307.838 1008.83 309.631 1008.83 311.843C1008.83 314.055 1010.62 315.848 1012.83 315.848Z" fill="white"/>
<path d="M1095.71 60.9932C1097.92 60.9932 1099.71 59.2001 1099.71 56.9883C1099.71 54.7764 1097.92 52.9834 1095.71 52.9834C1093.5 52.9834 1091.71 54.7764 1091.71 56.9883C1091.71 59.2001 1093.5 60.9932 1095.71 60.9932Z" fill="white"/>
<path d="M1419.98 17.0098C1422.19 17.0098 1423.98 15.2167 1423.98 13.0049C1423.98 10.7931 1422.19 9 1419.98 9C1417.76 9 1415.97 10.7931 1415.97 13.0049C1415.97 15.2167 1417.76 17.0098 1419.98 17.0098Z" fill="white"/>
<path d="M714.021 297.123C716.232 297.123 718.025 295.33 718.025 293.118C718.025 290.906 716.232 289.113 714.021 289.113C711.809 289.113 710.016 290.906 710.016 293.118C710.016 295.33 711.809 297.123 714.021 297.123Z" fill="white"/>
<path d="M817.137 215.054C817.973 215.054 818.651 214.376 818.651 213.54C818.651 212.704 817.973 212.026 817.137 212.026C816.301 212.026 815.623 212.704 815.623 213.54C815.623 214.376 816.301 215.054 817.137 215.054Z" fill="white"/>
<path d="M1026.49 179.169C1027.32 179.169 1028 178.491 1028 177.655C1028 176.819 1027.32 176.142 1026.49 176.142C1025.65 176.142 1024.97 176.819 1024.97 177.655C1024.97 178.491 1025.65 179.169 1026.49 179.169Z" fill="white"/>
<path d="M1150.54 153.028C1151.38 153.028 1152.05 152.35 1152.05 151.514C1152.05 150.678 1151.38 150 1150.54 150C1149.7 150 1149.03 150.678 1149.03 151.514C1149.03 152.35 1149.7 153.028 1150.54 153.028Z" fill="white"/>
<path d="M1235.06 59.5387C1235.89 59.5387 1236.57 58.861 1236.57 58.025C1236.57 57.189 1235.89 56.5112 1235.06 56.5112C1234.22 56.5112 1233.54 57.189 1233.54 58.025C1233.54 58.861 1234.22 59.5387 1235.06 59.5387Z" fill="white"/>
<path d="M1382.26 258.484C1383.09 258.484 1383.77 257.806 1383.77 256.97C1383.77 256.134 1383.09 255.457 1382.26 255.457C1381.42 255.457 1380.74 256.134 1380.74 256.97C1380.74 257.806 1381.42 258.484 1382.26 258.484Z" fill="white"/>
<path d="M1383.43 365.889C1384.26 365.889 1384.94 365.212 1384.94 364.376C1384.94 363.54 1384.26 362.862 1383.43 362.862C1382.59 362.862 1381.91 363.54 1381.91 364.376C1381.91 365.212 1382.59 365.889 1383.43 365.889Z" fill="white"/>
<path d="M1229.64 335.375C1230.48 335.375 1231.15 334.697 1231.15 333.861C1231.15 333.025 1230.48 332.348 1229.64 332.348C1228.8 332.348 1228.13 333.025 1228.13 333.861C1228.13 334.697 1228.8 335.375 1229.64 335.375Z" fill="white"/>
<path d="M1147.54 253.028C1148.38 253.028 1149.05 252.35 1149.05 251.514C1149.05 250.678 1148.38 250 1147.54 250C1146.7 250 1146.03 250.678 1146.03 251.514C1146.03 252.35 1146.7 253.028 1147.54 253.028Z" fill="white"/>
<path d="M1128.91 389.12C1129.74 389.12 1130.42 388.442 1130.42 387.606C1130.42 386.77 1129.74 386.092 1128.91 386.092C1128.07 386.092 1127.39 386.77 1127.39 387.606C1127.39 388.442 1128.07 389.12 1128.91 389.12Z" fill="white"/>
<path d="M1761.63 288.464C1763.84 288.464 1765.64 286.671 1765.64 284.459C1765.64 282.247 1763.84 280.454 1761.63 280.454C1759.42 280.454 1757.63 282.247 1757.63 284.459C1757.63 286.671 1759.42 288.464 1761.63 288.464Z" fill="white"/>
<path d="M1554.1 292.104C1556.31 292.104 1558.11 290.311 1558.11 288.099C1558.11 285.887 1556.31 284.094 1554.1 284.094C1551.89 284.094 1550.1 285.887 1550.1 288.099C1550.1 290.311 1551.89 292.104 1554.1 292.104Z" fill="white"/>
<path d="M1636.98 37.2486C1639.19 37.2486 1640.98 35.4555 1640.98 33.2437C1640.98 31.0318 1639.19 29.2388 1636.98 29.2388C1634.77 29.2388 1632.97 31.0318 1632.97 33.2437C1632.97 35.4555 1634.77 37.2486 1636.98 37.2486Z" fill="white"/>
<path d="M1768.48 3.02751C1769.32 3.02751 1770 2.34978 1770 1.51376C1770 0.677731 1769.32 0 1768.48 0C1767.65 0 1766.97 0.677731 1766.97 1.51376C1766.97 2.34978 1767.65 3.02751 1768.48 3.02751Z" fill="white"/>
<path d="M1660.3 133.925C1661.13 133.925 1661.81 133.248 1661.81 132.412C1661.81 131.576 1661.13 130.898 1660.3 130.898C1659.46 130.898 1658.78 131.576 1658.78 132.412C1658.78 133.248 1659.46 133.925 1660.3 133.925Z" fill="white"/>
<path d="M1644.34 224.251C1645.18 224.251 1645.86 223.573 1645.86 222.737C1645.86 221.901 1645.18 221.223 1644.34 221.223C1643.51 221.223 1642.83 221.901 1642.83 222.737C1642.83 223.573 1643.51 224.251 1644.34 224.251Z" fill="white"/>
<path d="M1789.8 230.318C1790.64 230.318 1791.32 229.64 1791.32 228.804C1791.32 227.968 1790.64 227.29 1789.8 227.29C1788.97 227.29 1788.29 227.968 1788.29 228.804C1788.29 229.64 1788.97 230.318 1789.8 230.318Z" fill="white"/>
<path d="M1670.18 365.375C1671.01 365.375 1671.69 364.697 1671.69 363.861C1671.69 363.025 1671.01 362.348 1670.18 362.348C1669.34 362.348 1668.66 363.025 1668.66 363.861C1668.66 364.697 1669.34 365.375 1670.18 365.375Z" fill="white"/>
<path d="M942.356 324.974C943.192 324.974 943.869 324.297 943.869 323.461C943.869 322.625 943.192 321.947 942.356 321.947C941.52 321.947 940.842 322.625 940.842 323.461C940.842 324.297 941.52 324.974 942.356 324.974Z" fill="white"/>
<path d="M781.465 390.681C782.301 390.681 782.979 390.004 782.979 389.168C782.979 388.332 782.301 387.654 781.465 387.654C780.629 387.654 779.951 388.332 779.951 389.168C779.951 390.004 780.629 390.681 781.465 390.681Z" fill="white"/>
<path d="M926.1 118.312C926.936 118.312 927.613 117.634 927.613 116.798C927.613 115.962 926.936 115.285 926.1 115.285C925.264 115.285 924.586 115.962 924.586 116.798C924.586 117.634 925.264 118.312 926.1 118.312Z" fill="white"/>
<path d="M959.723 21.6862C960.559 21.6862 961.236 21.0085 961.236 20.1724C961.236 19.3364 960.559 18.6587 959.723 18.6587C958.887 18.6587 958.209 19.3364 958.209 20.1724C958.209 21.0085 958.887 21.6862 959.723 21.6862Z" fill="white"/>
<path d="M812.672 12.0358C813.508 12.0358 814.186 11.3581 814.186 10.5221C814.186 9.68603 813.508 9.0083 812.672 9.0083C811.836 9.0083 811.158 9.68603 811.158 10.5221C811.158 11.3581 811.836 12.0358 812.672 12.0358Z" fill="white"/>
<path d="M1527.29 148.495C1527.29 146.283 1525.49 144.49 1523.28 144.49C1521.07 144.49 1519.28 146.283 1519.28 148.495C1519.28 150.706 1521.07 152.5 1523.28 152.5C1525.49 152.5 1527.29 150.706 1527.29 148.495Z" fill="white"/>
<path d="M1491.39 307.464C1491.39 306.628 1490.71 305.95 1489.87 305.95C1489.04 305.95 1488.36 306.628 1488.36 307.464C1488.36 308.3 1489.04 308.978 1489.87 308.978C1490.71 308.978 1491.39 308.3 1491.39 307.464Z" fill="white"/>
<path d="M1546.58 62.5717C1546.58 61.7357 1545.9 61.0579 1545.07 61.0579C1544.23 61.0579 1543.55 61.7357 1543.55 62.5717C1543.55 63.4077 1544.23 64.0854 1545.07 64.0854C1545.9 64.0854 1546.58 63.4077 1546.58 62.5717Z" fill="white"/>
<path d="M1452.1 102.027C1452.1 101.191 1451.43 100.513 1450.59 100.513C1449.75 100.513 1449.08 101.191 1449.08 102.027C1449.08 102.863 1449.75 103.541 1450.59 103.541C1451.43 103.541 1452.1 102.863 1452.1 102.027Z" fill="white"/>
<path d="M1837.49 383.673C1838.32 383.673 1839 382.995 1839 382.159C1839 381.323 1838.32 380.646 1837.49 380.646C1836.65 380.646 1835.97 381.323 1835.97 382.159C1835.97 382.995 1836.65 383.673 1837.49 383.673Z" fill="white"/>
<path d="M1806.28 121.535C1807.12 121.535 1807.79 120.857 1807.79 120.021C1807.79 119.185 1807.12 118.507 1806.28 118.507C1805.44 118.507 1804.77 119.185 1804.77 120.021C1804.77 120.857 1805.44 121.535 1806.28 121.535Z" fill="white"/>
<path d="M1837.49 383.673C1838.32 383.673 1839 382.995 1839 382.159C1839 381.323 1838.32 380.646 1837.49 380.646C1836.65 380.646 1835.97 381.323 1835.97 382.159C1835.97 382.995 1836.65 383.673 1837.49 383.673Z" fill="white"/>
<path d="M1806.28 121.535C1807.12 121.535 1807.79 120.857 1807.79 120.021C1807.79 119.185 1807.12 118.507 1806.28 118.507C1805.44 118.507 1804.77 119.185 1804.77 120.021C1804.77 120.857 1805.44 121.535 1806.28 121.535Z" fill="white"/>
</svg>
