<svg width="1804" height="733" viewBox="0 0 1804 733" fill="none" xmlns="http://www.w3.org/2000/svg">
<path d="M166.571 108.317C168.783 108.317 170.576 106.524 170.576 104.312C170.576 102.1 168.783 100.307 166.571 100.307C164.359 100.307 162.566 102.1 162.566 104.312C162.566 106.524 164.359 108.317 166.571 108.317Z" fill="white"/>
<path d="M510.339 305.209C512.551 305.209 514.344 303.415 514.344 301.204C514.344 298.992 512.551 297.199 510.339 297.199C508.127 297.199 506.334 298.992 506.334 301.204C506.334 303.415 508.127 305.209 510.339 305.209Z" fill="white"/>
<path d="M576.911 154.373C579.123 154.373 580.916 152.58 580.916 150.368C580.916 148.156 579.123 146.363 576.911 146.363C574.699 146.363 572.906 148.156 572.906 150.368C572.906 152.58 574.699 154.373 576.911 154.373Z" fill="white"/>
<path d="M302.81 308.848C305.021 308.848 306.814 307.055 306.814 304.843C306.814 302.631 305.021 300.838 302.81 300.838C300.598 300.838 298.805 302.631 298.805 304.843C298.805 307.055 300.598 308.848 302.81 308.848Z" fill="white"/>
<path d="M385.687 53.9932C387.898 53.9932 389.691 52.2001 389.691 49.9883C389.691 47.7764 387.898 45.9834 385.687 45.9834C383.475 45.9834 381.682 47.7764 381.682 49.9883C381.682 52.2001 383.475 53.9932 385.687 53.9932Z" fill="white"/>
<path d="M709.946 10.0098C712.158 10.0098 713.951 8.21675 713.951 6.0049C713.951 3.79305 712.158 2 709.946 2C707.734 2 705.941 3.79305 705.941 6.0049C705.941 8.21675 707.734 10.0098 709.946 10.0098Z" fill="white"/>
<path d="M4.0049 290.123C6.21675 290.123 8.0098 288.33 8.0098 286.118C8.0098 283.906 6.21675 282.113 4.0049 282.113C1.79306 282.113 0 283.906 0 286.118C0 288.33 1.79306 290.123 4.0049 290.123Z" fill="white"/>
<path d="M817.252 141.495C817.252 139.283 815.459 137.49 813.247 137.49C811.035 137.49 809.242 139.283 809.242 141.495C809.242 143.706 811.035 145.5 813.247 145.5C815.459 145.5 817.252 143.706 817.252 141.495Z" fill="white"/>
<path d="M914.571 106.317C916.783 106.317 918.576 104.524 918.576 102.312C918.576 100.1 916.783 98.3071 914.571 98.3071C912.359 98.3071 910.566 100.1 910.566 102.312C910.566 104.524 912.359 106.317 914.571 106.317Z" fill="white"/>
<path d="M1324.91 152.373C1327.12 152.373 1328.92 150.58 1328.92 148.368C1328.92 146.156 1327.12 144.363 1324.91 144.363C1322.7 144.363 1320.91 146.156 1320.91 148.368C1320.91 150.58 1322.7 152.373 1324.91 152.373Z" fill="white"/>
<path d="M1050.81 306.848C1053.02 306.848 1054.81 305.055 1054.81 302.843C1054.81 300.631 1053.02 298.838 1050.81 298.838C1048.6 298.838 1046.8 300.631 1046.8 302.843C1046.8 305.055 1048.6 306.848 1050.81 306.848Z" fill="white"/>
<path d="M1133.69 51.9932C1135.9 51.9932 1137.69 50.2001 1137.69 47.9883C1137.69 45.7764 1135.9 43.9834 1133.69 43.9834C1131.47 43.9834 1129.68 45.7764 1129.68 47.9883C1129.68 50.2001 1131.47 51.9932 1133.69 51.9932Z" fill="white"/>
<path d="M1457.95 8.0098C1460.16 8.0098 1461.95 6.21675 1461.95 4.0049C1461.95 1.79305 1460.16 0 1457.95 0C1455.73 0 1453.94 1.79305 1453.94 4.0049C1453.94 6.21675 1455.73 8.0098 1457.95 8.0098Z" fill="white"/>
<path d="M752.005 288.123C754.217 288.123 756.01 286.33 756.01 284.118C756.01 281.906 754.217 280.113 752.005 280.113C749.793 280.113 748 281.906 748 284.118C748 286.33 749.793 288.123 752.005 288.123Z" fill="white"/>
<path d="M1799.59 279.464C1801.81 279.464 1803.6 277.671 1803.6 275.459C1803.6 273.247 1801.81 271.454 1799.59 271.454C1797.38 271.454 1795.59 273.247 1795.59 275.459C1795.59 277.671 1797.38 279.464 1799.59 279.464Z" fill="white"/>
<path d="M1592.07 283.104C1594.28 283.104 1596.07 281.311 1596.07 279.099C1596.07 276.887 1594.28 275.094 1592.07 275.094C1589.86 275.094 1588.06 276.887 1588.06 279.099C1588.06 281.311 1589.86 283.104 1592.07 283.104Z" fill="white"/>
<path d="M1674.94 28.2486C1677.15 28.2486 1678.95 26.4555 1678.95 24.2437C1678.95 22.0318 1677.15 20.2388 1674.94 20.2388C1672.73 20.2388 1670.94 22.0318 1670.94 24.2437C1670.94 26.4555 1672.73 28.2486 1674.94 28.2486Z" fill="white"/>
<path d="M1565.25 139.495C1565.25 137.283 1563.46 135.49 1561.25 135.49C1559.04 135.49 1557.24 137.283 1557.24 139.495C1557.24 141.706 1559.04 143.5 1561.25 143.5C1563.46 143.5 1565.25 141.706 1565.25 139.495Z" fill="white"/>
<path d="M166.571 532.317C168.783 532.317 170.576 530.524 170.576 528.312C170.576 526.1 168.783 524.307 166.571 524.307C164.359 524.307 162.566 526.1 162.566 528.312C162.566 530.524 164.359 532.317 166.571 532.317Z" fill="white"/>
<path d="M510.339 729.209C512.551 729.209 514.344 727.415 514.344 725.204C514.344 722.992 512.551 721.199 510.339 721.199C508.127 721.199 506.334 722.992 506.334 725.204C506.334 727.415 508.127 729.209 510.339 729.209Z" fill="white"/>
<path d="M576.911 578.373C579.123 578.373 580.916 576.58 580.916 574.368C580.916 572.156 579.123 570.363 576.911 570.363C574.699 570.363 572.906 572.156 572.906 574.368C572.906 576.58 574.699 578.373 576.911 578.373Z" fill="white"/>
<path d="M302.81 732.848C305.021 732.848 306.814 731.055 306.814 728.843C306.814 726.631 305.021 724.838 302.81 724.838C300.598 724.838 298.805 726.631 298.805 728.843C298.805 731.055 300.598 732.848 302.81 732.848Z" fill="white"/>
<path d="M385.687 477.993C387.898 477.993 389.691 476.2 389.691 473.988C389.691 471.776 387.898 469.983 385.687 469.983C383.475 469.983 381.682 471.776 381.682 473.988C381.682 476.2 383.475 477.993 385.687 477.993Z" fill="white"/>
<path d="M709.946 434.01C712.158 434.01 713.951 432.217 713.951 430.005C713.951 427.793 712.158 426 709.946 426C707.734 426 705.941 427.793 705.941 430.005C705.941 432.217 707.734 434.01 709.946 434.01Z" fill="white"/>
<path d="M4.0049 714.123C6.21675 714.123 8.0098 712.33 8.0098 710.118C8.0098 707.906 6.21675 706.113 4.0049 706.113C1.79306 706.113 0 707.906 0 710.118C0 712.33 1.79306 714.123 4.0049 714.123Z" fill="white"/>
<path d="M817.252 565.495C817.252 563.283 815.459 561.49 813.247 561.49C811.035 561.49 809.242 563.283 809.242 565.495C809.242 567.706 811.035 569.5 813.247 569.5C815.459 569.5 817.252 567.706 817.252 565.495Z" fill="white"/>
<path d="M914.571 530.317C916.783 530.317 918.576 528.524 918.576 526.312C918.576 524.1 916.783 522.307 914.571 522.307C912.359 522.307 910.566 524.1 910.566 526.312C910.566 528.524 912.359 530.317 914.571 530.317Z" fill="white"/>
<path d="M1324.91 576.373C1327.12 576.373 1328.92 574.58 1328.92 572.368C1328.92 570.156 1327.12 568.363 1324.91 568.363C1322.7 568.363 1320.91 570.156 1320.91 572.368C1320.91 574.58 1322.7 576.373 1324.91 576.373Z" fill="white"/>
<path d="M1050.81 730.848C1053.02 730.848 1054.81 729.055 1054.81 726.843C1054.81 724.631 1053.02 722.838 1050.81 722.838C1048.6 722.838 1046.8 724.631 1046.8 726.843C1046.8 729.055 1048.6 730.848 1050.81 730.848Z" fill="white"/>
<path d="M1133.69 475.993C1135.9 475.993 1137.69 474.2 1137.69 471.988C1137.69 469.776 1135.9 467.983 1133.69 467.983C1131.47 467.983 1129.68 469.776 1129.68 471.988C1129.68 474.2 1131.47 475.993 1133.69 475.993Z" fill="white"/>
<path d="M1457.95 432.01C1460.16 432.01 1461.95 430.217 1461.95 428.005C1461.95 425.793 1460.16 424 1457.95 424C1455.73 424 1453.94 425.793 1453.94 428.005C1453.94 430.217 1455.73 432.01 1457.95 432.01Z" fill="white"/>
<path d="M752.005 712.123C754.217 712.123 756.01 710.33 756.01 708.118C756.01 705.906 754.217 704.113 752.005 704.113C749.793 704.113 748 705.906 748 708.118C748 710.33 749.793 712.123 752.005 712.123Z" fill="white"/>
<path d="M1799.59 703.464C1801.81 703.464 1803.6 701.671 1803.6 699.459C1803.6 697.247 1801.81 695.454 1799.59 695.454C1797.38 695.454 1795.59 697.247 1795.59 699.459C1795.59 701.671 1797.38 703.464 1799.59 703.464Z" fill="white"/>
<path d="M1592.07 707.104C1594.28 707.104 1596.07 705.311 1596.07 703.099C1596.07 700.887 1594.28 699.094 1592.07 699.094C1589.86 699.094 1588.06 700.887 1588.06 703.099C1588.06 705.311 1589.86 707.104 1592.07 707.104Z" fill="white"/>
<path d="M1674.94 452.249C1677.15 452.249 1678.95 450.456 1678.95 448.244C1678.95 446.032 1677.15 444.239 1674.94 444.239C1672.73 444.239 1670.94 446.032 1670.94 448.244C1670.94 450.456 1672.73 452.249 1674.94 452.249Z" fill="white"/>
<path d="M1565.25 563.495C1565.25 561.283 1563.46 559.49 1561.25 559.49C1559.04 559.49 1557.24 561.283 1557.24 563.495C1557.24 565.706 1559.04 567.5 1561.25 567.5C1563.46 567.5 1565.25 565.706 1565.25 563.495Z" fill="white"/>
</svg>
