<svg width="1920" height="626" viewBox="0 0 1920 626" fill="none" xmlns="http://www.w3.org/2000/svg">
<path d="M0 182.96V246.092C2.57043 256.587 102.546 270.135 119.519 266.688C126.28 265.318 132.231 268.756 137.462 272.428C152.314 282.851 154.795 283.353 165.937 269.276C176.718 255.655 192.641 250.676 209.644 246.092C228.707 240.952 247.089 242.823 263.702 251.554C275.874 257.948 283.455 255.091 292.267 247.05C311.68 229.319 334.674 216.191 365.418 218.582C386.492 220.221 405.745 226.66 420.147 240.163C436.47 255.476 449.052 272.67 453.512 293.069C455.083 300.269 457.763 302.292 466.724 299.4C484.637 293.633 502.67 296.875 517.633 305.068C528.074 310.79 531.415 308.767 535.646 301.182C547.337 280.219 566.36 265.246 593.055 258.808C618.939 252.566 645.233 251.903 667.907 267.18C682.089 276.726 696.101 281.239 712.744 271.237C718.025 268.058 724.176 269.213 730.427 270.377C750.4 274.102 768.233 272.15 783.815 259.031C802.428 243.36 840.894 240.969 863.168 253.3C874.359 259.497 884.971 262.855 899.294 261.843C940.39 258.942 971.635 274.828 996.329 300.734C998.749 303.277 999.92 306.689 1001.39 309.797C1006.02 319.566 1012.48 324.993 1027.28 325.279C1054.79 325.817 1069.44 342.303 1078.87 361.18C1084.24 371.934 1091.25 375.677 1105.14 375.695C1126.44 375.713 1144 384.48 1158.78 396.712C1167.15 403.626 1173.47 408.264 1187.44 402.166C1197.02 397.984 1211.87 399.488 1223.45 401.709C1233.55 403.652 1237.88 400.85 1243.94 395.584C1273.93 369.534 1309.37 353.514 1354.58 354.983C1377.38 355.726 1396.68 364.117 1416.25 371.943C1422.77 374.549 1425.19 374.845 1431.37 370.654C1442.22 363.302 1450.76 354.034 1467.49 351.526C1488.6 348.365 1501.89 355.404 1514.24 366.194C1522.58 373.475 1529.84 376.663 1541.95 372.06C1555.87 366.767 1570.97 364.126 1586.58 365.263C1594.11 365.809 1598.96 363.615 1602.31 357.732C1614.9 335.649 1637.4 325.038 1665.76 322.387C1672.7 321.742 1675.92 318.447 1678.43 314.552C1700.28 280.792 1731.35 256.166 1777.31 246.539C1784.2 245.098 1783.88 241.766 1784.95 237.495C1789.18 220.794 1794.39 329.399 1807.44 314.552C1827.33 291.914 1920 308.283 1920 308.283V160.376V3.23124C1910.62 2.01338 1904.18 5.98482 1899.19 11.8771C1893.06 19.1037 1886.53 26.0795 1882.2 34.2911C1880.73 37.085 1880.38 41.473 1872.68 38.3029C1847.94 28.1213 1825.9 34.2016 1807.44 49.398C1800.12 55.4246 1793.95 56.4186 1784.58 53.6337C1768.98 48.9861 1749.71 47.2488 1736.93 52.2815C1712.18 62.0333 1688.98 75.8596 1673.67 96.1961C1665.45 107.112 1657.28 117.724 1640.27 121.458C1631.52 123.383 1626.48 130.251 1621.34 136.941C1616.14 143.711 1616.85 153.382 1606.69 157.609C1590.1 164.513 1573.73 170.566 1556.93 157.546C1554.38 155.567 1549.31 155.638 1545.34 155.119C1532.86 153.48 1521.12 151.949 1510.82 144.006C1501.48 136.806 1491.51 129.598 1477.53 127.037C1437.93 119.765 1407.4 129.275 1385.88 157.859C1382.82 161.925 1379.18 166.286 1372.73 164.907C1340.25 157.958 1315.33 168.131 1293.36 187.061C1285.96 193.437 1279.35 191.924 1275.1 182.924C1268.36 168.65 1259.79 155.406 1239.33 151.394C1234.21 150.391 1231.6 146.442 1228.17 143.272C1215.34 131.425 1202.05 120.652 1182.7 114.912C1160.23 108.249 1135.92 105.554 1115.92 92.4172C1107.31 86.7577 1093.73 85.898 1080.83 88.2531C1059.93 92.0769 1043 99.5452 1032.68 115.619C1029.49 120.589 1024.21 122.076 1017.43 122.362C1002.62 122.98 990.848 128.738 979.756 136.986C964.544 148.287 960.583 162.784 959.013 180.076C940.7 166.277 921.787 157.277 897.953 157.349C891.532 157.367 889.592 151.707 886.862 147.848C875.73 132.105 861.277 116.452 838.914 116.38C812.62 116.3 799.678 102.939 784.945 90.1337C777.604 83.7578 768.123 80.9012 759.691 76.379C733.437 62.284 695.771 63.278 670.637 78.7252C664.406 82.5578 659.315 83.6145 651.254 81.3131C625.88 74.0686 600.116 72.609 576.482 85.6741C562.81 93.232 547.627 100.199 545.417 116.174C544.567 122.3 540.526 119.918 535.625 118.395C508.341 109.933 481.897 109.199 458.833 126.938C451.722 132.41 442.151 128.962 439.39 126.222C431.269 118.171 419.807 118.324 409.945 114.876C403.244 112.53 398.724 109.781 394.433 104.184C385.291 92.2649 375.2 80.6415 361.658 71.3374C339.374 56.0335 314.33 48.8517 285.416 51.2964C276.694 52.0307 272.083 49.5323 268.383 42.2072C260.202 25.9989 247.77 11.7607 226.826 5.51913C174.598 -10.0355 129.001 7.56979 117.239 54.7709C115.298 62.5527 111.848 64.0929 103.396 64.1467C96.2253 64.1914 92.6047 61.2274 88.2241 57.3857C67.8008 39.476 36.3458 38.1417 21.7635 55.7112C15.4725 63.287 9.39148 65.0242 0 63.9676V182.978V182.96Z" fill="#AADAF8"/>
<rect y="212" width="1920" height="414" fill="#AADAF8"/>
</svg>
