<svg width="1920" height="627" viewBox="0 0 1920 627" fill="none" xmlns="http://www.w3.org/2000/svg">
<path d="M1920 258.469V53.3199C1909.78 53.3199 1899.21 53.2628 1889 53.5404C1881.91 53.7374 1876.21 52.2601 1871.29 47.7745C1847.86 26.3765 1806.8 29.1699 1786.1 46.1003C1781.56 49.8159 1778.4 51.1857 1772.05 47.2911C1760.63 40.2987 1747.96 34.7208 1732.75 35.7773C1728.42 36.0817 1725.19 34.9626 1722.38 31.7663C1701.91 8.48812 1675.1 8.5508 1646.15 18.453C1640.9 20.2436 1636.57 20.6196 1631.75 18.2023C1604.87 4.7099 1557.56 15.6775 1547.86 44.6947C1543.91 56.5039 1536.66 63.4784 1519.72 61.6609C1514.22 61.07 1507.01 64.9825 1502.09 68.3399C1490.74 76.0755 1481.38 90.0065 1465.52 73.1567C1465.27 72.8881 1464.49 72.7001 1464.09 72.8075C1443.32 78.3495 1419.3 79.3433 1409.15 100.142C1387.84 56.6113 1339.24 36.8428 1283.89 44.4171C1275.47 45.5721 1271.27 44.4171 1265.84 39.4392C1251.08 25.8841 1232.34 18.5157 1210.13 22.4103C1175.09 28.5521 1153.94 50.6395 1153.1 80.8385C1152.87 88.959 1151.77 91.8867 1140.12 89.5141C1101.9 81.7338 1065.48 86.479 1031.63 103.481C1028.24 105.182 1024.52 107.25 1020.25 104.905C1000.99 94.3399 979.216 96.4528 957.883 96.5782C951.152 96.614 947.191 95.1367 943.86 89.3798C935.109 74.2759 922.447 61.7415 902.173 56.2711C894.112 54.0955 888.551 49.7174 883.05 44.6051C869.938 32.4557 855.185 21.8462 833.702 23.3145C822.81 24.0576 816.129 20.5391 808.997 14.1913C790.454 -2.33624 767.17 -4.30594 745.767 7.64652C738.185 11.8814 713.781 14.9881 704.56 12.8841C664.223 3.70714 625.146 17.1279 602.862 48.4281C598.132 55.0803 595.491 56.3696 587 51.2663C544.583 25.7767 484.962 38.9646 463.809 78.5465C459.938 85.7896 454.767 87.5444 447.396 86.0403C424.182 81.313 401.968 83.4797 380.175 91.0272C373.864 93.2118 369.413 93.5878 363.522 87.7772C346.229 70.7125 319.504 68.8861 297.951 82.6292C291.079 87.0072 285.939 86.3895 280.248 82.853C268.666 75.6457 255.714 72.8702 241.441 73.6939C234.63 74.0879 229.639 72.3957 223.908 68.3847C205.545 55.5638 186.112 43.7009 159.697 45.7332C154.436 46.1361 150.065 43.4144 145.885 40.8806C124.361 27.7911 113.149 27.4509 92.0356 39.5914C88.515 41.6148 85.7146 44.1933 81.5438 40.8896C58.34 22.5177 29.5352 21.694 0.00012207 23.0907V306.637C23.6542 300.486 43.4174 307.299 62.3906 318.598C77.3632 327.516 91.6857 326.844 105.078 317.13C131.912 297.675 161.057 294.031 193.463 306.727C206.765 311.937 216.667 320.926 228.959 328.107C230.509 325.331 231.529 323.424 232.62 321.544C247.142 296.448 273.276 275.579 309.343 278.784C325.115 280.189 334.997 272.982 345.459 265.641C360.731 254.924 393.227 252.175 410.05 260.519C427.302 269.087 444.026 277.226 455.917 292.455C460.158 297.881 475.711 303.477 487.543 306.78C495.164 308.911 500.385 313.37 505.666 319.055C514.307 328.375 519.608 342.154 538.862 341.832C558.805 341.501 576.628 347.472 593.111 356.309C599.762 359.872 605.203 359.622 610.294 354.205C624.426 339.164 641.949 328.214 664.923 323.961C671.874 322.672 673.814 318.948 674.965 313.11C676.655 304.542 676.315 295.553 681.536 287.432C696.598 264.02 719.952 252.318 752.018 253.536C761.529 253.894 767.32 251.038 771.761 244.61C776.902 237.161 783.833 230.114 792.865 226.703C826.14 214.124 858.236 216.47 886.701 236.265C894.722 241.843 903.243 245.809 912.675 248.97C931.318 255.228 948.031 263.984 961.223 276.59C965.134 280.333 969.045 281.085 974.366 281.282C1013.71 282.705 1045.36 295.831 1068.3 322.878C1077.73 333.998 1088.1 344.777 1108.2 337.337C1113.52 335.368 1118.94 339.146 1124.27 339.862C1132.81 341.017 1140.99 348.788 1149.71 343.381C1175.06 327.641 1203.77 325.009 1233.99 326.764C1241.25 327.184 1249.55 327.39 1253.96 322.341C1266.47 308.061 1285 306.709 1303.08 306.95C1338.1 307.416 1364.96 322.126 1385.91 344.321C1396.03 355.047 1405.87 364.018 1423.43 367.617C1456.21 374.341 1471.4 395.524 1477.95 421.112C1480.19 429.85 1483 427.272 1488.13 423.52C1512.57 405.686 1539.14 391.62 1572.95 389.454C1580.22 388.988 1584.76 386.123 1585.8 378.244C1588.06 361.242 1596.2 345.512 1612.14 334.025C1636.2 316.7 1662.75 314.274 1691.16 329.369C1696.02 305.025 1708.57 284.299 1728.53 268.971C1770.9 236.444 1835.49 227.742 1885.08 259.293C1898.71 267.968 1908.77 268.407 1920 258.469Z" fill="#4BA9E7"/>
<rect y="213" width="1920" height="414" fill="#4BA9E7"/>
</svg>
