<svg width="3838" height="427" viewBox="0 0 3838 427" fill="none" xmlns="http://www.w3.org/2000/svg">
<path d="M0 258.352V53.4387C10.22 53.4387 20.45 53.224 30.66 53.5013C37.75 53.6982 43.45 52.222 48.37 47.7397C71.79 26.3573 112.85 29.1486 133.54 46.0667C138.08 49.7795 141.24 51.1484 147.59 47.2566C159.01 40.2693 171.68 34.6955 186.88 35.7512C191.21 36.0554 194.44 34.9371 197.25 31.7432C217.72 8.48193 244.52 8.54456 273.47 18.4395C278.72 20.2289 283.05 20.6046 287.87 18.189C314.74 4.70646 362.04 15.6661 371.74 44.6621C375.69 56.4627 382.94 63.4321 399.88 61.6159C405.38 61.0254 412.59 64.9351 417.51 68.2901C428.85 76.02 438.21 89.9409 454.07 73.1034C454.32 72.835 455.1 72.6471 455.5 72.7545C476.27 78.2924 500.28 79.2855 510.43 100.069C531.74 56.57 580.33 36.8159 635.67 44.3847C644.09 45.5389 648.29 44.3847 653.71 39.4104C668.47 25.8652 687.21 18.5022 709.42 22.3939C744.45 28.5313 765.6 50.6026 766.44 80.7796C766.67 88.8942 767.77 91.8197 779.41 89.4489C817.63 81.6743 854.04 86.416 887.89 103.406C891.27 105.105 894.99 107.172 899.26 104.828C918.52 94.2711 940.29 96.3825 961.62 96.5078C968.35 96.5435 972.31 95.0674 975.64 89.3147C984.39 74.2217 997.05 61.6964 1017.32 56.2301C1025.38 54.056 1030.94 49.6811 1036.44 44.5726C1049.55 32.432 1064.3 21.8303 1085.78 23.2975C1096.67 24.0401 1103.35 20.5241 1110.48 14.1809C1129.02 -2.33454 1152.3 -4.3028 1173.7 7.64095C1181.28 11.8727 1205.68 14.9772 1214.9 12.8747C1255.23 3.70444 1294.3 17.1154 1316.58 48.3928C1321.31 55.0402 1323.95 56.3285 1332.44 51.2289C1374.85 25.7579 1434.46 38.9362 1455.61 78.4893C1459.48 85.7271 1464.65 87.4806 1472.02 85.9776C1495.23 81.2538 1517.44 83.4189 1539.23 90.9609C1545.54 93.1438 1549.99 93.5196 1555.88 87.7132C1573.17 70.661 1599.89 68.8358 1621.44 82.5689C1628.31 86.9438 1633.45 86.3265 1639.14 82.7926C1650.72 75.5906 1663.67 72.8171 1677.94 73.6402C1684.75 74.0338 1689.74 72.3429 1695.47 68.3348C1713.83 55.5233 1733.26 43.669 1759.67 45.6999C1764.93 46.1025 1769.3 43.3827 1773.48 40.8508C1795 27.7708 1806.21 27.4309 1827.32 39.5625C1830.84 41.5844 1833.64 44.1611 1837.81 40.8598C1861.01 22.5013 1889.81 21.6782 1919.34 23.0739V306.413C1895.69 300.267 1875.93 307.075 1856.96 318.366C1841.99 327.277 1827.67 326.606 1814.28 316.899C1787.45 297.458 1758.31 293.817 1725.91 306.503C1712.61 311.71 1702.71 320.692 1690.42 327.867C1688.87 325.094 1687.85 323.188 1686.76 321.31C1672.24 296.232 1646.11 275.378 1610.05 278.58C1594.28 279.985 1584.4 272.783 1573.94 265.447C1558.67 254.738 1526.18 251.991 1509.36 260.329C1492.11 268.891 1475.39 277.024 1463.5 292.242C1459.26 297.664 1443.71 303.255 1431.88 306.557C1424.26 308.686 1419.04 313.141 1413.76 318.822C1405.12 328.136 1399.82 341.905 1380.57 341.583C1360.63 341.252 1342.81 347.219 1326.33 356.049C1319.68 359.61 1314.24 359.36 1309.15 353.947C1295.02 338.917 1277.5 327.975 1254.53 323.725C1247.58 322.437 1245.64 318.715 1244.49 312.882C1242.8 304.32 1243.14 295.338 1237.92 287.223C1222.86 263.828 1199.51 252.134 1167.45 253.351C1157.94 253.709 1152.15 250.855 1147.71 244.431C1142.57 236.988 1135.64 229.947 1126.61 226.538C1093.34 213.968 1061.25 216.312 1032.79 236.093C1024.77 241.667 1016.25 245.63 1006.82 248.788C988.18 255.042 971.47 263.792 958.28 276.389C954.37 280.128 950.46 280.88 945.14 281.077C905.8 282.499 874.16 295.615 851.22 322.643C841.79 333.754 831.42 344.526 811.33 337.091C806.01 335.123 800.59 338.899 795.26 339.614C786.72 340.768 778.54 348.534 769.83 343.13C744.48 327.402 715.77 324.772 685.56 326.525C678.3 326.946 670 327.152 665.59 322.106C653.09 307.836 634.56 306.485 616.48 306.727C581.47 307.192 554.61 321.891 533.67 344.07C523.55 354.788 513.71 363.752 496.15 367.349C463.38 374.068 448.19 395.236 441.64 420.805C439.4 429.537 436.59 426.96 431.46 423.212C407.03 405.39 380.46 391.335 346.66 389.17C339.39 388.705 334.85 385.842 333.81 377.969C331.55 360.979 323.41 345.26 307.47 333.781C283.42 316.469 256.87 314.045 228.47 329.129C223.61 304.803 211.06 284.092 191.1 268.775C148.74 236.272 84.16 227.576 34.58 259.104C20.95 267.773 11.25 268.274 0.02 258.343L0 258.352Z" fill="#4BA9E7"/>
<path d="M3837.66 258.281V53.281C3827.44 53.281 3816.88 53.224 3806.67 53.5014C3799.58 53.6982 3793.88 52.222 3788.96 47.7397C3765.54 26.3573 3724.48 29.1486 3703.79 46.0667C3699.25 49.7795 3696.09 51.1484 3689.74 47.2566C3678.32 40.2693 3665.65 34.6955 3650.45 35.7512C3646.12 36.0554 3642.89 34.9371 3640.08 31.7432C3619.61 8.48193 3592.81 8.54456 3563.86 18.4395C3558.61 20.2289 3554.28 20.6046 3549.46 18.189C3522.59 4.70646 3475.29 15.6661 3465.59 44.6621C3461.64 56.4627 3454.39 63.4321 3437.45 61.6159C3431.95 61.0254 3424.74 64.9351 3419.82 68.2901C3408.48 76.02 3399.12 89.9409 3383.26 73.1034C3383.01 72.835 3382.23 72.6471 3381.83 72.7545C3361.06 78.2924 3337.05 79.2855 3326.9 100.069C3305.59 56.57 3257 36.8159 3201.66 44.3847C3193.24 45.5388 3189.04 44.3847 3183.62 39.4104C3168.86 25.8652 3150.12 18.5022 3127.91 22.3939C3092.88 28.5313 3071.73 50.6026 3070.89 80.7796C3070.66 88.8942 3069.56 91.8197 3057.92 89.4489C3019.7 81.6743 2983.29 86.416 2949.44 103.406C2946.06 105.105 2942.34 107.172 2938.07 104.828C2918.81 94.2711 2897.04 96.3825 2875.71 96.5078C2868.98 96.5435 2865.02 95.0674 2861.69 89.3147C2852.94 74.2217 2840.28 61.6964 2820.01 56.2301C2811.95 54.056 2806.39 49.6811 2800.89 44.5726C2787.78 32.432 2773.03 21.8303 2751.55 23.2975C2740.66 24.0401 2733.98 20.5241 2726.85 14.1809C2708.31 -2.33454 2685.03 -4.3028 2663.63 7.64095C2656.05 11.8727 2631.65 14.9772 2622.43 12.8747C2582.1 3.70444 2543.03 17.1154 2520.75 48.3928C2516.02 55.0402 2513.38 56.3285 2504.89 51.2289C2462.48 25.7579 2402.87 38.9362 2381.72 78.4893C2377.85 85.7271 2372.68 87.4806 2365.31 85.9776C2342.1 81.2538 2319.89 83.4188 2298.1 90.9609C2291.79 93.1438 2287.34 93.5196 2281.45 87.7132C2264.16 70.661 2237.44 68.8358 2215.89 82.5689C2209.02 86.9438 2203.88 86.3265 2198.19 82.7926C2186.61 75.5905 2173.66 72.8171 2159.39 73.6402C2152.58 74.0338 2147.59 72.3429 2141.86 68.3348C2123.5 55.5233 2104.07 43.669 2077.66 45.6999C2072.4 46.1025 2068.03 43.3827 2063.85 40.8508C2042.33 27.7708 2031.12 27.4309 2010.01 39.5625C2006.49 41.5844 2003.69 44.1611 1999.52 40.8598C1976.32 22.5013 1947.52 21.6782 1917.99 23.0739V306.413C1941.64 300.267 1961.4 307.075 1980.37 318.366C1995.34 327.277 2009.66 326.606 2023.05 316.899C2049.88 297.458 2079.02 293.817 2111.42 306.503C2124.72 311.71 2134.62 320.692 2146.91 327.867C2148.46 325.094 2149.48 323.188 2150.57 321.31C2165.09 296.232 2191.22 275.378 2227.28 278.581C2243.05 279.985 2252.93 272.783 2263.39 265.447C2278.66 254.738 2311.15 251.991 2327.97 260.329C2345.22 268.891 2361.94 277.024 2373.83 292.242C2378.07 297.664 2393.62 303.255 2405.45 306.557C2413.07 308.686 2418.29 313.141 2423.57 318.822C2432.21 328.136 2437.51 341.905 2456.76 341.583C2476.7 341.252 2494.52 347.219 2511 356.049C2517.65 359.61 2523.09 359.36 2528.18 353.947C2542.31 338.917 2559.83 327.975 2582.8 323.725C2589.75 322.437 2591.69 318.715 2592.84 312.882C2594.53 304.32 2594.19 295.338 2599.41 287.223C2614.47 263.828 2637.82 252.134 2669.88 253.351C2679.39 253.709 2685.18 250.855 2689.62 244.431C2694.76 236.988 2701.69 229.947 2710.72 226.538C2743.99 213.968 2776.08 216.312 2804.54 236.093C2812.56 241.667 2821.08 245.63 2830.51 248.788C2849.15 255.042 2865.86 263.792 2879.05 276.389C2882.96 280.128 2886.87 280.88 2892.19 281.077C2931.53 282.499 2963.17 295.615 2986.11 322.643C2995.54 333.754 3005.91 344.526 3026 337.091C3031.32 335.123 3036.74 338.899 3042.07 339.614C3050.61 340.768 3058.79 348.534 3067.5 343.13C3092.85 327.402 3121.56 324.772 3151.77 326.525C3159.03 326.946 3167.33 327.152 3171.74 322.106C3184.24 307.836 3202.77 306.485 3220.85 306.727C3255.86 307.192 3282.72 321.891 3303.66 344.07C3313.78 354.788 3323.62 363.752 3341.18 367.349C3373.95 374.068 3389.14 395.236 3395.69 420.805C3397.93 429.537 3400.74 426.96 3405.87 423.212C3430.3 405.39 3456.87 391.335 3490.67 389.17C3497.94 388.705 3502.48 385.842 3503.52 377.969C3505.78 360.979 3513.92 345.26 3529.86 333.781C3553.91 316.469 3580.46 314.045 3608.86 329.129C3613.72 304.803 3626.27 284.092 3646.23 268.775C3688.59 236.272 3753.17 227.576 3802.75 259.104C3816.38 267.773 3826.43 268.212 3837.66 258.281Z" fill="#4BA9E7"/>
</svg>
