<svg width="3838" height="344" viewBox="0 0 3838 344" fill="none" xmlns="http://www.w3.org/2000/svg">
<path d="M1919.34 216.666C1909.95 217.721 1903.87 215.986 1897.58 208.417C1883 190.863 1851.54 192.197 1831.13 210.09C1826.76 213.919 1823.13 216.88 1815.96 216.845C1807.51 216.791 1804.06 215.261 1802.12 207.477C1790.36 160.32 1744.77 142.731 1692.55 158.271C1671.61 164.507 1659.17 178.732 1651 194.925C1647.3 202.244 1642.69 204.74 1633.97 204.006C1605.06 201.564 1580.03 208.748 1557.74 224.029C1544.2 233.315 1534.11 244.937 1524.97 256.845C1520.68 262.437 1516.16 265.183 1509.46 267.527C1499.6 270.972 1488.14 270.82 1480.02 278.863C1477.26 281.6 1467.69 285.036 1460.58 279.578C1437.52 261.855 1411.09 262.589 1383.8 271.043C1378.9 272.564 1374.86 274.944 1374.01 268.825C1371.8 252.864 1356.62 245.903 1342.95 238.352C1319.32 225.299 1293.57 226.757 1268.19 233.995C1260.13 236.295 1255.04 235.239 1248.81 231.41C1223.68 215.977 1186.02 214.984 1159.77 229.066C1151.34 233.584 1141.86 236.438 1134.52 242.808C1119.78 255.601 1106.85 268.95 1080.56 269.03C1058.2 269.102 1043.75 284.741 1032.62 300.469C1029.89 304.325 1027.95 309.979 1021.53 309.961C997.71 309.89 978.79 318.881 960.48 332.668C958.91 315.401 954.95 300.907 939.74 289.617C928.64 281.377 916.87 275.624 902.07 275.007C895.29 274.729 890.01 273.235 886.82 268.27C876.51 252.211 859.58 244.749 838.68 240.929C825.79 238.576 812.21 239.435 803.6 245.089C783.61 258.214 759.3 260.907 736.83 267.563C717.48 273.298 704.19 284.061 691.37 295.897C687.94 299.064 685.33 303.01 680.21 304.012C659.75 308.02 651.18 321.252 644.44 335.513C640.18 344.513 633.59 346.016 626.19 339.646C604.22 320.733 579.3 310.561 546.83 317.512C540.37 318.89 536.74 314.542 533.68 310.471C512.16 281.923 481.65 272.412 442.05 279.677C428.08 282.245 418.1 289.447 408.76 296.631C398.46 304.566 386.72 306.096 374.25 307.734C370.28 308.253 365.21 308.181 362.66 310.158C345.86 323.167 329.49 317.11 312.91 310.221C302.75 305.998 303.46 296.327 298.26 289.572C293.12 282.889 288.08 276.018 279.33 274.103C262.32 270.372 254.17 259.771 245.94 248.865C230.63 228.547 207.42 214.733 182.69 204.99C169.91 199.962 150.65 201.698 135.04 206.341C125.68 209.124 119.5 208.131 112.19 202.109C93.73 186.918 71.69 180.852 46.96 191.025C39.26 194.192 38.91 189.799 37.44 187.016C33.11 178.812 26.58 171.843 20.45 164.623C15.46 158.736 9.37 154.728 0 155.945V39.5756C11.24 49.5064 20.93 49.0054 34.56 40.3361C84.15 8.8081 148.73 17.4953 191.08 50.0074C211.04 65.333 223.59 86.0445 228.45 110.362C256.85 95.2775 283.39 97.702 307.45 115.014C323.39 126.492 331.53 142.212 333.79 159.201C334.84 167.074 339.37 169.928 346.64 170.403C380.44 172.568 407.02 186.623 431.44 204.445C436.58 208.193 439.39 210.77 441.62 202.038C448.17 176.468 463.36 155.301 496.13 148.582C513.69 144.976 523.54 136.021 533.65 125.302C554.58 103.124 581.45 88.4243 616.46 87.9591C634.54 87.7175 653.07 89.0685 665.57 103.338C669.98 108.375 678.28 108.179 685.54 107.758C715.74 106.004 744.45 108.644 769.81 124.363C778.52 129.767 786.71 122.001 795.24 120.847C800.57 120.122 805.99 116.356 811.31 118.324C831.4 125.759 841.77 114.987 851.2 103.875C874.14 76.8474 905.79 63.7316 945.12 62.3091C950.43 62.1212 954.34 61.3607 958.26 57.621C971.45 45.0241 988.16 36.2743 1006.8 30.0206C1016.23 26.8624 1024.75 22.8991 1032.77 17.3253C1061.23 -2.45573 1093.32 -4.80872 1126.59 7.77027C1135.62 11.1879 1142.55 18.22 1147.69 25.6636C1152.13 32.0873 1157.92 34.9412 1167.43 34.5834C1199.49 33.3756 1222.84 45.0599 1237.9 68.4554C1243.12 76.5611 1242.78 85.5435 1244.47 94.1144C1245.62 99.9476 1247.57 103.678 1254.51 104.958C1277.47 109.207 1295 120.149 1309.13 135.18C1314.22 140.592 1319.66 140.843 1326.31 137.282C1342.8 128.452 1360.61 122.484 1380.55 122.815C1399.8 123.137 1405.1 109.36 1413.74 100.055C1419.01 94.3739 1424.24 89.9184 1431.86 87.7891C1443.69 84.4789 1459.24 78.8961 1463.48 73.4745C1475.37 58.2562 1492.09 50.1237 1509.34 41.5618C1526.15 33.2235 1558.65 35.9701 1573.92 46.6793C1584.38 54.0155 1594.26 61.2176 1610.03 59.8129C1646.09 56.61 1672.22 77.4647 1686.74 102.542C1687.83 104.421 1688.85 106.327 1690.4 109.1C1702.69 101.934 1712.59 92.9424 1725.89 87.7354C1758.29 75.0491 1787.43 78.6814 1814.26 98.1314C1827.65 107.839 1841.97 108.501 1856.94 99.5987C1875.91 88.308 1895.67 81.4996 1919.32 87.646V216.666H1919.34Z" fill="#87CBF3"/>
<path d="M1917.95 216.666C1927.34 217.721 1933.42 215.986 1939.71 208.417C1954.29 190.863 1985.75 192.197 2006.16 210.09C2010.53 213.919 2014.16 216.88 2021.33 216.845C2029.78 216.791 2033.23 215.261 2035.17 207.477C2046.93 160.32 2092.52 142.731 2144.74 158.271C2165.68 164.507 2178.12 178.732 2186.29 194.925C2189.99 202.244 2194.6 204.74 2203.32 204.006C2232.23 201.564 2257.26 208.748 2279.55 224.029C2293.09 233.315 2303.18 244.937 2312.32 256.845C2316.61 262.437 2321.13 265.183 2327.83 267.527C2337.69 270.972 2349.15 270.82 2357.27 278.863C2360.03 281.6 2369.6 285.036 2376.71 279.578C2399.77 261.855 2426.2 262.589 2453.49 271.043C2458.39 272.564 2462.43 274.944 2463.28 268.825C2465.49 252.864 2480.67 245.903 2494.34 238.352C2517.97 225.299 2543.72 226.757 2569.1 233.995C2577.16 236.295 2582.25 235.239 2588.48 231.41C2613.61 215.977 2651.27 214.984 2677.52 229.066C2685.95 233.584 2695.43 236.438 2702.77 242.808C2717.51 255.601 2730.44 268.95 2756.73 269.03C2779.09 269.102 2793.54 284.741 2804.67 300.469C2807.4 304.325 2809.34 309.979 2815.76 309.961C2839.58 309.89 2858.5 318.881 2876.81 332.668C2878.38 315.401 2882.34 300.907 2897.55 289.617C2908.65 281.377 2920.42 275.624 2935.22 275.007C2942 274.729 2947.28 273.235 2950.47 268.27C2960.78 252.211 2977.71 244.749 2998.61 240.929C3011.5 238.576 3025.08 239.435 3033.69 245.089C3053.68 258.214 3077.99 260.907 3100.46 267.563C3119.81 273.298 3133.1 284.061 3145.92 295.897C3149.35 299.064 3151.96 303.01 3157.08 304.012C3177.54 308.02 3186.11 321.252 3192.85 335.513C3197.11 344.513 3203.7 346.016 3211.1 339.646C3233.07 320.733 3257.99 310.561 3290.46 317.512C3296.92 318.89 3300.55 314.542 3303.61 310.471C3325.13 281.922 3355.64 272.412 3395.24 279.677C3409.21 282.245 3419.19 289.447 3428.53 296.631C3438.83 304.566 3450.57 306.096 3463.04 307.734C3467.01 308.252 3472.08 308.181 3474.63 310.158C3491.43 323.167 3507.8 317.11 3524.38 310.221C3534.54 305.998 3533.83 296.327 3539.03 289.572C3544.17 282.889 3549.21 276.018 3557.96 274.103C3574.97 270.372 3583.12 259.771 3591.35 248.865C3606.66 228.547 3629.87 214.733 3654.6 204.99C3667.38 199.962 3686.64 201.698 3702.25 206.341C3711.61 209.124 3717.79 208.131 3725.1 202.109C3743.56 186.918 3765.6 180.852 3790.33 191.025C3798.03 194.192 3798.38 189.799 3799.85 187.016C3804.18 178.812 3810.71 171.843 3816.84 164.623C3821.83 158.736 3828.27 154.788 3837.64 156.005V39.5046C3826.4 49.4354 3816.36 49.0054 3802.73 40.3361C3753.14 8.8081 3688.56 17.4953 3646.21 50.0074C3626.25 65.333 3613.7 86.0445 3608.84 110.362C3580.44 95.2775 3553.9 97.702 3529.84 115.014C3513.9 126.492 3505.76 142.212 3503.5 159.201C3502.45 167.074 3497.92 169.928 3490.65 170.402C3456.85 172.568 3430.27 186.623 3405.85 204.444C3400.71 208.193 3397.9 210.77 3395.67 202.038C3389.12 176.468 3373.93 155.301 3341.16 148.582C3323.6 144.976 3313.75 136.021 3303.64 125.302C3282.71 103.124 3255.84 88.4243 3220.83 87.9591C3202.75 87.7175 3184.22 89.0685 3171.72 103.338C3167.31 108.375 3159.01 108.179 3151.75 107.758C3121.55 106.004 3092.84 108.644 3067.48 124.363C3058.77 129.767 3050.58 122.001 3042.05 120.847C3036.72 120.122 3031.3 116.356 3025.98 118.324C3005.89 125.759 2995.52 114.987 2986.09 103.875C2963.15 76.8474 2931.5 63.7316 2892.17 62.3091C2886.86 62.1212 2882.95 61.3607 2879.03 57.621C2865.84 45.0241 2849.13 36.2743 2830.49 30.0206C2821.06 26.8624 2812.54 22.8991 2804.52 17.3253C2776.06 -2.45573 2743.97 -4.80872 2710.7 7.77027C2701.67 11.1879 2694.74 18.22 2689.6 25.6636C2685.16 32.0873 2679.37 34.9412 2669.86 34.5834C2637.8 33.3756 2614.45 45.0599 2599.39 68.4554C2594.17 76.5611 2594.51 85.5435 2592.82 94.1144C2591.67 99.9476 2589.72 103.678 2582.78 104.958C2559.82 109.207 2542.29 120.149 2528.16 135.18C2523.07 140.592 2517.63 140.843 2510.98 137.282C2494.49 128.452 2476.68 122.484 2456.74 122.815C2437.49 123.137 2432.19 109.359 2423.55 100.055C2418.28 94.3739 2413.05 89.9184 2405.43 87.7891C2393.6 84.4788 2378.05 78.8961 2373.81 73.4745C2361.92 58.2562 2345.2 50.1237 2327.95 41.5618C2311.14 33.2235 2278.64 35.9701 2263.37 46.6793C2252.91 54.0155 2243.03 61.2176 2227.26 59.8129C2191.2 56.61 2165.07 77.4647 2150.55 102.542C2149.46 104.421 2148.44 106.327 2146.89 109.1C2134.6 101.934 2124.7 92.9424 2111.4 87.7354C2079 75.0491 2049.86 78.6814 2023.03 98.1314C2009.64 107.839 1995.32 108.501 1980.35 99.5987C1961.38 88.308 1941.62 81.4996 1917.97 87.646V216.666H1917.95Z" fill="#87CBF3"/>
</svg>
