<svg width="3838" height="405" viewBox="0 0 3838 405" fill="none" xmlns="http://www.w3.org/2000/svg">
<path d="M1919.34 182.792C1874.51 181.807 1830.99 211.886 1821.42 250.875C1818.85 261.361 1816.81 269.887 1799.84 266.443C1793.08 265.074 1787.13 268.509 1781.9 272.177C1767.05 282.591 1764.57 283.092 1753.43 269.028C1742.65 255.42 1726.73 250.446 1709.73 245.865C1690.67 240.73 1672.29 242.6 1655.68 251.323C1643.51 257.711 1635.93 254.857 1627.12 246.823C1607.71 229.108 1584.72 215.992 1553.98 218.381C1532.91 220.018 1513.66 226.451 1499.26 239.943C1482.94 255.241 1470.36 272.419 1465.9 292.799C1464.33 299.992 1461.65 302.014 1452.69 299.125C1434.78 293.363 1416.75 296.602 1401.79 304.788C1391.35 310.505 1388.01 308.483 1383.78 300.905C1372.09 279.961 1353.07 265.002 1326.38 258.57C1300.5 252.334 1274.21 251.672 1251.54 266.935C1237.36 276.472 1223.35 280.981 1206.71 270.987C1201.43 267.811 1195.28 268.966 1189.03 270.129C1169.06 273.85 1151.23 271.9 1135.65 258.793C1117.04 243.137 1078.58 240.748 1056.31 253.067C1045.12 259.258 1034.51 262.613 1020.19 261.602C979.1 258.704 947.86 274.575 923.17 300.458C920.75 302.999 919.58 306.407 918.11 309.512C913.48 319.272 907.02 324.694 892.22 324.98C864.72 325.517 850.07 341.988 840.64 360.847C835.27 371.592 828.26 375.332 814.38 375.35C793.08 375.368 775.52 384.127 760.74 396.348C752.38 403.254 746.06 407.889 732.09 401.796C722.51 397.618 707.66 399.121 696.09 401.34C685.99 403.281 681.66 400.481 675.6 395.22C645.61 369.195 610.18 353.189 564.98 354.656C542.18 355.399 522.88 363.782 503.32 371.601C496.8 374.205 494.38 374.5 488.2 370.313C477.35 362.968 468.81 353.708 452.08 351.203C430.98 348.045 417.69 355.077 405.34 365.858C397 373.131 389.74 376.316 377.64 371.718C363.72 366.43 348.62 363.791 333.01 364.927C325.48 365.473 320.64 363.281 317.29 357.403C304.7 335.341 282.2 324.739 253.85 322.091C246.91 321.446 243.69 318.154 241.18 314.262C219.33 280.534 188.27 255.93 142.31 246.313C135.42 244.872 135.74 241.544 134.67 237.277C130.45 220.591 125.88 204.702 112.83 189.868C92.94 167.251 65.42 162.635 38.51 169.148C19.35 173.782 11.36 167.045 0 160.04V3.18795C9.38 1.97121 15.46 5.97931 20.45 11.8662C26.58 19.0861 33.11 26.0555 37.44 34.2596C38.91 37.0509 39.26 41.4348 46.96 38.2677C71.69 28.0954 93.73 34.1701 112.19 49.3525C119.51 55.3736 125.68 56.3667 135.04 53.5843C150.64 48.941 169.91 47.2054 182.69 52.2334C207.43 61.9763 230.63 75.7899 245.94 96.1076C254.16 107.014 262.32 117.615 279.33 121.346C288.08 123.27 293.12 130.132 298.26 136.815C303.46 143.578 302.75 153.241 312.91 157.464C329.49 164.362 345.86 170.409 362.66 157.401C365.21 155.424 370.28 155.495 374.25 154.976C386.72 153.339 398.46 151.809 408.76 143.874C418.1 136.681 428.07 129.479 442.05 126.92C481.64 119.655 512.16 129.156 533.68 157.714C536.74 161.776 540.38 166.133 546.83 164.755C579.3 157.813 604.22 167.976 626.19 186.889C633.59 193.259 640.19 191.747 644.44 182.756C651.18 168.495 659.75 155.263 680.21 151.255C685.33 150.253 687.94 146.307 691.37 143.14C704.19 131.304 717.48 120.541 736.83 114.806C759.3 108.15 783.6 105.457 803.6 92.3322C812.21 86.6779 825.78 85.819 838.68 88.172C859.58 91.9922 876.51 99.4537 886.82 115.513C890.01 120.478 895.29 121.963 902.07 122.25C916.88 122.867 928.65 128.62 939.74 136.86C954.95 148.15 958.91 162.635 960.48 179.911C978.79 166.124 997.7 157.133 1021.53 157.204C1027.95 157.222 1029.89 151.568 1032.62 147.712C1043.75 131.984 1058.2 116.345 1080.56 116.273C1106.85 116.193 1119.79 102.844 1134.52 90.0508C1141.86 83.6808 1151.34 80.8268 1159.77 76.3088C1186.02 62.2268 1223.68 63.2198 1248.81 78.6528C1255.04 82.4819 1260.13 83.5376 1268.19 81.2384C1293.56 74.0005 1319.32 72.5422 1342.95 85.5954C1356.62 93.1463 1371.8 100.107 1374.01 116.068C1374.86 122.187 1378.9 119.807 1383.8 118.286C1411.08 109.832 1437.52 109.098 1460.58 126.821C1467.69 132.288 1477.26 128.843 1480.02 126.106C1488.14 118.063 1499.6 118.215 1509.46 114.77C1516.16 112.426 1520.68 109.68 1524.97 104.088C1534.11 92.1801 1544.2 80.5673 1557.74 71.2718C1580.02 55.982 1605.06 48.8068 1633.97 51.2492C1642.69 51.9828 1647.3 49.4868 1651 42.1684C1659.18 25.975 1671.61 11.7499 1692.55 5.51405C1744.77 -10.0262 1790.36 7.56283 1802.12 54.7205C1804.06 62.4951 1807.51 64.034 1815.96 64.0877C1823.13 64.1324 1826.75 61.1711 1831.13 57.333C1851.55 39.4397 1883 38.1067 1897.58 55.66C1903.87 63.2288 1909.95 64.9644 1919.34 63.9087V182.809V182.792Z" fill="#AADAF8"/>
<path d="M1917.95 182.792C1962.78 181.807 2006.3 211.886 2015.87 250.875C2018.44 261.361 2020.48 269.887 2037.45 266.443C2044.21 265.074 2050.16 268.509 2055.39 272.177C2070.24 282.591 2072.72 283.092 2083.86 269.028C2094.64 255.42 2110.56 250.446 2127.56 245.865C2146.62 240.73 2165 242.6 2181.61 251.323C2193.78 257.711 2201.36 254.857 2210.17 246.823C2229.58 229.108 2252.57 215.992 2283.31 218.381C2304.38 220.018 2323.63 226.451 2338.03 239.943C2354.35 255.241 2366.93 272.419 2371.39 292.799C2372.96 299.992 2375.64 302.014 2384.6 299.125C2402.51 293.363 2420.54 296.602 2435.5 304.788C2445.94 310.505 2449.28 308.483 2453.51 300.905C2465.2 279.961 2484.22 265.002 2510.91 258.57C2536.79 252.334 2563.08 251.672 2585.75 266.935C2599.93 276.472 2613.94 280.981 2630.58 270.987C2635.86 267.811 2642.01 268.966 2648.26 270.129C2668.23 273.85 2686.06 271.9 2701.64 258.793C2720.25 243.137 2758.71 240.748 2780.98 253.067C2792.17 259.258 2802.78 262.613 2817.1 261.602C2858.19 258.704 2889.43 274.575 2914.12 300.458C2916.54 302.999 2917.71 306.407 2919.18 309.512C2923.81 319.272 2930.27 324.694 2945.07 324.98C2972.57 325.517 2987.22 341.988 2996.65 360.847C3002.02 371.592 3009.03 375.332 3022.91 375.35C3044.21 375.368 3061.77 384.127 3076.55 396.348C3084.91 403.254 3091.23 407.889 3105.2 401.796C3114.78 397.618 3129.63 399.121 3141.2 401.34C3151.3 403.281 3155.63 400.481 3161.69 395.22C3191.68 369.195 3227.11 353.189 3272.31 354.656C3295.11 355.399 3314.41 363.782 3333.97 371.601C3340.49 374.205 3342.91 374.5 3349.09 370.313C3359.94 362.968 3368.48 353.708 3385.21 351.203C3406.31 348.045 3419.6 355.077 3431.95 365.858C3440.29 373.131 3447.55 376.316 3459.65 371.718C3473.57 366.43 3488.67 363.791 3504.28 364.927C3511.81 365.473 3516.65 363.281 3520 357.403C3532.59 335.341 3555.09 324.739 3583.44 322.091C3590.38 321.446 3593.6 318.154 3596.11 314.262C3617.96 280.534 3649.02 255.93 3694.98 246.313C3701.87 244.872 3701.55 241.544 3702.62 237.277C3706.84 220.591 3711.41 204.702 3724.46 189.868C3744.35 167.251 3771.87 162.635 3798.78 169.148C3817.94 173.782 3826.28 167.233 3837.64 160.228V3.22827C3828.26 2.01153 3821.83 5.97931 3816.84 11.8662C3810.71 19.0861 3804.18 26.0555 3799.85 34.2596C3798.38 37.0509 3798.03 41.4348 3790.33 38.2677C3765.6 28.0954 3743.56 34.1701 3725.1 49.3525C3717.78 55.3736 3711.61 56.3667 3702.25 53.5843C3686.65 48.941 3667.38 47.2054 3654.6 52.2334C3629.86 61.9763 3606.66 75.7899 3591.35 96.1077C3583.13 107.014 3574.97 117.615 3557.96 121.346C3549.21 123.27 3544.17 130.132 3539.03 136.815C3533.83 143.578 3534.54 153.241 3524.38 157.464C3507.8 164.362 3491.43 170.409 3474.63 157.401C3472.08 155.424 3467.01 155.495 3463.04 154.976C3450.57 153.339 3438.83 151.809 3428.53 143.874C3419.19 136.681 3409.22 129.479 3395.24 126.92C3355.65 119.655 3325.13 129.156 3303.61 157.714C3300.55 161.776 3296.91 166.133 3290.46 164.755C3257.99 157.813 3233.07 167.976 3211.1 186.889C3203.7 193.259 3197.1 191.747 3192.85 182.756C3186.11 168.495 3177.54 155.263 3157.08 151.255C3151.96 150.253 3149.35 146.307 3145.92 143.14C3133.1 131.304 3119.81 120.541 3100.46 114.806C3077.99 108.15 3053.69 105.457 3033.69 92.3322C3025.08 86.6779 3011.51 85.819 2998.61 88.172C2977.71 91.9922 2960.78 99.4537 2950.47 115.513C2947.28 120.478 2942 121.963 2935.22 122.25C2920.41 122.867 2908.64 128.62 2897.55 136.86C2882.34 148.15 2878.38 162.635 2876.81 179.911C2858.5 166.124 2839.59 157.133 2815.76 157.204C2809.34 157.222 2807.4 151.568 2804.67 147.712C2793.54 131.984 2779.09 116.345 2756.73 116.273C2730.44 116.193 2717.5 102.844 2702.77 90.0508C2695.43 83.6808 2685.95 80.8268 2677.52 76.3088C2651.27 62.2268 2613.61 63.2198 2588.48 78.6528C2582.25 82.4819 2577.16 83.5376 2569.1 81.2384C2543.73 74.0005 2517.97 72.5422 2494.34 85.5954C2480.67 93.1463 2465.49 100.107 2463.28 116.068C2462.43 122.187 2458.39 119.807 2453.49 118.286C2426.21 109.832 2399.77 109.098 2376.71 126.821C2369.6 132.288 2360.03 128.843 2357.27 126.106C2349.15 118.063 2337.69 118.215 2327.83 114.77C2321.13 112.426 2316.61 109.68 2312.32 104.088C2303.18 92.1801 2293.09 80.5673 2279.55 71.2718C2257.27 55.982 2232.23 48.8068 2203.32 51.2492C2194.6 51.9828 2189.99 49.4868 2186.29 42.1684C2178.11 25.975 2165.68 11.7499 2144.74 5.51405C2092.52 -10.0262 2046.93 7.56283 2035.17 54.7205C2033.23 62.4951 2029.78 64.034 2021.33 64.0877C2014.16 64.1324 2010.54 61.1711 2006.16 57.333C1985.74 39.4397 1954.29 38.1067 1939.71 55.66C1933.42 63.2288 1927.34 64.9644 1917.95 63.9087V182.809V182.792Z" fill="#AADAF8"/>
</svg>
