<svg width="3838" height="430" viewBox="0 0 3838 430" fill="none" xmlns="http://www.w3.org/2000/svg">
<path d="M1919.37 255.481C1908.05 255.132 1900.31 261.215 1892.71 266.539C1879.45 275.825 1862.71 277.06 1851.26 265.912C1824.84 240.173 1792.45 238.366 1757.36 248.502C1745.91 251.812 1738.34 246.4 1730.24 243.939C1686.36 230.6 1627.85 253.888 1603.45 283.716C1596.39 292.35 1590.36 301.574 1584.06 310.628C1581.48 314.332 1579.82 316.532 1573.74 313.276C1534.6 292.314 1489.36 308.767 1471.88 340.384C1468.67 346.182 1467.1 349.036 1457.84 346.235C1422.78 335.642 1388.57 340.196 1356.88 354.86C1347.59 359.154 1344.76 358.215 1338.86 352.355C1316.88 330.507 1289.56 315.879 1254.33 313.813C1214.57 311.478 1177.31 331.956 1164.37 362.626C1163.23 365.336 1161.77 367.958 1160.27 371.018C1141.64 362.787 1122.93 355.298 1102.12 356.98C1077.78 358.939 1054.04 363.78 1035.7 378.774C1027.93 385.126 1020.28 387.265 1008.4 385.502C993.93 383.355 978.28 381.789 964.16 389.931C952.76 396.507 945.87 388.186 940.4 382.013C923.07 362.438 900.25 349.572 871.59 345.913C831.92 340.849 793.72 343.113 760.73 366.115C745.94 376.43 729.74 384.903 722.41 400.908C719.96 406.258 713.77 410.893 705.44 409.747C679.29 406.133 657.74 414.713 637.54 426.8C631.22 430.584 625.82 431.264 619.88 426.576C591.4 404.111 559.13 388.964 518.02 392.257C507.03 393.134 503.81 389.635 501.49 380.93C492.28 346.414 466.82 330.328 425.66 331.393C424.13 331.429 422.21 330.945 421.12 331.527C402.18 341.61 399.61 329.147 393.99 318.921C374.19 282.929 340.01 263.282 292.18 260.643C263.46 259.059 235.22 260.446 211.1 275.977C208.69 277.525 206.2 279.01 203.99 280.737C185.43 295.257 185.27 295.606 161.33 286.525C123.43 272.148 72.67 284.629 49.57 307.165C42.12 314.43 34.55 321.471 28.39 331.581C21.24 318.572 13.16 308.087 0 301.055V0C11.36 7.00522 19.35 13.7421 38.51 9.10773C65.42 2.60352 92.93 7.21102 112.83 29.8281C125.88 44.6617 130.45 60.5509 134.67 77.2364C135.75 81.504 135.42 84.8322 142.31 86.2726C188.27 95.8992 219.33 120.493 241.18 154.222C243.7 158.114 246.92 161.398 253.85 162.051C282.21 164.699 304.7 175.301 317.29 197.363C320.64 203.241 325.48 205.433 333.01 204.887C348.61 203.751 363.72 206.39 377.64 211.678C389.74 216.276 397 213.091 405.34 205.818C417.69 195.037 430.98 188.014 452.08 191.163C468.81 193.668 477.35 202.928 488.2 210.273C494.38 214.451 496.8 214.165 503.32 211.561C522.88 203.751 542.18 195.359 564.98 194.616C610.18 193.149 645.61 209.155 675.6 235.181C681.66 240.441 685.99 243.241 696.09 241.3C707.66 239.081 722.5 237.578 732.09 241.756C746.06 247.849 752.38 243.224 760.74 236.308C775.53 224.087 793.09 215.337 814.38 215.31C828.26 215.292 835.27 211.552 840.64 200.808C850.07 181.948 864.72 165.477 892.22 164.94C907.02 164.654 913.48 159.232 918.11 149.472C919.58 146.376 920.75 142.958 923.17 140.418C947.86 114.535 979.1 98.6636 1020.19 101.562C1034.51 102.573 1045.12 99.2184 1056.31 93.0273C1078.58 80.7077 1117.04 83.1054 1135.65 98.7531C1151.23 111.86 1169.06 113.81 1189.03 110.089C1195.27 108.925 1201.43 107.78 1206.71 110.947C1223.35 120.941 1237.36 116.441 1251.54 106.895C1274.22 91.6316 1300.5 92.2936 1326.38 98.5294C1353.07 104.953 1372.09 119.921 1383.78 140.865C1388.01 148.452 1391.36 150.465 1401.79 144.748C1416.75 136.562 1434.78 133.323 1452.69 139.085C1461.66 141.965 1464.33 139.943 1465.9 132.759C1470.36 112.37 1482.94 95.2013 1499.26 79.9026C1513.66 66.411 1532.91 59.9783 1553.98 58.3411C1584.72 55.9524 1607.71 69.0681 1627.12 86.7825C1635.93 94.8255 1643.51 97.6706 1655.68 91.2827C1672.29 82.5597 1690.67 80.6899 1709.73 85.8252C1726.73 90.4059 1742.65 95.3802 1753.43 108.988C1764.57 123.052 1767.06 122.551 1781.9 112.137C1787.13 108.469 1793.08 105.034 1799.84 106.403C1816.81 109.847 1818.85 101.321 1821.42 90.8353C1830.99 51.8369 1874.51 21.7672 1919.34 22.7514V255.498L1919.37 255.481Z" fill="#D1E8F8"/>
<path d="M1917.98 255.48C1929.3 255.132 1937.04 261.215 1944.64 266.539C1957.9 275.825 1974.64 277.06 1986.09 265.912C2012.51 240.173 2044.9 238.366 2079.99 248.502C2091.44 251.812 2099.01 246.4 2107.11 243.939C2150.99 230.6 2209.5 253.888 2233.9 283.716C2240.96 292.35 2246.99 301.574 2253.29 310.628C2255.87 314.332 2257.53 316.532 2263.61 313.276C2302.75 292.314 2347.99 308.767 2365.47 340.384C2368.68 346.182 2370.25 349.036 2379.51 346.235C2414.57 335.642 2448.78 340.196 2480.47 354.86C2489.76 359.154 2492.59 358.215 2498.49 352.355C2520.47 330.507 2547.79 315.879 2583.02 313.813C2622.78 311.478 2660.04 331.956 2672.98 362.626C2674.12 365.336 2675.58 367.958 2677.08 371.018C2695.71 362.787 2714.42 355.298 2735.23 356.98C2759.57 358.939 2783.31 363.78 2801.65 378.774C2809.42 385.126 2817.07 387.265 2828.95 385.502C2843.42 383.355 2859.07 381.789 2873.19 389.931C2884.59 396.507 2891.48 388.186 2896.95 382.013C2914.28 362.438 2937.1 349.572 2965.76 345.913C3005.43 340.849 3043.63 343.113 3076.62 366.115C3091.41 376.43 3107.61 384.903 3114.94 400.908C3117.39 406.258 3123.58 410.893 3131.91 409.747C3158.06 406.133 3179.61 414.713 3199.81 426.8C3206.13 430.584 3211.53 431.264 3217.47 426.576C3245.95 404.111 3278.22 388.964 3319.33 392.257C3330.32 393.134 3333.54 389.635 3335.86 380.93C3345.07 346.414 3370.53 330.328 3411.69 331.393C3413.22 331.429 3415.14 330.945 3416.23 331.527C3435.17 341.61 3437.74 329.147 3443.36 318.921C3463.16 282.929 3497.34 263.282 3545.17 260.643C3573.89 259.059 3602.13 260.446 3626.25 275.977C3628.66 277.525 3631.15 279.01 3633.36 280.737C3651.92 295.257 3652.08 295.606 3676.02 286.525C3713.92 272.148 3764.68 284.629 3787.78 307.165C3795.23 314.43 3802.8 321.471 3808.96 331.581C3816.11 318.572 3824.51 308.202 3837.67 301.17V0.17041C3826.31 7.17563 3818 13.7421 3798.84 9.10773C3771.93 2.60352 3744.42 7.21102 3724.52 29.8281C3711.47 44.6617 3706.9 60.5509 3702.68 77.2364C3701.6 81.504 3701.93 84.8322 3695.04 86.2726C3649.08 95.8992 3618.02 120.493 3596.17 154.222C3593.65 158.114 3590.43 161.398 3583.5 162.051C3555.14 164.699 3532.65 175.301 3520.06 197.363C3516.71 203.241 3511.87 205.433 3504.34 204.887C3488.74 203.751 3473.63 206.39 3459.71 211.678C3447.61 216.276 3440.35 213.091 3432.01 205.818C3419.66 195.037 3406.37 188.014 3385.27 191.163C3368.54 193.668 3360 202.928 3349.15 210.273C3342.97 214.451 3340.55 214.165 3334.03 211.561C3314.47 203.751 3295.17 195.359 3272.37 194.616C3227.17 193.149 3191.74 209.155 3161.75 235.181C3155.69 240.441 3151.36 243.241 3141.26 241.3C3129.69 239.081 3114.85 237.578 3105.26 241.756C3091.29 247.849 3084.97 243.224 3076.61 236.308C3061.82 224.087 3044.26 215.337 3022.97 215.31C3009.09 215.292 3002.08 211.552 2996.71 200.808C2987.28 181.948 2972.63 165.477 2945.13 164.94C2930.33 164.654 2923.87 159.232 2919.24 149.472C2917.77 146.376 2916.6 142.958 2914.18 140.418C2889.49 114.535 2858.25 98.6636 2817.16 101.562C2802.84 102.573 2792.23 99.2184 2781.04 93.0273C2758.77 80.7077 2720.31 83.1054 2701.7 98.7531C2686.12 111.86 2668.29 113.81 2648.32 110.089C2642.08 108.925 2635.92 107.78 2630.64 110.947C2614 120.941 2599.99 116.441 2585.81 106.895C2563.13 91.6316 2536.85 92.2936 2510.97 98.5294C2484.28 104.953 2465.26 119.921 2453.57 140.865C2449.34 148.452 2445.99 150.465 2435.56 144.748C2420.6 136.562 2402.57 133.323 2384.66 139.085C2375.69 141.965 2373.02 139.943 2371.45 132.759C2366.99 112.37 2354.41 95.2013 2338.09 79.9026C2323.69 66.411 2304.44 59.9783 2283.37 58.3411C2252.63 55.9524 2229.64 69.0681 2210.23 86.7825C2201.42 94.8255 2193.84 97.6706 2181.67 91.2827C2165.06 82.5597 2146.68 80.6899 2127.62 85.8252C2110.62 90.4059 2094.7 95.3802 2083.92 108.988C2072.78 123.052 2070.29 122.551 2055.45 112.137C2050.22 108.469 2044.27 105.034 2037.51 106.403C2020.54 109.847 2018.5 101.321 2015.93 90.8353C2006.36 51.8369 1962.84 21.7672 1918.01 22.7514V255.498L1917.98 255.48Z" fill="#D1E8F8"/>
</svg>
