<svg width="1920" height="1211" viewBox="0 0 1920 1211" fill="none" xmlns="http://www.w3.org/2000/svg">
<path d="M1919.67 9.95909C1919.67 97.1351 1919.48 184.318 1920 271.494C1920.05 279.419 1917.67 281.007 1906.18 281C1275.4 280.76 644.602 280.76 13.8173 281C2.32504 281 -0.048908 279.419 0.00075623 271.494C0.527197 186.09 0.328542 100.68 0.328542 15.2699C39.2653 12.2107 70.8914 23.5029 100.193 39.3805C117.745 53.8003 131.313 69.8627 134.839 88.6352C139.051 111.069 138.037 111.172 171.68 110.761C174.868 110.72 178.057 110.474 181.245 110.33C240.912 120.048 279.71 147.546 276.809 183.599C275.131 204.446 281.239 217.668 308.813 227.803C321.636 232.512 327.596 233.846 339.634 227.434C378.67 206.642 420.587 199.532 468.205 215.601C490.882 223.252 507.271 233.881 518.674 248.581C524.882 256.588 532.669 260.523 546.069 259.668C560.551 258.744 574.159 261.68 586.724 266.395C597.561 270.461 606.142 270.07 616.552 264.664C632.802 256.212 650.532 249.847 671.53 246.993C694.783 243.831 717.361 244.516 740.325 246.234C744.606 247.835 746.682 246.247 748.093 243.688C764.383 219.153 792.383 206.15 831.082 203.72C839.137 203.214 848.265 204.5 851.931 197.266C857.443 186.378 867.396 177.159 875.74 167.339C907.624 152.419 941.306 145.062 979.24 155.731C996.583 162.794 1012.35 171.219 1021.5 183.866C1027.47 192.113 1033.52 192.791 1045.44 188.808C1102.04 169.884 1161.09 179.945 1199.57 214.259C1203.8 218.03 1206.63 222.876 1214.68 223.772C1230.26 228.871 1247.65 232.368 1260.97 239.479C1276.66 247.835 1293.05 252.92 1311.78 256.766C1328.84 260.27 1334.2 257.389 1334.4 245.946C1334.47 242.162 1336.68 238.124 1339.28 234.681C1363.2 202.906 1394.74 191.449 1446.36 196.876C1458.89 198.19 1467.01 196.082 1475.09 189.998C1485.4 182.231 1492.44 172.198 1506.6 167.065C1519.74 162.308 1523.74 154.965 1522.91 145.151C1521.24 125.208 1530.9 107.818 1550.07 92.9125C1553.98 89.8671 1557.14 86.6299 1557.57 82.4278C1573.24 81.2575 1585.99 75.365 1599.17 70.1775C1623.14 72.2237 1648.22 67.9532 1671.06 76.4327C1677.94 78.9854 1681.65 75.5772 1684.99 72.0732C1700.11 56.1956 1721.01 47.3398 1748.97 46.7786C1757.96 46.6007 1764.54 43.4525 1769.12 38.0254C1775.55 30.4083 1782.35 22.9349 1788.99 15.4068C1797.65 10.8625 1804.42 4.64148 1814.83 1.66443C1818.67 3.06741 1823.59 6.6262 1826.65 4.60729C1840.26 -4.38543 1853.46 1.99294 1865.43 5.25742C1883.26 10.1165 1901.3 10.0275 1919.65 9.96594L1919.67 9.95909Z" fill="#3C428C"/>
<rect y="271" width="1920" height="940" fill="#3C428C"/>
</svg>
