<svg width="1920" height="629" viewBox="0 0 1920 629" fill="none" xmlns="http://www.w3.org/2000/svg">
<rect y="215" width="1920" height="414" fill="#87CBF3"/>
<path d="M0 216.958C9.39148 218.015 22.7131 279.946 29.0042 272.367C43.5865 254.79 43.5966 269.97 64.0098 287.888C68.3805 291.722 85.8433 269.398 93.0144 269.363C101.466 269.309 105.076 295.682 107.017 287.888C118.779 240.666 118.799 275.831 171.027 291.392C191.97 297.636 252.37 259.155 260.541 275.371C264.242 282.699 298.827 285.618 307.549 284.883C336.463 282.438 339.364 209.029 361.658 224.331C375.2 233.63 385.291 245.267 394.433 257.191C398.724 262.79 403.244 265.541 409.945 267.888C419.807 271.337 431.269 271.185 439.39 279.239C442.151 281.98 451.722 285.42 458.833 279.955C481.897 262.208 508.331 262.943 535.625 271.409C540.526 272.932 544.567 275.315 545.417 269.187C547.627 253.205 562.81 246.235 576.482 238.674C600.116 225.603 625.87 227.063 651.254 234.311C659.315 236.613 664.406 235.556 670.637 231.722C695.771 216.268 733.437 215.273 759.691 229.374C768.123 233.899 777.604 236.756 784.945 243.135C799.688 255.946 812.62 269.312 838.914 269.393C861.277 269.465 875.73 285.124 886.862 300.874C889.592 304.735 891.532 310.397 897.953 310.379C921.777 310.307 940.7 319.311 959.013 333.116C960.583 315.826 964.544 301.313 979.756 290.007C990.858 281.756 1002.63 275.996 1017.43 275.377C1024.21 275.1 1029.49 273.604 1032.68 268.631C1043 252.551 1059.93 245.079 1080.83 241.254C1093.72 238.898 1107.31 239.758 1115.92 245.419C1135.91 258.562 1160.23 261.258 1182.7 267.924C1202.05 273.666 1215.34 284.444 1228.17 296.296C1231.6 299.467 1234.21 303.418 1239.33 304.422C1259.79 308.435 1268.36 321.685 1275.1 335.965C1279.36 344.978 1285.96 346.483 1293.36 340.104C1315.33 321.165 1340.25 310.979 1372.73 317.94C1379.19 319.32 1382.82 314.966 1385.88 310.89C1407.4 282.302 1437.92 272.779 1477.53 280.054C1491.5 282.625 1501.48 289.837 1510.82 297.031C1521.12 304.977 1532.86 306.509 1545.34 308.148C1549.31 308.668 1554.38 308.596 1556.93 310.576C1573.73 323.602 1590.1 317.537 1606.69 310.639C1616.85 306.41 1616.14 296.726 1621.34 289.962C1626.48 283.27 1631.52 276.39 1640.27 274.473C1657.28 270.737 1665.44 260.121 1673.67 249.2C1688.98 228.855 1707.04 311.162 1731.78 301.406C1744.56 296.371 1765.67 280.234 1781.28 284.883C1790.65 287.67 1795.98 302.428 1803.29 296.399C1821.75 281.187 1814.56 293.723 1839.29 303.909C1846.99 307.08 1868.33 275.153 1869.8 272.367C1874.13 264.151 1913.87 242.546 1920 235.317V156.215V39.5579C1908.76 49.5021 1898.71 49.0715 1885.08 40.3905C1835.48 8.81997 1770.89 17.5189 1728.54 50.0748C1708.57 65.4211 1696.02 86.1605 1691.16 110.51C1662.76 95.4059 1636.21 97.8337 1612.15 115.169C1596.2 126.663 1588.06 142.403 1585.8 159.416C1584.75 167.3 1580.22 170.157 1572.95 170.632C1539.15 172.8 1512.56 186.874 1488.14 204.72C1483 208.474 1480.19 211.054 1477.96 202.31C1471.4 176.706 1456.21 155.51 1423.44 148.782C1405.87 145.172 1396.02 136.204 1385.91 125.471C1364.98 103.263 1338.1 88.5435 1303.09 88.0777C1285.01 87.8358 1266.47 89.1885 1253.97 103.478C1249.56 108.521 1241.26 108.324 1234 107.903C1203.79 106.147 1175.08 108.79 1149.71 124.531C1141 129.942 1132.81 122.166 1124.28 121.01C1118.95 120.284 1113.53 116.513 1108.21 118.484C1088.11 125.928 1077.74 115.142 1068.31 104.015C1045.37 76.9509 1013.71 63.8175 974.376 62.3931C969.065 62.2049 965.154 61.4434 961.234 57.6987C948.041 45.0848 931.329 36.3232 912.686 30.061C903.254 26.8986 894.733 22.9299 886.712 17.3487C858.247 -2.45904 826.152 -4.81521 792.876 7.78074C783.845 11.203 776.914 18.2445 771.773 25.6982C767.332 32.1305 761.542 34.9883 752.03 34.63C719.965 33.4206 696.611 45.1207 681.549 68.5477C676.328 76.6643 676.668 85.6588 674.978 94.2412C673.828 100.082 671.877 103.818 664.936 105.099C641.973 109.355 624.44 120.311 610.307 135.362C605.217 140.782 599.776 141.033 593.125 137.467C576.632 128.625 558.819 122.649 538.876 122.981C519.623 123.303 514.322 109.507 505.681 100.19C500.41 94.5011 495.179 90.0396 487.558 87.9074C475.726 84.5927 460.173 79.0025 455.933 73.5735C444.041 58.3347 427.318 50.1913 410.065 41.6178C393.253 33.2683 360.748 36.0186 345.475 46.7422C335.014 54.0883 325.132 61.3001 309.359 59.8936C273.294 56.6863 247.16 77.5691 232.637 102.68C231.547 104.562 230.527 106.47 228.977 109.247C216.685 102.071 206.783 93.0677 193.481 87.8537C161.076 75.1502 131.931 78.7875 105.097 98.2637C91.7046 107.984 77.3823 108.647 62.4099 99.7329C43.4369 88.4271 23.6738 81.6095 0.0200195 87.7641V216.958H0Z" fill="#87CBF3"/>
</svg>
