<svg width="1920" height="1215" viewBox="0 0 1920 1215" fill="none" xmlns="http://www.w3.org/2000/svg">
<path d="M14.0026 340.454L0 385.603L0.0300293 255.489V22.5969C44.8672 21.6121 88.3943 51.7029 97.9658 90.7288L97.9871 90.8162C100.547 101.269 102.624 109.744 119.549 106.307C126.31 104.937 132.261 108.375 137.492 112.046C152.334 122.467 154.825 122.968 165.967 108.894C176.748 95.2769 192.671 90.2991 209.674 85.7152C228.737 80.5762 247.12 82.4474 263.732 91.1765C275.904 97.5689 283.485 94.7218 292.297 86.6731C311.71 68.9463 334.704 55.8213 365.448 58.2117C386.522 59.8501 405.775 66.2873 420.177 79.7884C436.5 95.0979 449.082 112.279 453.543 132.682C455.113 139.872 457.783 141.895 466.755 139.012C484.668 133.246 502.701 136.487 517.663 144.679C528.095 150.4 531.445 148.386 535.676 140.794C547.368 119.835 566.391 104.857 593.085 98.4284C618.969 92.1882 645.253 91.5257 667.937 106.799C682.119 116.352 696.131 120.856 712.774 110.855C718.055 107.686 724.216 108.832 730.457 109.996C750.43 113.72 768.263 111.768 783.846 98.6522C802.459 82.9935 840.925 80.5941 863.198 92.9223C874.39 99.1178 885.002 102.475 899.324 101.463C940.421 98.5627 971.666 114.445 996.36 140.346C998.78 142.889 999.95 146.309 1001.42 149.406C1006.05 159.174 1012.51 164.6 1027.31 164.886C1054.82 165.423 1069.47 181.906 1078.9 200.779C1084.27 211.531 1091.28 215.273 1105.17 215.291C1126.46 215.318 1144.02 224.074 1158.82 236.304C1167.18 243.225 1173.5 247.853 1187.47 241.756C1197.06 237.575 1211.9 239.079 1223.48 241.3C1233.58 243.242 1237.91 240.44 1243.97 235.176C1273.96 209.132 1309.4 193.115 1354.61 194.583C1377.41 195.326 1396.71 203.724 1416.28 211.54C1422.8 214.145 1425.22 214.432 1431.4 210.251C1442.25 202.9 1450.79 193.634 1467.53 191.127C1488.63 187.976 1501.92 195.004 1514.27 205.792C1522.61 213.071 1529.88 216.258 1541.98 211.656C1555.9 206.365 1571.01 203.724 1586.61 204.861C1594.15 205.407 1598.99 203.214 1602.34 197.332C1614.93 175.254 1637.42 164.644 1665.79 161.994C1672.72 161.341 1675.94 158.055 1678.46 154.161C1700.31 120.408 1731.38 95.7962 1777.34 86.1629C1784.24 84.7214 1783.91 81.3909 1784.99 77.1203C1789.21 60.4231 1793.78 44.5226 1806.83 29.6786C1826.73 7.04558 1854.25 2.43483 1881.16 8.94363C1900.32 13.5813 1908.64 7.01016 1920 0V392.363C1906.84 399.4 1898.43 318.626 1891.28 331.644C1885.12 321.527 1877.55 314.481 1870.1 307.211C1847 284.659 1796.23 272.169 1758.32 286.557C1734.57 295.572 1734.22 295.3 1716.1 281.109L1715.65 280.764C1713.44 279.036 1708.68 323.776 1706.27 322.227C1682.15 306.685 1667.99 425.346 1639.26 426.93C1591.43 429.571 1545.43 282.958 1525.62 318.975C1520 329.209 1517.43 341.68 1498.49 331.59C1497.4 331.008 1495.48 331.492 1493.95 331.456C1452.78 330.391 1427.32 346.488 1418.11 381.028C1415.79 389.74 1412.57 393.24 1401.57 392.363C1360.46 389.068 1328.18 404.226 1299.7 426.706C1293.76 431.398 1288.36 430.717 1282.04 426.93C1261.83 414.835 1240.28 406.249 1214.12 409.866C1205.79 411.012 1199.6 406.374 1197.15 401.02C1189.82 385.003 1173.62 376.525 1158.83 366.202C1125.83 343.184 1087.62 340.919 1047.95 345.987C1019.28 349.648 996.46 362.523 979.127 382.112C973.656 388.289 966.765 396.616 955.363 390.035C941.241 381.888 925.588 383.455 911.116 385.603C899.234 387.367 891.583 385.227 883.812 378.871C865.469 363.866 841.725 359.022 817.381 357.061C796.568 355.378 777.855 362.872 759.222 371.109C757.721 368.047 756.261 365.423 755.121 362.711C742.179 332.02 704.913 311.527 665.147 313.863C629.911 315.931 602.587 330.57 580.603 352.433C574.702 358.297 571.872 359.237 562.58 354.939C530.885 340.266 496.67 335.708 461.604 346.309C452.351 349.108 450.775 346.261 447.571 340.47L447.562 340.454C430.079 308.814 384.832 292.349 345.685 313.326C339.604 316.585 337.944 314.383 335.364 310.676C329.063 301.616 323.032 292.385 315.971 283.746C291.567 253.896 189.031 401.02 189.031 401.02L167.592 295.125L146.024 346.309L14.0026 340.454Z" fill="#D1E8F8"/>
<path d="M0.0300293 255.489V255.508L0 255.49C0.0100098 255.49 0.0200195 255.489 0.0300293 255.489Z" fill="#D1E8F8"/>
<rect y="275" width="1920" height="940" fill="#D1E8F8"/>
</svg>
