<svg width="3838" height="215" viewBox="0 0 3838 215" fill="none" xmlns="http://www.w3.org/2000/svg">
<path d="M1919.69 131.793C1890.17 130.397 1861.36 131.229 1838.16 149.578C1833.99 152.871 1831.19 150.294 1827.67 148.281C1806.55 136.15 1795.34 136.49 1773.83 149.57C1769.66 152.11 1765.28 154.821 1760.02 154.419C1733.61 152.388 1714.18 164.242 1695.82 177.054C1690.09 181.053 1685.1 182.744 1678.29 182.359C1664.01 181.545 1651.07 184.309 1639.49 191.511C1633.8 195.045 1628.66 195.663 1621.79 191.288C1600.24 177.555 1573.52 179.38 1556.23 196.432C1550.34 202.238 1545.89 201.871 1539.58 199.68C1517.79 192.138 1495.58 189.964 1472.37 194.696C1465 196.199 1459.83 194.437 1455.96 187.208C1434.82 147.655 1375.21 134.477 1332.79 159.948C1324.3 165.047 1321.67 163.759 1316.93 157.112C1294.65 125.843 1255.58 112.432 1215.25 121.593C1206.03 123.687 1181.63 120.591 1174.05 116.36C1152.66 104.416 1129.38 106.384 1110.83 122.9C1103.7 129.243 1097.03 132.759 1086.13 132.016C1064.64 130.549 1049.89 141.151 1036.79 153.291C1031.29 158.391 1025.72 162.775 1017.67 164.949C997.401 170.415 984.751 182.94 975.991 198.033C972.661 203.786 968.701 205.262 961.971 205.226C940.641 205.101 918.871 202.981 899.611 213.547C895.341 215.891 891.611 213.815 888.241 212.124C854.391 195.126 817.981 190.384 779.761 198.168C768.121 200.538 767.021 197.613 766.791 189.498C765.951 159.321 744.801 137.25 709.771 131.113C687.551 127.221 668.821 134.575 654.061 148.129C648.641 153.103 644.441 154.258 636.021 153.103C580.681 145.535 532.082 165.289 510.782 208.787C500.632 187.995 476.632 187.011 455.852 181.473C455.452 181.366 454.682 181.554 454.422 181.822C438.552 198.66 429.202 184.748 417.862 177.009C412.942 173.654 405.732 169.753 400.232 170.335C383.282 172.142 376.032 165.181 372.092 153.381C362.392 124.385 315.102 113.434 288.222 126.908C283.412 129.323 279.072 128.957 273.822 127.158C244.862 117.263 218.072 117.201 197.602 140.462C194.792 143.656 191.562 144.765 187.232 144.47C172.032 143.414 159.352 148.988 147.942 155.975C141.592 159.867 138.432 158.498 133.892 154.785C113.192 137.867 72.1417 135.076 48.7217 156.458C43.8017 160.95 38.1017 162.417 31.0117 162.22C20.8017 161.934 10.5717 162.148 0.351723 162.157C0.331723 111.555 0.386719 40.0048 0.0117188 10.3691L0 0C191.005 0.143146 755.601 0.241559 1127.11 0.241559C1387.21 0.241559 1784.7 0.115284 1920 0V10.3691C1919.57 34.9455 1919.68 91.3181 1919.68 131.802L1919.69 131.793Z" fill="#2C8BD3"/>
<path d="M1918.31 131.793C1947.83 130.397 1976.64 131.229 1999.84 149.578C2004.01 152.871 2006.81 150.294 2010.33 148.281C2031.45 136.15 2042.66 136.49 2064.17 149.57C2068.34 152.11 2072.72 154.821 2077.98 154.419C2104.39 152.388 2123.82 164.242 2142.18 177.054C2147.91 181.053 2152.9 182.744 2159.71 182.359C2173.99 181.545 2186.93 184.309 2198.51 191.511C2204.2 195.045 2209.34 195.663 2216.21 191.288C2237.76 177.555 2264.48 179.38 2281.77 196.432C2287.66 202.238 2292.11 201.871 2298.42 199.68C2320.21 192.138 2342.42 189.964 2365.63 194.696C2373 196.199 2378.17 194.437 2382.04 187.208C2403.18 147.655 2462.79 134.477 2505.21 159.948C2513.7 165.047 2516.33 163.759 2521.07 157.112C2543.35 125.843 2582.42 112.432 2622.75 121.593C2631.97 123.687 2656.37 120.591 2663.95 116.36C2685.34 104.416 2708.62 106.384 2727.17 122.9C2734.3 129.243 2740.97 132.759 2751.87 132.016C2773.36 130.549 2788.11 141.151 2801.21 153.291C2806.71 158.391 2812.27 162.775 2820.32 164.949C2840.59 170.415 2853.25 182.94 2862.01 198.033C2865.34 203.786 2869.29 205.262 2876.02 205.226C2897.35 205.101 2919.12 202.981 2938.38 213.547C2942.65 215.891 2946.38 213.815 2949.75 212.124C2983.6 195.126 3020.01 190.384 3058.23 198.168C3069.87 200.538 3070.97 197.613 3071.2 189.498C3072.04 159.321 3093.19 137.25 3128.22 131.113C3150.44 127.221 3169.17 134.575 3183.93 148.129C3189.35 153.103 3193.55 154.258 3201.97 153.103C3257.31 145.535 3305.91 165.289 3327.21 208.787C3337.36 187.995 3361.36 187.011 3382.14 181.473C3382.54 181.366 3383.31 181.554 3383.57 181.822C3399.44 198.66 3408.79 184.748 3420.13 177.009C3425.05 173.654 3432.26 169.753 3437.76 170.335C3454.71 172.142 3461.96 165.181 3465.9 153.381C3475.6 124.385 3522.89 113.434 3549.77 126.908C3554.58 129.323 3558.92 128.957 3564.17 127.158C3593.13 117.263 3619.93 117.201 3640.4 140.462C3643.21 143.656 3646.44 144.765 3650.77 144.47C3665.97 143.414 3678.65 148.988 3690.06 155.975C3696.41 159.867 3699.57 158.498 3704.11 154.785C3724.81 137.867 3765.85 135.076 3789.27 156.458C3794.19 160.95 3799.89 162.417 3806.98 162.22C3817.19 161.934 3827.78 161.991 3838 162C3838.02 111.398 3837.61 40.0048 3837.98 10.3691L3838 0C3646.99 0.143146 3082.4 0.241559 2710.89 0.241559C2450.79 0.241559 2053.3 0.115284 1918 0V10.3691C1918.43 34.9455 1918.32 91.3181 1918.32 131.802L1918.31 131.793Z" fill="#2C8BD3"/>
</svg>
